<?xml version="1.0" standalone="no"?>
<!DOCTYPE svg PUBLIC "-//W3C//DTD SVG 1.1//EN" "http://www.w3.org/Graphics/SVG/1.1/DTD/svg11.dtd" >
<svg xmlns="http://www.w3.org/2000/svg" xmlns:xlink="http://www.w3.org/1999/xlink" version="1.1">
<metadata>
Created by FontForge 20150824 at Sat Feb 20 00:22:22 2016
 By Everything Fonts
Copyright (c) 2015 by www.fontiran.com (Moslem Ebrahimi). All rights reserved.
</metadata>
<defs>
<font id="IRANSansMobile-Light" horiz-adv-x="0" >
  <font-face 
    font-family="IRANSansMobile Light"
    font-weight="300"
    font-stretch="normal"
    units-per-em="2300"
    panose-1="2 4 5 3 5 2 1 2 2 3"
    ascent="1840"
    descent="-460"
    x-height="1201"
    cap-height="1654"
    bbox="-1183 -1315 4424 2406"
    underline-thickness="100"
    underline-position="-650"
    unicode-range="U+0020-FEFC"
  />
<missing-glyph horiz-adv-x="1229" 
d="M102 -362v1806h1024v-1806h-1024zM217 -248h795v1577h-795v-1577z" />
    <glyph glyph-name="uniFDF2" unicode="&#xfedf;&#xfee0;&#x651;&#xfeea;" horiz-adv-x="2000" arabic-form="isolated" 
d="M1079 17c-9.33301 -1.33301 -19.3311 -1.99414 -29.998 -1.99414s-21.334 0.666992 -32.001 2h-10l-17 3c-33.333 5.33301 -60 15 -80 29c-51.333 24.667 -95 66.334 -131 125.001c-46 -6.66699 -87.833 -11.667 -125.5 -15s-72.5 -5 -104.5 -5
c-165.333 0 -279.666 39.333 -342.999 118c-18.667 22 -31.667 45.333 -39 70s-11 48.667 -11 72c0 19.333 2 37.5 6 54.5s8.66699 31.167 14 42.5v1c18 36 39.5 69.333 64.5 100s51.667 58.667 80 84s57.666 48 87.999 68s59.833 37.667 88.5 53
s55.834 28.666 81.501 39.999s48.167 20.666 67.5 27.999l-14 152c-0.666992 3.33301 -1.16699 6 -1.5 8s-0.5 4.33301 -0.5 7c29.333 2.66699 55.833 5.16699 79.5 7.5s49.5 4.83301 77.5 7.5c18 -212 35.667 -381.167 53 -507.5s33.666 -210.166 48.999 -251.499
c16.667 -44 36.834 -77.5 60.501 -100.5s49.5 -35.167 77.5 -36.5c12 -0.666992 23.667 -1 35 -1h32h27.5c9 0 17.167 0.333008 24.5 1c34 2 62.5 12 85.5 30s40.167 40 51.5 66l-1 -2c4.66699 8.66699 7 32 7 70c0 28 -0.833008 64 -2.5 108
s-4.33398 97.167 -8.00098 159.5s-8 135.166 -13 218.499s-10.833 178.666 -17.5 285.999l158 17c3.33301 -50.667 6.66602 -95.667 9.99902 -135s6.5 -75.833 9.5 -109.5s5.83301 -65.834 8.5 -96.501s5 -62.334 7 -95.001l19.5 -273c4.33301 -60.667 6.5 -91.667 6.5 -93
c0 -13.333 2 -30.333 6 -51s16 -42.667 36 -66c10.667 -11.333 22.834 -20.333 36.501 -27s28.834 -10.334 45.501 -11.001c45.333 -1.33301 83.833 1.83398 115.5 9.50098s54.834 22.167 69.501 43.5l-1 -2c14 17.333 22.833 36.666 26.5 57.999s5.5 42.666 5.5 63.999
c0 4.66699 -6 80.667 -18 228s-30.333 366.666 -55 657.999c28.667 6 54.667 11.833 78 17.5s48.666 11.5 75.999 17.5c22.667 -300 39.667 -532.667 51 -698s16.666 -261.333 15.999 -288c-0.666992 -25.333 -6.33398 -52.166 -17.001 -80.499s-26.667 -58.166 -48 -89.499
c-40.667 -58.667 -124 -86.667 -250 -84c-5.33301 -1.33301 -10 -2 -14 -2h-13c-10.667 0 -21.667 0.833008 -33 2.5s-23 4.5 -35 8.5c-6.66699 0.666992 -12.667 1.66699 -18 3s-10.333 2.66602 -15 3.99902c-21.333 9.33301 -41.5 19.833 -60.5 31.5
s-37.167 25.5 -54.5 41.5l-26 -19l-27 -21c-36 -22.667 -73.5 -37.167 -112.5 -43.5s-75.167 -9.5 -108.5 -9.5h-44zM673.002 721.006c-33.333 -12.667 -67.168 -27.502 -101.501 -44.502s-67.333 -36.833 -99 -59.5s-60.667 -48 -87 -76s-48.166 -59.333 -65.499 -94
c-1.33301 -3.33301 -2.5 -8 -3.5 -14s-1.33301 -12.667 -1 -20s1.5 -14.833 3.5 -22.5s6 -14.834 12 -21.501c6.66699 -7.33301 18.834 -16.166 36.501 -26.499s43.167 -18.166 76.5 -23.499c16 -2 33.333 -3.66699 52 -5s38.667 -2 60 -2c40.667 0 96.667 4 168 12
c-4 19.333 -7.83301 42.833 -11.5 70.5s-7.66699 58.5 -12 92.5s-8.83301 70.833 -13.5 110.5s-9.33398 80.834 -14.001 123.501zM1200 1268c-30.667 0 -56.9941 12.001 -78.9941 36.001v-1c-12 16.667 -20.833 37 -26.5 61s-7.83398 53 -6.50098 87
c0.666992 16.667 1.83398 31.834 3.50098 45.501s3.16699 23.834 4.5 30.501c11.333 -2 21.5 -4.33301 30.5 -7s18.5 -5 28.5 -7c-0.666992 -8 -1.33398 -15.667 -2.00098 -23c-0.666992 -6.66699 -1.33398 -13.667 -2.00098 -21s-1 -14.333 -1 -21v-1
c-1.33301 -24 -0.166016 -45 3.50098 -63s8.83398 -31.667 15.501 -41c3.33301 -3.33301 7 -6.33301 11 -9s10.667 -4 20 -4c10 0 19.5 2.83301 28.5 8.5s17.167 13 24.5 22s13.666 19.167 18.999 30.5s10 22.333 14 33c8 23.333 13.5 43.833 16.5 61.5
s5.16699 30.167 6.5 37.5c11.333 -0.666992 22.166 -0.833984 32.499 -0.500977s20.833 0.166016 31.5 -0.500977c0 -10.667 1 -21.667 3 -33c1.33301 -9.33301 3.16602 -19.833 5.49902 -31.5s5.16602 -23.167 8.49902 -34.5c2.66699 -9.33301 6.16699 -19.333 10.5 -30
s9.5 -20.5 15.5 -29.5s12.667 -16.333 20 -22s15.666 -8.5 24.999 -8.5c13.333 0 24.666 3.33301 33.999 10c4 5.33301 8.83301 14.833 14.5 28.5s8.5 35.5 8.5 65.5c0 14 -1.83301 28.667 -5.5 44s-8 30.333 -13 45s-10.333 28.167 -16 40.5s-10.834 22.5 -15.501 30.5
l53 30c3.33301 -6 8.33301 -15.5 15 -28.5s13.167 -28.167 19.5 -45.5s12 -36 17 -56s7.5 -40 7.5 -60c0 -62.667 -14.333 -108.334 -43 -137.001c-14.667 -14.667 -29.5 -23.167 -44.5 -25.5s-25.5 -3.5 -31.5 -3.5c-17.333 0 -33.833 4.33301 -49.5 13s-29.5 20 -41.5 34
c-4.66699 6 -9.66699 14.167 -15 24.5s-11.666 24.166 -18.999 41.499c-11.333 -24 -23 -43.5 -35 -58.5s-23.833 -26.667 -35.5 -35s-23 -14.166 -34 -17.499s-21.5 -5 -31.5 -5zM1278.01 1662c5.33301 21.333 9.33203 43.666 11.999 66.999s4 46.333 4 69
c0 23.333 -1.33301 46.833 -4 70.5s-6.66699 45.834 -12 66.501l60 17c4.66699 -20 8.33398 -41.667 11.001 -65s4 -48.333 4 -75c0 -25.333 -1.16699 -51.333 -3.5 -78s-6.83301 -56 -13.5 -88z" />
    <glyph glyph-name="uniFDFC" unicode="&#x631;&#xfef3;&#xfe8e;&#x644;" horiz-adv-x="3142" arabic-form="isolated" 
d="M1243 492c0.666992 -25.333 1.66797 -51.5049 3.00098 -78.5049s2.5 -59.167 3.5 -96.5s2.16699 -82.166 3.5 -134.499s3 -116.166 5 -191.499c0 -45.333 -2.5 -90.166 -7.5 -134.499s-15.167 -88.166 -30.5 -131.499c-21.333 -59.333 -52.166 -112.333 -92.499 -159
s-86.666 -86.167 -138.999 -118.5s-109 -57 -170 -74s-122.5 -25.5 -184.5 -25.5c-58.667 0 -115.834 7.83301 -171.501 23.5s-106.834 39.5 -153.501 71.5c-35.333 25.333 -67.666 53.666 -96.999 84.999s-54.5 65 -75.5 101s-37.5 74 -49.5 114s-18 81.667 -18 125
c0 42 1.83301 83.833 5.5 125.5s10 82.5 19 122.5s21.5 79.167 37.5 117.5s36.667 75.166 62 110.499c10.667 -9.33301 20.667 -18 30 -26s18.5 -15.833 27.5 -23.5s18.167 -15.334 27.5 -23.001s19.333 -15.834 30 -24.501c-17.333 -26 -31.666 -52.667 -42.999 -80
s-20.333 -55.333 -27 -84s-11.167 -58.167 -13.5 -88.5s-3.5 -61.5 -3.5 -93.5c0 -26.667 1 -52 3 -76c4 -43.333 15.667 -82.833 35 -118.5s44.166 -67 74.499 -94s64.666 -49.5 102.999 -67.5s78.166 -30.667 119.499 -38c11.333 -2 23.5 -3.66699 36.5 -5
s26.5 -2 40.5 -2c34 0 68.167 3.66699 102.5 11s67.5 17.833 99.5 31.5s62.167 30.334 90.5 50.001s53.5 41.834 75.5 66.501c22.667 26 40.834 52.833 54.501 80.5s24.167 56 31.5 85s12.166 58.667 14.499 89s3.5 61.166 3.5 92.499c0 45.333 -0.5 95.333 -1.5 150
s-2.33301 111.667 -4 171s-3.66699 119.333 -6 180s-4.66602 119.334 -6.99902 176.001s-4.66602 110 -6.99902 160s-4.5 94 -6.5 132l-19 447c2 0 4.66699 0.166992 8 0.5s10.166 0.833008 20.499 1.5s25.5 1.83398 45.5 3.50098s47.667 3.83398 83 6.50098l14 -352
c1.33301 -38 2.16602 -76 2.49902 -114s1.5 -76 3.5 -114c1.33301 -22.667 2.5 -45.667 3.5 -69s1.83301 -49.166 2.5 -77.499s1.5 -60 2.5 -95s2.16699 -75.167 3.5 -120.5zM2408 488.995c3.33301 -18.667 5.83984 -37.0068 7.50684 -55.0068s2.5 -35.667 2.5 -53
c0 -47.333 -8.33301 -94.5 -25 -141.5s-42.334 -88.5 -77.001 -124.5c-24 -21.333 -50.833 -38.833 -80.5 -52.5s-60.834 -24.5 -93.501 -32.5s-65.834 -13.5 -99.501 -16.5s-66.5 -4.5 -98.5 -4.5c-12.667 0 -25.167 -0.166992 -37.5 -0.5s-25.166 0.166992 -38.499 1.5
c-40.667 2.66699 -80 9.66699 -118 21s-72 27.5 -102 48.5s-55.167 47.5 -75.5 79.5s-33.166 70 -38.499 114v-1c-3.33301 30 -4.5 60.333 -3.5 91s1.5 64 1.5 100c0.666992 35.333 1.83398 70.333 3.50098 105s2.5 69.667 2.5 105v71.5c0 19 -0.166992 34.833 -0.5 47.5
s-0.5 23 -0.5 31v23c0 28 -1 61.167 -3 99.5s-4.5 78.333 -7.5 120s-6.16699 82.834 -9.5 123.501s-6.83301 77 -10.5 109s-7 57.833 -10 77.5s-5.5 29.5 -7.5 29.5l160 30c5.33301 -66.667 10.666 -129.667 15.999 -189s10 -116.833 14 -172.5s7.5 -110.5 10.5 -164.5
s4.66699 -109.167 5 -165.5s-0.666992 -114.666 -3 -174.999s-6.5 -124.833 -12.5 -193.5c0 -22 1.5 -43.667 4.5 -65s8.5 -41 16.5 -59s19.333 -33.667 34 -47s33.667 -23.333 57 -30c4.66699 -3.33301 12.167 -5.66602 22.5 -6.99902s21.666 -2.16602 33.999 -2.49902
s25.166 -0.5 38.499 -0.5s25 -1 35 -3c34 0 70.667 1.16699 110 3.5s76 9.5 110 21.5s62.667 30.833 86 56.5s36.333 62.167 39 109.5c2 37.333 -0.333008 75.333 -7 114s-15.834 76.834 -27.501 114.501s-25.334 74.667 -41.001 111s-31.5 71.166 -47.5 104.499
c1.33301 2.66699 3.83301 5 7.5 7s10.167 4.83301 19.5 8.5s22.666 8.83398 39.999 15.501s40.666 16.667 69.999 30c12.667 -25.333 25.667 -53.166 39 -83.499s25.833 -61.666 37.5 -93.999s22 -64.833 31 -97.5s15.833 -63.667 20.5 -93zM2812.01 225.988
c-5.33301 29.333 -11.6709 59.8379 -19.0039 91.5049s-15.166 63.5 -23.499 95.5s-17.333 63.5 -27 94.5s-19.167 60.5 -28.5 88.5l147 45c11.333 -41.333 23.666 -82.5 36.999 -123.5s25.833 -82.5 37.5 -124.5s21.334 -84.833 29.001 -128.5s11.5 -88.834 11.5 -135.501
c0 -11.333 -0.333008 -22.5 -1 -33.5s-1.66699 -22.167 -3 -33.5c-6 -53.333 -18.833 -104.333 -38.5 -153s-44.5 -94.834 -74.5 -138.501s-64.333 -85 -103 -124s-79.667 -75.333 -123 -109s-88.166 -64.834 -134.499 -93.501s-92.166 -54.667 -137.499 -78l-2 4l-64 134
c40 20 79.5 42.167 118.5 66.5s76.833 50.666 113.5 78.999s71.334 58.666 104.001 90.999s62.667 66.5 90 102.5c32 46 56.333 93.167 73 141.5s25 97.833 25 148.5c0 15.333 -0.666992 30.833 -2 46.5s-3 31.167 -5 46.5zM1942 -275.007l-141 -141l-143 142l141 142z
M2285 -277.007l-140 -141l-143 143l141 141z" />
    <glyph glyph-name="uniFEF5" unicode="&#xfedf;&#xfe82;" horiz-adv-x="1350" arabic-form="isolated" 
d="M1207 589c0.666992 -5.33301 1.00488 -10.3291 1.00488 -14.9961v-14c0 -36.667 -3.83301 -75.334 -11.5 -116.001s-18.834 -80.334 -33.501 -119.001s-32.167 -75 -52.5 -109s-43.5 -62.667 -69.5 -86c-42.667 -39.333 -93 -73 -151 -101s-121.333 -50 -190 -66l1 1
c-73.333 -15.333 -145 -23 -215 -23c-43.333 0 -86 3 -128 9c5.33301 28.667 10.166 54.834 14.499 78.501s8.83301 48.834 13.5 75.501c15.333 -2.66699 31 -4.33398 47 -5.00098s33 -1 51 -1c30 0 62 2 96 6s69 10 105 18c-14 74.667 -35 151.667 -63 231
s-59.667 157.5 -95 234.5s-72.5 151 -111.5 222s-76 135.333 -111 193s-66 107.167 -93 148.5s-46.5 70.666 -58.5 87.999l130 91c8.66699 -12.667 21.167 -31.167 37.5 -55.5s35.166 -53.5 56.499 -87.5s44.666 -71.833 69.999 -113.5s51.333 -85.834 78 -132.501
c79.333 -140.667 144.666 -274.834 195.999 -402.501s89.333 -248.834 114 -363.501c31.333 20 60.666 46.167 87.999 78.5s51 67.166 71 104.499s35 75.333 45 114s13.667 74.334 11 107.001c-16.667 152.667 -33.5 304.334 -50.5 455.001s-33.833 302.334 -50.5 455.001
c29.333 2.66699 55.833 5.33398 79.5 8.00098s49.834 5.33398 78.501 8.00098c2 -12.667 5.16699 -34.834 9.5 -66.501s9.5 -70.167 15.5 -115.5s12.5 -96.333 19.5 -153s13.833 -116.834 20.5 -180.501s13 -129.334 19 -197.001s11.333 -135.167 16 -202.5v-1z
M6.00488 1365c3.33301 9.33301 8.49805 23.333 15.498 42s15.167 35.667 24.5 51h-1c20 32 43.5 57.833 70.5 77.5s55.167 32.167 84.5 37.5c6.66699 1.33301 13.834 2.16602 21.501 2.49902s14.167 0.5 19.5 0.5c28 0 53.667 -3.5 77 -10.5s45 -14.833 65 -23.5
c19.333 -7.33301 38 -13.833 56 -19.5s37.667 -8.83398 59 -9.50098c16 -0.666992 31.5 2.5 46.5 9.5s29 15.5 42 25.5s24.333 20.333 34 31s17.167 19.334 22.5 26.001c18.667 -11.333 35.167 -22 49.5 -32s30.5 -20.667 48.5 -32c-3.33301 -6 -11.666 -17.333 -24.999 -34
s-30.833 -33.5 -52.5 -50.5s-46.834 -32.167 -75.501 -45.5s-60.334 -19.333 -95.001 -18c-26.667 0.666992 -51.334 4.33398 -74.001 11.001s-43.667 13.334 -63 20.001h1l-16 6c-22 8.66699 -42.667 15.667 -62 21s-39.666 6.33301 -60.999 3h1
c-12.667 -1.33301 -24.5 -6.83301 -35.5 -16.5s-20.667 -20.834 -29 -33.501s-15.666 -25.667 -21.999 -39s-11.166 -25 -14.499 -35z" />
    <glyph glyph-name="uniFEF6" unicode="&#xfee0;&#xfe82;" horiz-adv-x="1470" arabic-form="final" 
d="M1317 214c23.333 -13.333 45.1709 -22.332 65.5039 -26.999s34.166 -7.66699 41.499 -9c0.666992 0 1.83398 -0.166992 3.50098 -0.5s2.83398 -0.5 3.50098 -0.5l30 -1h9c21.333 0 39.833 -7.66699 55.5 -23s23.5 -33.666 23.5 -54.999c0 -22 -7.83301 -40.5 -23.5 -55.5
s-34.167 -22.5 -55.5 -22.5h-49c-7.33301 0 -21.5 1.16699 -42.5 3.5s-45.5 9.16602 -73.5 20.499s-57.5 29.166 -88.5 53.499s-59.833 58.166 -86.5 101.499c-55.333 -61.333 -115.833 -110.166 -181.5 -146.499s-139.834 -64.5 -222.501 -84.5l1 1
c-73.333 -15.333 -145 -23 -215 -23c-43.333 0 -86 3 -128 9c5.33301 28.667 10.166 54.834 14.499 78.501s8.83301 48.834 13.5 75.501c15.333 -2.66699 31 -4.33398 47 -5.00098s33 -1 51 -1c30 0 62 2 96 6s69 10 105 18c-14 76 -35.333 154 -64 234
s-60.834 158.667 -96.501 236s-73 151.5 -112 222.5s-75.833 135.167 -110.5 192.5s-65.334 106.166 -92.001 146.499s-45.334 68.5 -56.001 84.5l129 92c8.66699 -12.667 21.167 -31.167 37.5 -55.5s35.166 -53.5 56.499 -87.5s44.666 -71.833 69.999 -113.5
s51.333 -85.834 78 -132.501c79.333 -141.333 144.666 -275.5 195.999 -402.5s89.333 -247.5 114 -361.5c28.667 16 55.334 34.333 80.001 55s46 43.167 64 67.5s32 50 42 77s15 55.167 15 84.5c0 5.33301 -0.166992 10.5 -0.5 15.5s-0.833008 10.167 -1.5 15.5v-1
c-4 60.667 -8.5 123.667 -13.5 189s-10.167 130 -15.5 194s-10.666 126.333 -15.999 187s-10.5 116.834 -15.5 168.501s-9.5 97.5 -13.5 137.5s-7 72 -9 96l-3 24l158 17c0 -1.33301 1.83301 -19 5.5 -53s8.16699 -79.5 13.5 -136.5s11.333 -122.667 18 -197
s13.334 -152.166 20.001 -233.499s13 -163.5 19 -246.5s11.333 -161.833 16 -236.5c2 -22 4.5 -42.333 7.5 -61s7.83301 -35.834 14.5 -51.501s15.667 -30 27 -43s26 -24.833 44 -35.5v-1zM40.0049 1364c3.33301 9.33301 8.49805 23.333 15.498 42s15.167 35.667 24.5 51h-1
c20 32 43.5 57.833 70.5 77.5s55.167 32.167 84.5 37.5c6.66699 1.33301 13.834 2.16602 21.501 2.49902s14.167 0.5 19.5 0.5c28 0 53.667 -3.5 77 -10.5s45 -14.833 65 -23.5c19.333 -7.33301 38 -13.833 56 -19.5s37.667 -8.83398 59 -9.50098
c16 -0.666992 31.5 2.5 46.5 9.5s29 15.5 42 25.5s24.333 20.333 34 31s17.167 19.334 22.5 26.001c18.667 -11.333 35.167 -22 49.5 -32s30.5 -20.667 48.5 -32c-3.33301 -6 -11.666 -17.333 -24.999 -34s-30.833 -33.5 -52.5 -50.5s-46.834 -32.167 -75.501 -45.5
s-60.334 -19.333 -95.001 -18c-26.667 0.666992 -51.334 4.33398 -74.001 11.001s-43.667 13.334 -63 20.001h1l-16 6c-22 8.66699 -42.667 15.667 -62 21s-39.666 6.33301 -60.999 3h1c-12.667 -1.33301 -24.5 -6.83301 -35.5 -16.5s-20.667 -20.834 -29 -33.501
s-15.666 -25.667 -21.999 -39s-11.166 -25 -14.499 -35z" />
    <glyph glyph-name="uniFEF7" unicode="&#xfedf;&#xfe84;" horiz-adv-x="1247" arabic-form="isolated" 
d="M1105 589c0.666992 -5.33301 1.00488 -10.3291 1.00488 -14.9961v-14c0 -36.667 -3.83301 -75.334 -11.5 -116.001s-18.834 -80.334 -33.501 -119.001s-32.167 -75 -52.5 -109s-43.5 -62.667 -69.5 -86c-42.667 -39.333 -93 -73 -151 -101s-121.333 -50 -190 -66l1 1
c-73.333 -15.333 -145 -23 -215 -23c-43.333 0 -86 3 -128 9c5.33301 28.667 10.166 54.834 14.499 78.501s8.83301 48.834 13.5 75.501c15.333 -2.66699 31 -4.33398 47 -5.00098s33 -1 51 -1c30 0 62 2 96 6s69 10 105 18c-14 74.667 -35 151.667 -63 231
s-59.667 157.5 -95 234.5s-72.5 151 -111.5 222s-76 135.333 -111 193s-66 107.167 -93 148.5s-46.5 70.666 -58.5 87.999l130 91c8.66699 -12.667 21.167 -31.167 37.5 -55.5s35.166 -53.5 56.499 -87.5s44.666 -71.833 69.999 -113.5s51.333 -85.834 78 -132.501
c79.333 -140.667 144.666 -274.834 195.999 -402.501s89.333 -248.834 114 -363.501c31.333 20 60.666 46.167 87.999 78.5s51 67.166 71 104.499s35 75.333 45 114s13.667 74.334 11 107.001c-16.667 152.667 -33.5 304.334 -50.5 455.001s-33.833 302.334 -50.5 455.001
c29.333 2.66699 55.833 5.33398 79.5 8.00098s49.834 5.33398 78.501 8.00098c2 -12.667 5.16699 -34.834 9.5 -66.501s9.5 -70.167 15.5 -115.5s12.5 -96.333 19.5 -153s13.833 -116.834 20.5 -180.501s13 -129.334 19 -197.001s11.333 -135.167 16 -202.5v-1z
M281.005 1853c-10 1.33301 -20.665 2.99805 -31.998 4.99805c-10 2 -20.333 3.5 -31 4.5s-21.334 1.5 -32.001 1.5c-12 0 -24 -1 -36 -3s-24.333 -6 -37 -12h1c-26 -10 -47 -26.5 -63 -49.5s-24 -47.5 -24 -73.5c0 -6 0.666992 -13 2 -21s4 -16 8 -24
c5.33301 -13.333 13.166 -25.833 23.499 -37.5s22.166 -22 35.499 -31s27.833 -16 43.5 -21s32.167 -7.5 49.5 -7.5c8 0 16 0.5 24 1.5s17 3.5 27 7.5l-1 -1c16 4.66699 31.833 10.834 47.5 18.501s30.167 15.334 43.5 23.001s25.166 14.834 35.499 21.501
s17.833 12 22.5 16l53 -69c-28 -19.333 -63.333 -41 -106 -65s-94 -52.667 -154 -86l-244 -135c-8 14.667 -15 27.667 -21 39s-13 24 -21 38l210 117c-35.333 15.333 -66.166 35.166 -92.499 59.499s-45.833 50.166 -58.5 77.499c-9.33301 24 -14 50.333 -14 79
c0 22 3.33301 43.5 10 64.5s16.334 40.333 29.001 58s27.5 33.667 44.5 48s36.167 25.833 57.5 34.5c34 13.333 69 20 105 20c26 0 50.167 -2.16699 72.5 -6.5s38.5 -8.16602 48.5 -11.499z" />
    <glyph glyph-name="uniFEF8" unicode="&#xfee0;&#xfe84;" horiz-adv-x="1470" arabic-form="final" 
d="M1317 214c23.333 -13.333 45.1709 -22.332 65.5039 -26.999s34.166 -7.66699 41.499 -9c0.666992 0 1.83398 -0.166992 3.50098 -0.5s2.83398 -0.5 3.50098 -0.5l30 -1h9c21.333 0 39.833 -7.66699 55.5 -23s23.5 -33.666 23.5 -54.999c0 -22 -7.83301 -40.5 -23.5 -55.5
s-34.167 -22.5 -55.5 -22.5h-49c-7.33301 0 -21.5 1.16699 -42.5 3.5s-45.5 9.16602 -73.5 20.499s-57.5 29.166 -88.5 53.499s-59.833 58.166 -86.5 101.499c-55.333 -61.333 -115.833 -110.166 -181.5 -146.499s-139.834 -64.5 -222.501 -84.5l1 1
c-73.333 -15.333 -145 -23 -215 -23c-43.333 0 -86 3 -128 9c5.33301 28.667 10.166 54.834 14.499 78.501s8.83301 48.834 13.5 75.501c15.333 -2.66699 31 -4.33398 47 -5.00098s33 -1 51 -1c30 0 62 2 96 6s69 10 105 18c-14 76 -35.333 154 -64 234
s-60.834 158.667 -96.501 236s-73 151.5 -112 222.5s-75.833 135.167 -110.5 192.5s-65.334 106.166 -92.001 146.499s-45.334 68.5 -56.001 84.5l129 92c8.66699 -12.667 21.167 -31.167 37.5 -55.5s35.166 -53.5 56.499 -87.5s44.666 -71.833 69.999 -113.5
s51.333 -85.834 78 -132.501c79.333 -141.333 144.666 -275.5 195.999 -402.5s89.333 -247.5 114 -361.5c28.667 16 55.334 34.333 80.001 55s46 43.167 64 67.5s32 50 42 77s15 55.167 15 84.5c0 5.33301 -0.166992 10.5 -0.5 15.5s-0.833008 10.167 -1.5 15.5v-1
c-4 60.667 -8.5 123.667 -13.5 189s-10.167 130 -15.5 194s-10.666 126.333 -15.999 187s-10.5 116.834 -15.5 168.501s-9.5 97.5 -13.5 137.5s-7 72 -9 96l-3 24l158 17c0 -1.33301 1.83301 -19 5.5 -53s8.16699 -79.5 13.5 -136.5s11.333 -122.667 18 -197
s13.334 -152.166 20.001 -233.499s13 -163.5 19 -246.5s11.333 -161.833 16 -236.5c2 -22 4.5 -42.333 7.5 -61s7.83301 -35.834 14.5 -51.501s15.667 -30 27 -43s26 -24.833 44 -35.5v-1zM379.005 1884c-10 1.33301 -20.665 2.99805 -31.998 4.99805
c-10 2 -20.333 3.5 -31 4.5s-21.334 1.5 -32.001 1.5c-12 0 -24 -1 -36 -3s-24.333 -6 -37 -12h1c-26 -10 -47 -26.5 -63 -49.5s-24 -47.5 -24 -73.5c0 -6 0.666992 -13 2 -21s4 -16 8 -24c5.33301 -13.333 13.166 -25.833 23.499 -37.5s22.166 -22 35.499 -31
s27.833 -16 43.5 -21s32.167 -7.5 49.5 -7.5c8 0 16 0.5 24 1.5s17 3.5 27 7.5l-1 -1c16 4.66699 31.833 10.834 47.5 18.501s30.167 15.334 43.5 23.001s25.166 14.834 35.499 21.501s17.833 12 22.5 16l53 -69c-28 -19.333 -63.333 -41 -106 -65s-94 -52.667 -154 -86
l-244 -135c-8 14.667 -15 27.667 -21 39s-13 24 -21 38l210 117c-35.333 15.333 -66.166 35.166 -92.499 59.499s-45.833 50.166 -58.5 77.499c-9.33301 24 -14 50.333 -14 79c0 22 3.33301 43.5 10 64.5s16.334 40.333 29.001 58s27.5 33.667 44.5 48
s36.167 25.833 57.5 34.5c34 13.333 69 20 105 20c26 0 50.167 -2.16699 72.5 -6.5s38.5 -8.16602 48.5 -11.499z" />
    <glyph glyph-name="uniFEF9" unicode="&#xfedf;&#xfe88;" horiz-adv-x="1247" arabic-form="isolated" 
d="M1105 589c0.666992 -5.33301 1.00488 -10.3291 1.00488 -14.9961v-14c0 -36.667 -3.83301 -75.334 -11.5 -116.001s-18.834 -80.334 -33.501 -119.001s-32.167 -75 -52.5 -109s-43.5 -62.667 -69.5 -86c-42.667 -39.333 -93 -73 -151 -101s-121.333 -50 -190 -66l1 1
c-73.333 -15.333 -145 -23 -215 -23c-43.333 0 -86 3 -128 9c5.33301 28.667 10.166 54.834 14.499 78.501s8.83301 48.834 13.5 75.501c15.333 -2.66699 31 -4.33398 47 -5.00098s33 -1 51 -1c30 0 62 2 96 6s69 10 105 18c-14 74.667 -35 151.667 -63 231
s-59.667 157.5 -95 234.5s-72.5 151 -111.5 222s-76 135.333 -111 193s-66 107.167 -93 148.5s-46.5 70.666 -58.5 87.999l130 91c8.66699 -12.667 21.167 -31.167 37.5 -55.5s35.166 -53.5 56.499 -87.5s44.666 -71.833 69.999 -113.5s51.333 -85.834 78 -132.501
c79.333 -140.667 144.666 -274.834 195.999 -402.501s89.333 -248.834 114 -363.501c31.333 20 60.666 46.167 87.999 78.5s51 67.166 71 104.499s35 75.333 45 114s13.667 74.334 11 107.001c-16.667 152.667 -33.5 304.334 -50.5 455.001s-33.833 302.334 -50.5 455.001
c29.333 2.66699 55.833 5.33398 79.5 8.00098s49.834 5.33398 78.501 8.00098c2 -12.667 5.16699 -34.834 9.5 -66.501s9.5 -70.167 15.5 -115.5s12.5 -96.333 19.5 -153s13.833 -116.834 20.5 -180.501s13 -129.334 19 -197.001s11.333 -135.167 16 -202.5v-1z
M782.005 -257.996c-10 1.33301 -20.665 2.99805 -31.998 4.99805c-10 2 -20.333 3.5 -31 4.5s-21.334 1.5 -32.001 1.5c-12 0 -24 -1 -36 -3s-24.333 -6 -37 -12h1c-26 -10 -47 -26.5 -63 -49.5s-24 -47.5 -24 -73.5c0 -6 0.666992 -13 2 -21s4 -16 8 -24
c5.33301 -13.333 13.166 -25.833 23.499 -37.5s22.166 -22 35.499 -31s27.833 -16 43.5 -21s32.167 -7.5 49.5 -7.5c8 0 16 0.5 24 1.5s17 3.5 27 7.5l-1 -1c16 4.66699 31.833 10.834 47.5 18.501s30.167 15.334 43.5 23.001s25.166 14.834 35.499 21.501
s17.833 12 22.5 16l53 -69c-28 -19.333 -63.333 -41 -106 -65s-94 -52.667 -154 -86l-244 -135c-8 14.667 -15 27.667 -21 39s-13 24 -21 38l210 117c-35.333 15.333 -66.166 35.166 -92.499 59.499s-45.833 50.166 -58.5 77.499c-9.33301 24 -14 50.333 -14 79
c0 22 3.33301 43.5 10 64.5s16.334 40.333 29.001 58s27.5 33.667 44.5 48s36.167 25.833 57.5 34.5c34 13.333 69 20 105 20c26 0 50.167 -2.16699 72.5 -6.5s38.5 -8.16602 48.5 -11.499z" />
    <glyph glyph-name="uniFEFA" unicode="&#xfee0;&#xfe88;" horiz-adv-x="1470" arabic-form="final" 
d="M1317 214c23.333 -13.333 45.1709 -22.332 65.5039 -26.999s34.166 -7.66699 41.499 -9c0.666992 0 1.83398 -0.166992 3.50098 -0.5s2.83398 -0.5 3.50098 -0.5l30 -1h9c21.333 0 39.833 -7.66699 55.5 -23s23.5 -33.666 23.5 -54.999c0 -22 -7.83301 -40.5 -23.5 -55.5
s-34.167 -22.5 -55.5 -22.5h-49c-7.33301 0 -21.5 1.16699 -42.5 3.5s-45.5 9.16602 -73.5 20.499s-57.5 29.166 -88.5 53.499s-59.833 58.166 -86.5 101.499c-55.333 -61.333 -115.833 -110.166 -181.5 -146.499s-139.834 -64.5 -222.501 -84.5l1 1
c-73.333 -15.333 -145 -23 -215 -23c-43.333 0 -86 3 -128 9c5.33301 28.667 10.166 54.834 14.499 78.501s8.83301 48.834 13.5 75.501c15.333 -2.66699 31 -4.33398 47 -5.00098s33 -1 51 -1c30 0 62 2 96 6s69 10 105 18c-14 76 -35.333 154 -64 234
s-60.834 158.667 -96.501 236s-73 151.5 -112 222.5s-75.833 135.167 -110.5 192.5s-65.334 106.166 -92.001 146.499s-45.334 68.5 -56.001 84.5l129 92c8.66699 -12.667 21.167 -31.167 37.5 -55.5s35.166 -53.5 56.499 -87.5s44.666 -71.833 69.999 -113.5
s51.333 -85.834 78 -132.501c79.333 -141.333 144.666 -275.5 195.999 -402.5s89.333 -247.5 114 -361.5c28.667 16 55.334 34.333 80.001 55s46 43.167 64 67.5s32 50 42 77s15 55.167 15 84.5c0 5.33301 -0.166992 10.5 -0.5 15.5s-0.833008 10.167 -1.5 15.5v-1
c-4 60.667 -8.5 123.667 -13.5 189s-10.167 130 -15.5 194s-10.666 126.333 -15.999 187s-10.5 116.834 -15.5 168.501s-9.5 97.5 -13.5 137.5s-7 72 -9 96l-3 24l158 17c0 -1.33301 1.83301 -19 5.5 -53s8.16699 -79.5 13.5 -136.5s11.333 -122.667 18 -197
s13.334 -152.166 20.001 -233.499s13 -163.5 19 -246.5s11.333 -161.833 16 -236.5c2 -22 4.5 -42.333 7.5 -61s7.83301 -35.834 14.5 -51.501s15.667 -30 27 -43s26 -24.833 44 -35.5v-1zM934.005 -215.999c-10 1.33301 -20.665 2.99805 -31.998 4.99805
c-10 2 -20.333 3.5 -31 4.5s-21.334 1.5 -32.001 1.5c-12 0 -24 -1 -36 -3s-24.333 -6 -37 -12h1c-26 -10 -47 -26.5 -63 -49.5s-24 -47.5 -24 -73.5c0 -6 0.666992 -13 2 -21s4 -16 8 -24c5.33301 -13.333 13.166 -25.833 23.499 -37.5s22.166 -22 35.499 -31
s27.833 -16 43.5 -21s32.167 -7.5 49.5 -7.5c8 0 16 0.5 24 1.5s17 3.5 27 7.5l-1 -1c16 4.66699 31.833 10.834 47.5 18.501s30.167 15.334 43.5 23.001s25.166 14.834 35.499 21.501s17.833 12 22.5 16l53 -69c-28 -19.333 -63.333 -41 -106 -65s-94 -52.667 -154 -86
l-244 -135c-8 14.667 -15 27.667 -21 39s-13 24 -21 38l210 117c-35.333 15.333 -66.166 35.166 -92.499 59.499s-45.833 50.166 -58.5 77.499c-9.33301 24 -14 50.333 -14 79c0 22 3.33301 43.5 10 64.5s16.334 40.333 29.001 58s27.5 33.667 44.5 48
s36.167 25.833 57.5 34.5c34 13.333 69 20 105 20c26 0 50.167 -2.16699 72.5 -6.5s38.5 -8.16602 48.5 -11.499z" />
    <glyph glyph-name="uniFEFB" unicode="&#xfedf;&#xfe8e;" horiz-adv-x="1187" arabic-form="isolated" 
d="M1105 589c0.666992 -5.33301 1.00488 -10.3291 1.00488 -14.9961v-14c0 -36.667 -3.83301 -75.334 -11.5 -116.001s-18.834 -80.334 -33.501 -119.001s-32.167 -75 -52.5 -109s-43.5 -62.667 -69.5 -86c-42.667 -39.333 -93 -73 -151 -101s-121.333 -50 -190 -66l1 1
c-73.333 -15.333 -145 -23 -215 -23c-43.333 0 -86 3 -128 9c5.33301 28.667 10.166 54.834 14.499 78.501s8.83301 48.834 13.5 75.501c15.333 -2.66699 31 -4.33398 47 -5.00098s33 -1 51 -1c30 0 62 2 96 6s69 10 105 18c-14 74.667 -35 151.667 -63 231
s-59.667 157.5 -95 234.5s-72.5 151 -111.5 222s-76 135.333 -111 193s-66 107.167 -93 148.5s-46.5 70.666 -58.5 87.999l130 91c8.66699 -12.667 21.167 -31.167 37.5 -55.5s35.166 -53.5 56.499 -87.5s44.666 -71.833 69.999 -113.5s51.333 -85.834 78 -132.501
c79.333 -140.667 144.666 -274.834 195.999 -402.501s89.333 -248.834 114 -363.501c31.333 20 60.666 46.167 87.999 78.5s51 67.166 71 104.499s35 75.333 45 114s13.667 74.334 11 107.001c-16.667 152.667 -33.5 304.334 -50.5 455.001s-33.833 302.334 -50.5 455.001
c29.333 2.66699 55.833 5.33398 79.5 8.00098s49.834 5.33398 78.501 8.00098c2 -12.667 5.16699 -34.834 9.5 -66.501s9.5 -70.167 15.5 -115.5s12.5 -96.333 19.5 -153s13.833 -116.834 20.5 -180.501s13 -129.334 19 -197.001s11.333 -135.167 16 -202.5v-1z" />
    <glyph glyph-name="uniFEFC" unicode="&#xfee0;&#xfe8e;" horiz-adv-x="1461" arabic-form="final" 
d="M1317 214c23.333 -13.333 45.1709 -22.332 65.5039 -26.999s34.166 -7.66699 41.499 -9c0.666992 0 1.83398 -0.166992 3.50098 -0.5s2.83398 -0.5 3.50098 -0.5l30 -1h9c21.333 0 39.833 -7.66699 55.5 -23s23.5 -33.666 23.5 -54.999c0 -22 -7.83301 -40.5 -23.5 -55.5
s-34.167 -22.5 -55.5 -22.5h-49c-7.33301 0 -21.5 1.16699 -42.5 3.5s-45.5 9.16602 -73.5 20.499s-57.5 29.166 -88.5 53.499s-59.833 58.166 -86.5 101.499c-55.333 -61.333 -115.833 -110.166 -181.5 -146.499s-139.834 -64.5 -222.501 -84.5l1 1
c-73.333 -15.333 -145 -23 -215 -23c-43.333 0 -86 3 -128 9c5.33301 28.667 10.166 54.834 14.499 78.501s8.83301 48.834 13.5 75.501c15.333 -2.66699 31 -4.33398 47 -5.00098s33 -1 51 -1c30 0 62 2 96 6s69 10 105 18c-14 76 -35.333 154 -64 234
s-60.834 158.667 -96.501 236s-73 151.5 -112 222.5s-75.833 135.167 -110.5 192.5s-65.334 106.166 -92.001 146.499s-45.334 68.5 -56.001 84.5l129 92c8.66699 -12.667 21.167 -31.167 37.5 -55.5s35.166 -53.5 56.499 -87.5s44.666 -71.833 69.999 -113.5
s51.333 -85.834 78 -132.501c79.333 -141.333 144.666 -275.5 195.999 -402.5s89.333 -247.5 114 -361.5c28.667 16 55.334 34.333 80.001 55s46 43.167 64 67.5s32 50 42 77s15 55.167 15 84.5c0 5.33301 -0.166992 10.5 -0.5 15.5s-0.833008 10.167 -1.5 15.5v-1
c-4 60.667 -8.5 123.667 -13.5 189s-10.167 130 -15.5 194s-10.666 126.333 -15.999 187s-10.5 116.834 -15.5 168.501s-9.5 97.5 -13.5 137.5s-7 72 -9 96l-3 24l158 17c0 -1.33301 1.83301 -19 5.5 -53s8.16699 -79.5 13.5 -136.5s11.333 -122.667 18 -197
s13.334 -152.166 20.001 -233.499s13 -163.5 19 -246.5s11.333 -161.833 16 -236.5c2 -22 4.5 -42.333 7.5 -61s7.83301 -35.834 14.5 -51.501s15.667 -30 27 -43s26 -24.833 44 -35.5v-1z" />
    <glyph glyph-name="uni06440671.isol" unicode="&#xfedf;&#xfb51;" horiz-adv-x="1247" 
d="M1105 589c0.666992 -5.33301 1.00488 -10.3291 1.00488 -14.9961v-14c0 -36.667 -3.83301 -75.334 -11.5 -116.001s-18.834 -80.334 -33.501 -119.001s-32.167 -75 -52.5 -109s-43.5 -62.667 -69.5 -86c-42.667 -39.333 -93 -73 -151 -101s-121.333 -50 -190 -66l1 1
c-73.333 -15.333 -145 -23 -215 -23c-43.333 0 -86 3 -128 9c5.33301 28.667 10.166 54.834 14.499 78.501s8.83301 48.834 13.5 75.501c15.333 -2.66699 31 -4.33398 47 -5.00098s33 -1 51 -1c30 0 62 2 96 6s69 10 105 18c-14 74.667 -35 151.667 -63 231
s-59.667 157.5 -95 234.5s-72.5 151 -111.5 222s-76 135.333 -111 193s-66 107.167 -93 148.5s-46.5 70.666 -58.5 87.999l130 91c8.66699 -12.667 21.167 -31.167 37.5 -55.5s35.166 -53.5 56.499 -87.5s44.666 -71.833 69.999 -113.5s51.333 -85.834 78 -132.501
c79.333 -140.667 144.666 -274.834 195.999 -402.501s89.333 -248.834 114 -363.501c31.333 20 60.666 46.167 87.999 78.5s51 67.166 71 104.499s35 75.333 45 114s13.667 74.334 11 107.001c-16.667 152.667 -33.5 304.334 -50.5 455.001s-33.833 302.334 -50.5 455.001
c29.333 2.66699 55.833 5.33398 79.5 8.00098s49.834 5.33398 78.501 8.00098c2 -12.667 5.16699 -34.834 9.5 -66.501s9.5 -70.167 15.5 -115.5s12.5 -96.333 19.5 -153s13.833 -116.834 20.5 -180.501s13 -129.334 19 -197.001s11.333 -135.167 16 -202.5v-1z
M443.005 1446c18 -2 38.332 -3.16797 60.999 -3.50098s45.5 0.833984 68.5 3.50098s45.167 7.16699 66.5 13.5s39 15.5 53 27.5c17.333 15.333 27 34.333 29 57c0 9.33301 -2.16699 17.666 -6.5 24.999s-8.16602 12.666 -11.499 15.999c-13.333 14 -27.333 21.833 -42 23.5
s-28 1.5 -40 -0.5c-18 -3.33301 -35.833 -9.5 -53.5 -18.5s-34.167 -21.167 -49.5 -36.5c-19.333 -19.333 -35.333 -39.166 -48 -59.499s-21.667 -36.166 -27 -47.499zM169.004 1477c17.333 8.66699 34.667 15.998 52 21.998c14.667 5.33301 29.834 9.66602 45.501 12.999
s29.167 3.66602 40.5 0.999023s21.5 -6.16699 30.5 -10.5s16.833 -9.16602 23.5 -14.499c7.33301 -6 13.666 -12.333 18.999 -19c6.66699 12.667 17.667 31.667 33 57s35.666 50.333 60.999 75c19.333 18.667 40.666 34.167 63.999 46.5s47 20.166 71 23.499
c28 6 54.167 5.5 78.5 -1.5s45.166 -19.833 62.499 -38.5c12.667 -13.333 22.167 -27.666 28.5 -42.999s8.5 -31.666 6.5 -48.999c-1.33301 -41.333 -19 -76 -53 -104c-14.667 -12 -31.167 -21.667 -49.5 -29s-37.333 -13.166 -57 -17.499s-39.667 -7.33301 -60 -9
s-39.5 -2.5 -57.5 -2.5c-19.333 0 -36.666 0.666992 -51.999 2s-26.333 2.33301 -33 3c-16.667 2 -33 6.66699 -49 14c-9.33301 4 -18.166 9.16699 -26.499 15.5s-17.166 15.833 -26.499 28.5c-10.667 8 -23.667 11 -39 9s-30 -6 -44 -12
c-16.667 -7.33301 -33.667 -16.666 -51 -27.999z" />
    <glyph glyph-name="uni06440671.fina" unicode="&#xfee0;&#xfb51;" horiz-adv-x="1470" 
d="M1317 214c23.333 -13.333 45.1709 -22.332 65.5039 -26.999s34.166 -7.66699 41.499 -9c0.666992 0 1.83398 -0.166992 3.50098 -0.5s2.83398 -0.5 3.50098 -0.5l30 -1h9c21.333 0 39.833 -7.66699 55.5 -23s23.5 -33.666 23.5 -54.999c0 -22 -7.83301 -40.5 -23.5 -55.5
s-34.167 -22.5 -55.5 -22.5h-49c-7.33301 0 -21.5 1.16699 -42.5 3.5s-45.5 9.16602 -73.5 20.499s-57.5 29.166 -88.5 53.499s-59.833 58.166 -86.5 101.499c-55.333 -61.333 -115.833 -110.166 -181.5 -146.499s-139.834 -64.5 -222.501 -84.5l1 1
c-73.333 -15.333 -145 -23 -215 -23c-43.333 0 -86 3 -128 9c5.33301 28.667 10.166 54.834 14.499 78.501s8.83301 48.834 13.5 75.501c15.333 -2.66699 31 -4.33398 47 -5.00098s33 -1 51 -1c30 0 62 2 96 6s69 10 105 18c-14 76 -35.333 154 -64 234
s-60.834 158.667 -96.501 236s-73 151.5 -112 222.5s-75.833 135.167 -110.5 192.5s-65.334 106.166 -92.001 146.499s-45.334 68.5 -56.001 84.5l129 92c8.66699 -12.667 21.167 -31.167 37.5 -55.5s35.166 -53.5 56.499 -87.5s44.666 -71.833 69.999 -113.5
s51.333 -85.834 78 -132.501c79.333 -141.333 144.666 -275.5 195.999 -402.5s89.333 -247.5 114 -361.5c28.667 16 55.334 34.333 80.001 55s46 43.167 64 67.5s32 50 42 77s15 55.167 15 84.5c0 5.33301 -0.166992 10.5 -0.5 15.5s-0.833008 10.167 -1.5 15.5v-1
c-4 60.667 -8.5 123.667 -13.5 189s-10.167 130 -15.5 194s-10.666 126.333 -15.999 187s-10.5 116.834 -15.5 168.501s-9.5 97.5 -13.5 137.5s-7 72 -9 96l-3 24l158 17c0 -1.33301 1.83301 -19 5.5 -53s8.16699 -79.5 13.5 -136.5s11.333 -122.667 18 -197
s13.334 -152.166 20.001 -233.499s13 -163.5 19 -246.5s11.333 -161.833 16 -236.5c2 -22 4.5 -42.333 7.5 -61s7.83301 -35.834 14.5 -51.501s15.667 -30 27 -43s26 -24.833 44 -35.5v-1zM570.005 1422c18 -2 38.332 -3.16797 60.999 -3.50098s45.5 0.833984 68.5 3.50098
s45.167 7.16699 66.5 13.5s39 15.5 53 27.5c17.333 15.333 27 34.333 29 57c0 9.33301 -2.16699 17.666 -6.5 24.999s-8.16602 12.666 -11.499 15.999c-13.333 14 -27.333 21.833 -42 23.5s-28 1.5 -40 -0.5c-18 -3.33301 -35.833 -9.5 -53.5 -18.5
s-34.167 -21.167 -49.5 -36.5c-19.333 -19.333 -35.333 -39.166 -48 -59.499s-21.667 -36.166 -27 -47.499zM296.004 1453c17.333 8.66699 34.667 15.998 52 21.998c14.667 5.33301 29.834 9.66602 45.501 12.999s29.167 3.66602 40.5 0.999023s21.5 -6.16699 30.5 -10.5
s16.833 -9.16602 23.5 -14.499c7.33301 -6 13.666 -12.333 18.999 -19c6.66699 12.667 17.667 31.667 33 57s35.666 50.333 60.999 75c19.333 18.667 40.666 34.167 63.999 46.5s47 20.166 71 23.499c28 6 54.167 5.5 78.5 -1.5s45.166 -19.833 62.499 -38.5
c12.667 -13.333 22.167 -27.666 28.5 -42.999s8.5 -31.666 6.5 -48.999c-1.33301 -41.333 -19 -76 -53 -104c-14.667 -12 -31.167 -21.667 -49.5 -29s-37.333 -13.166 -57 -17.499s-39.667 -7.33301 -60 -9s-39.5 -2.5 -57.5 -2.5c-19.333 0 -36.666 0.666992 -51.999 2
s-26.333 2.33301 -33 3c-16.667 2 -33 6.66699 -49 14c-9.33301 4 -18.166 9.16699 -26.499 15.5s-17.166 15.833 -26.499 28.5c-10.667 8 -23.667 11 -39 9s-30 -6 -44 -12c-16.667 -7.33301 -33.667 -16.666 -51 -27.999z" />
    <glyph glyph-name="tooman" unicode="&#xfe97;&#xfeee;&#xfee3;&#xfe8e;&#x646;" horiz-adv-x="4519" 
d="M3736 98c0 22 7.66602 40.5068 22.999 55.5068s33.666 22.5 54.999 22.5h103c7.33301 0 14.833 -0.166992 22.5 -0.5s15.167 -0.5 22.5 -0.5c32 0 62.833 1.66699 92.5 5s57 9.66602 82 18.999s47.167 22.666 66.5 39.999s35.333 39.666 48 66.999v-1
c10.667 22 16 51.333 16 88c0 62.667 -14.667 141 -44 235c-5.33301 16.667 -11.833 34.667 -19.5 54s-15.167 38.166 -22.5 56.499s-14.5 35.166 -21.5 50.499s-12.5 27.666 -16.5 36.999l142 71c4 -9.33301 9.33301 -21.333 16 -36s14 -31.667 22 -51
s16.167 -40.333 24.5 -63s16.5 -46.334 24.5 -71.001c17.333 -54 30.333 -104.333 39 -151s13 -90 13 -130c0 -58.667 -9.33301 -109.667 -28 -153c-23.333 -48.667 -55.166 -90.5 -95.499 -125.5s-88.5 -60.167 -144.5 -75.5c-34.667 -10 -68.5 -16 -101.5 -18
s-64.5 -3 -94.5 -3h-146c-21.333 0 -39.666 7.5 -54.999 22.5s-23 33.5 -23 55.5zM4028 1221.01l-146 -146l-148 147l146 147zM4383 1219.01l-145 -146l-148 148l146 146zM3092 -524.993c101.333 22 192.501 52.665 273.501 91.998s150.5 83.5 208.5 132.5
s104 101.167 138 156.5s55 110 63 164h-77c-24.667 0 -50.5 0.333008 -77.5 1s-53.5 2 -79.5 4c-138 9.33301 -240 54.333 -306 135v-1c-21.333 27.333 -36.833 58 -46.5 92s-14.5 70 -14.5 108c0 30.667 3.16699 61.834 9.5 93.501s14.666 62.834 24.999 93.501
s22.666 59.667 36.999 87s29.5 52 45.5 74c30.667 38 65 67.5 103 88.5s76.333 31.5 115 31.5c88.667 0 170.667 -40.667 246 -122v1c27.333 -30.667 52 -65.667 74 -105s40.833 -81.833 56.5 -127.5s28.167 -93.667 37.5 -144s14.666 -101.5 15.999 -153.5h94
c22 0 40.833 -7.5 56.5 -22.5s23.5 -33.833 23.5 -56.5c0 -21.333 -7.83301 -39.5 -23.5 -54.5s-34.5 -22.5 -56.5 -22.5h-107c-19.333 -97.333 -54.333 -185.5 -105 -264.5s-111.667 -148 -183 -207s-150.666 -107.667 -237.999 -146s-177.666 -65.5 -270.999 -81.5z
M3509 670.005c-24.667 0 -49 -10.166 -73 -30.499s-45.5 -45.666 -64.5 -75.999s-34.5 -63.5 -46.5 -99.5s-18 -70 -18 -102c0 -22 3.33301 -42 10 -60s15 -33.333 25 -46v1c11.333 -14.667 26.166 -26.667 44.499 -36s37.5 -16.833 57.5 -22.5s39.5 -9.83398 58.5 -12.501
s35.167 -4.33398 48.5 -5.00098c37.333 -2 76.5 -3 117.5 -3s78.5 1.66699 112.5 5c-2 46.667 -7.33301 90.834 -16 132.501s-19.5 80.167 -32.5 115.5s-27.667 67.166 -44 95.499s-33.5 52.5 -51.5 72.5c-7.33301 8 -15.666 16.167 -24.999 24.5s-19.5 16 -30.5 23
s-22.5 12.667 -34.5 17s-24.667 6.5 -38 6.5zM1905 98.0059c0 21.333 7.66699 39.3389 23 54.0059s33.666 22.667 54.999 24h-1c58.667 0 108.5 9.5 149.5 28.5s76.5 44.167 106.5 75.5s56.167 67.166 78.5 107.499s44.166 81.833 65.499 124.5
c17.333 36 34.5 70.167 51.5 102.5s36.167 61.166 57.5 86.499c57.333 68.667 125 103 203 103c94.667 0 173.334 -38 236.001 -114c24.667 -30 44.667 -64.833 60 -104.5s26 -81.334 32 -125.001s6.83301 -87.334 2.5 -131.001s-13.833 -83.834 -28.5 -120.501
c-18 -44 -42 -80.833 -72 -110.5s-64 -49.5 -102 -59.5c-23.333 -6 -48.666 -9 -75.999 -9c-50 0 -105 12 -165 36c-64.667 26 -135.334 67 -212.001 123c-4.66699 -4.66699 -8.66699 -8.5 -12 -11.5s-5.66602 -5.16699 -6.99902 -6.5c-98.667 -100.667 -221 -151 -367 -151
c-22 0 -40.5 7.66699 -55.5 23s-22.5 33.666 -22.5 54.999zM2460 319.012c28.667 -21.333 57.832 -40.166 87.499 -56.499s58.334 -30.166 86.001 -41.499s53.667 -20 78 -26s45.166 -9 62.499 -9c6.66699 0 13.167 0.333008 19.5 1s12.833 2 19.5 4h-1
c19.333 7.33301 35.333 23.333 48 48s21 53.167 25 85.5s3.5 66.666 -1.5 102.999s-15.167 70.166 -30.5 101.499s-36.166 57.833 -62.499 79.5s-58.5 34.167 -96.5 37.5c-16.667 1.33301 -31.667 -2 -45 -10s-26.5 -20.5 -39.5 -37.5s-26.5 -38.5 -40.5 -64.5
s-29.667 -56.333 -47 -91zM1972 20.0117c-70.667 0 -131.003 8.16992 -181.003 24.5029s-92 41.5 -126 75.5c-20.667 20.667 -36.5 43 -47.5 67s-19 47.667 -24 71s-7.83301 45.666 -8.5 66.999s-1 39.666 -1 54.999c0.666992 20 1.5 55 2.5 105s1.5 110 1.5 180
c0 39.333 -0.166992 82.166 -0.5 128.499s-1 92.666 -2 138.999s-2.33301 94.5 -4 144.5s-3.66699 96.333 -6 139s-5.16602 82.167 -8.49902 118.5s-7.33301 68.833 -12 97.5l156 28c5.33301 -31.333 9.83301 -66.333 13.5 -105s6.66699 -80.667 9 -126
s4.33301 -94.333 6 -147s2.83398 -103.5 3.50098 -152.5s1.16699 -98.167 1.5 -147.5s0.5 -95 0.5 -137c0 -51.333 -0.166992 -98.166 -0.5 -140.499s-0.833008 -84.5 -1.5 -126.5c-0.666992 -32 0.666016 -60.167 3.99902 -84.5s14 -45.166 32 -62.499
c16.667 -16.667 40.334 -29.834 71.001 -39.501s68.334 -14.834 113.001 -15.501h9c21.333 0 39.833 -7.66699 55.5 -23s23.5 -33.666 23.5 -54.999c0 -22 -7.83301 -40.5 -23.5 -55.5s-34.167 -22.5 -55.5 -22.5zM740.995 -459.985
c-99.333 2 -188.505 16.999 -267.505 44.999s-146.167 68 -201.5 120s-97.666 115.833 -126.999 191.5s-44 162.167 -44 259.5c0 51.333 4.5 103.5 13.5 156.5s21 104.5 36 154.5s32.333 97.333 52 142s40.167 84.667 61.5 120l128 -94c-12 -18.667 -25.667 -45 -41 -79
s-29.666 -72.667 -42.999 -116s-24.666 -90 -33.999 -140s-14 -100 -14 -150c0 -30.667 2.5 -63 7.5 -97s14.167 -67.333 27.5 -100s31.5 -64 54.5 -94s52.5 -56.5 88.5 -79.5s79 -41.667 129 -56s109 -22.5 177 -24.5c91.333 -2.66699 172.333 7.83301 243 31.5
s130 58 178 103s84.5 99.5 109.5 163.5s37.5 135.667 37.5 215c0 58.667 -5.83301 115 -17.5 169s-25.667 103.667 -42 149s-33.166 85 -50.499 119s-31.666 60 -42.999 78l139 89c6 -9.33301 14.333 -23.833 25 -43.5s22.5 -43.5 35.5 -71.5s26.167 -59.667 39.5 -95
s25.333 -73.666 36 -114.999s19.5 -85 26.5 -131s10.5 -93.667 10.5 -143c0 -106 -18 -201.5 -54 -286.5s-86.333 -157 -151 -216s-141.667 -103.833 -231 -134.5s-187.333 -44 -294 -40zM932.99 785.014l-147 -147l-148 148l147 147z" />
    <glyph glyph-name="yeye" unicode="&#xfbff;&#xfbff;" horiz-adv-x="1756" 
d="M-81 98c0 22 7.5 40.499 22.5 55.499s33.5 22.5 55.5 22.5h76c58.667 0 115 3 169 9s101.5 17.667 142.5 35s73.167 42.166 96.5 74.499s34 74.833 32 127.5c-0.666992 18 -1.66699 35.167 -3 51.5s-3.5 33.333 -6.5 51s-6.66699 36.5 -11 56.5s-9.83301 42.667 -16.5 68
c28 7.33301 53.167 14.5 75.5 21.5s46.833 14.167 73.5 21.5c8 -28.667 14.333 -55 19 -79s8.5 -47.167 11.5 -69.5s5.66699 -44.666 8 -66.999s5.16602 -46.5 8.49902 -72.5c3.33301 -28 7.5 -55.5 12.5 -82.5s13.667 -51.333 26 -73s29.833 -39.167 52.5 -52.5
s53.334 -20 92.001 -20c22 0 40.833 -7.5 56.5 -22.5s23.5 -33.5 23.5 -55.5s-7.66699 -40.5 -23 -55.5s-33.666 -22.5 -54.999 -22.5c-32 0 -61.333 3.5 -88 10.5s-51.167 16.667 -73.5 29s-42.833 26.833 -61.5 43.5s-35.334 35 -50.001 55
c-26 -25.333 -58.333 -46.666 -97 -63.999s-80.834 -31.5 -126.501 -42.5s-93.167 -19 -142.5 -24s-97.666 -7.5 -144.999 -7.5h-76c-22 0 -40.5 7.5 -55.5 22.5s-22.5 33.5 -22.5 55.5zM810 97.999c0 22 7.5 40.499 22.5 55.499s33.5 22.5 55.5 22.5h76
c58.667 0 115 3 169 9s101.5 17.667 142.5 35s73.167 42.166 96.5 74.499s34 74.833 32 127.5c-0.666992 18 -1.66699 35.167 -3 51.5s-3.5 33.333 -6.5 51s-6.66699 36.5 -11 56.5s-9.83301 42.667 -16.5 68c28 7.33301 53.167 14.5 75.5 21.5s46.833 14.167 73.5 21.5
c8 -28.667 14.333 -55 19 -79s8.5 -47.167 11.5 -69.5s5.66699 -44.666 8 -66.999s5.16602 -46.5 8.49902 -72.5c3.33301 -28 7.5 -55.5 12.5 -82.5s13.667 -51.333 26 -73s29.833 -39.167 52.5 -52.5s53.334 -20 92.001 -20c22 0 40.833 -7.5 56.5 -22.5
s23.5 -33.5 23.5 -55.5s-7.66699 -40.5 -23 -55.5s-33.666 -22.5 -54.999 -22.5c-32 0 -61.333 3.5 -88 10.5s-51.167 16.667 -73.5 29s-42.833 26.833 -61.5 43.5s-35.334 35 -50.001 55c-26 -25.333 -58.333 -46.666 -97 -63.999s-80.834 -31.5 -126.501 -42.5
s-93.167 -19 -142.5 -24s-97.666 -7.5 -144.999 -7.5h-76c-22 0 -40.5 7.5 -55.5 22.5s-22.5 33.5 -22.5 55.5zM357 -473.002l-148 -148l-150 149l148 149zM751 -474.002l-148 -149l-150 150l148 148zM1247 -343.002l-148 -148l-150 149l148 149zM1641 -344.002l-148 -149
l-150 150l148 148z" />
    <glyph glyph-name="yeye1" unicode="&#xfbfe;&#xfbff;" horiz-adv-x="1717" 
d="M-81 98c0 22 7.5 40.499 22.5 55.499s33.5 22.5 55.5 22.5h76c58.667 0 115 3 169 9s101.5 17.667 142.5 35s73.167 42.166 96.5 74.499s34 74.833 32 127.5c-0.666992 18 -1.66699 35.167 -3 51.5s-3.5 33.333 -6.5 51s-6.66699 36.5 -11 56.5s-9.83301 42.667 -16.5 68
c28 7.33301 53.167 14.5 75.5 21.5s46.833 14.167 73.5 21.5c8 -28.667 14.333 -55 19 -79s8.5 -47.167 11.5 -69.5s5.66699 -44.666 8 -66.999s5.16602 -46.5 8.49902 -72.5c3.33301 -28 7.5 -55.5 12.5 -82.5s13.667 -51.333 26 -73s29.833 -39.167 52.5 -52.5
s53.334 -20 92.001 -20c22 0 40.833 -7.5 56.5 -22.5s23.5 -33.5 23.5 -55.5s-7.66699 -40.5 -23 -55.5s-33.666 -22.5 -54.999 -22.5c-32 0 -61.333 3.5 -88 10.5s-51.167 16.667 -73.5 29s-42.833 26.833 -61.5 43.5s-35.334 35 -50.001 55
c-26 -25.333 -58.333 -46.666 -97 -63.999s-80.834 -31.5 -126.501 -42.5s-93.167 -19 -142.5 -24s-97.666 -7.5 -144.999 -7.5h-76c-22 0 -40.5 7.5 -55.5 22.5s-22.5 33.5 -22.5 55.5zM357 -488.001l-148 -148l-150 149l148 149zM751 -489.001l-148 -149l-150 150l148 148
zM804 97.999c0 22 7.66504 40.5039 22.998 55.5039s33.666 22.5 54.999 22.5h111c37.333 0 78.5 0.833008 123.5 2.5s88.5 6.66699 130.5 15s79.833 21.333 113.5 39s57.5 42.167 71.5 73.5v-1c10.667 22 16 51.333 16 88c0 31.333 -4.66699 66.666 -14 105.999
s-21.333 82.333 -36 129c-5.33301 16.667 -11.833 34.667 -19.5 54s-15.167 38.166 -22.5 56.499s-14.5 35.166 -21.5 50.499s-12.5 27.666 -16.5 36.999l142 71c4 -9.33301 9.33301 -21.333 16 -36s14 -31.667 22 -51s16.167 -40.333 24.5 -63s16.5 -46.334 24.5 -71.001
c17.333 -54 30.333 -104.333 39 -151s13 -90 13 -130c0 -58.667 -9.33301 -109.667 -28 -153c-23.333 -48.667 -55.166 -90.5 -95.499 -125.5s-88.5 -60.167 -144.5 -75.5c-17.333 -5.33301 -39.666 -9.33301 -66.999 -12s-55.5 -4.66699 -84.5 -6
s-56.5 -2.16602 -82.5 -2.49902s-46.333 -0.5 -61 -0.5h-154c-21.333 0 -39.666 7.5 -54.999 22.5s-23 33.5 -23 55.5zM1208 -343.997l-148 -148l-150 149l148 149zM1602 -344.997l-148 -149l-150 150l148 148z" />
    <glyph glyph-name="uni0621" unicode="&#x621;" horiz-adv-x="1019" arabic-form="isolated" 
d="M780 567c-12 4.66699 -24.665 9.33105 -37.998 13.998c-12 4 -25.333 8 -40 12s-30 7.66699 -46 11c-16 2 -33.167 3 -51.5 3s-34.833 -1.33301 -49.5 -4c-40.667 -12 -73.167 -33.5 -97.5 -64.5s-36.5 -65.833 -36.5 -104.5c0 -23.333 5 -45.666 15 -66.999
s23.333 -40.666 40 -57.999s35.834 -31.833 57.501 -43.5s44.5 -19.167 68.5 -22.5c4.66699 -0.666992 9.66699 -1.16699 15 -1.5s11.333 -0.5 18 -0.5c20.667 0 42.167 2.5 64.5 7.5s44.333 11.167 66 18.5s42.667 15.666 63 24.999s39.166 18 56.499 26
c10 -19.333 19.5 -37.5 28.5 -54.5s18.5 -34.833 28.5 -53.5c-12 -6 -25.5 -12.5 -40.5 -19.5s-34 -15 -57 -24s-51.333 -20 -85 -33s-75.5 -28.833 -125.5 -47.5s-109.333 -40.667 -178 -66s-149.334 -55.333 -242.001 -90l-42 119l293 111
c-40.667 24.667 -75.334 55.5 -104.001 92.5s-47.667 75.5 -57 115.5c-5.33301 19.333 -8 40.333 -8 63c0 48 10.833 92 32.5 132s50.334 73.5 86.001 100.5s76.167 46.333 121.5 58s91.333 13.5 138 5.5c18.667 -3.33301 36.5 -7.16602 53.5 -11.499s32.667 -9 47 -14
s26.666 -9.66699 36.999 -14s17.833 -7.5 22.5 -9.5z" />
    <glyph glyph-name="uni0622" unicode="&#x622;" horiz-adv-x="621" arabic-form="isolated" 
d="M224 23c4.66699 72 8.50195 139.999 11.502 203.999s5 126.5 6 187.5s1.33301 121.667 1 182s-0.833008 123.5 -1.5 189.5c-1.33301 54.667 -3 105.334 -5 152.001s-4.66699 87.334 -8 122.001c-4.66699 62 -9.33398 125.5 -14.001 190.5s-11.334 129.5 -20.001 193.5
c28.667 4.66699 54.5 7.83398 77.5 9.50098s48.5 4.16699 76.5 7.5c6 -44 11.5 -89.833 16.5 -137.5s9.5 -95.834 13.5 -144.501s7.33301 -97.167 10 -145.5s5 -95.166 7 -140.499c1.33301 -45.333 2.5 -93 3.5 -143s1.5 -103 1.5 -159
c0 -86.667 -1.33301 -177.834 -4 -273.501s-7.66699 -196.834 -15 -303.501zM-102.998 1561c3.33301 9.33301 8.49805 23.333 15.498 42s15.167 35.667 24.5 51h-1c20 32 43.5 57.833 70.5 77.5s55.167 32.167 84.5 37.5c6.66699 1.33301 13.834 2.16602 21.501 2.49902
s14.167 0.5 19.5 0.5c28 0 53.667 -3.5 77 -10.5s45 -14.833 65 -23.5c19.333 -7.33301 38 -13.833 56 -19.5s37.667 -8.83398 59 -9.50098c16 -0.666992 31.5 2.5 46.5 9.5s29 15.5 42 25.5s24.333 20.333 34 31s17.167 19.334 22.5 26.001
c18.667 -11.333 35.167 -22 49.5 -32s30.5 -20.667 48.5 -32c-3.33301 -6 -11.666 -17.333 -24.999 -34s-30.833 -33.5 -52.5 -50.5s-46.834 -32.167 -75.501 -45.5s-60.334 -19.333 -95.001 -18c-26.667 0.666992 -51.334 4.33398 -74.001 11.001
s-43.667 13.334 -63 20.001h1l-16 6c-22 8.66699 -42.667 15.667 -62 21s-39.666 6.33301 -60.999 3h1c-12.667 -1.33301 -24.5 -6.83301 -35.5 -16.5s-20.667 -20.834 -29 -33.501s-15.666 -25.667 -21.999 -39s-11.166 -25 -14.499 -35z" />
    <glyph glyph-name="uni0623" unicode="&#x623;" horiz-adv-x="525" arabic-form="isolated" 
d="M151 23c4.66699 72 8.50195 139.999 11.502 203.999s5 126.5 6 187.5s1.33301 121.667 1 182s-0.833008 123.5 -1.5 189.5c-1.33301 54.667 -3 105.334 -5 152.001s-4.66699 87.334 -8 122.001c-4.66699 62 -9.33398 125.5 -14.001 190.5s-11.334 129.5 -20.001 193.5
c28.667 4.66699 54.5 7.83398 77.5 9.50098s48.5 4.16699 76.5 7.5c6 -44 11.5 -89.833 16.5 -137.5s9.5 -95.834 13.5 -144.501s7.33301 -97.167 10 -145.5s5 -95.166 7 -140.499c1.33301 -45.333 2.5 -93 3.5 -143s1.5 -103 1.5 -159
c0 -86.667 -1.33301 -177.834 -4 -273.501s-7.66699 -196.834 -15 -303.501zM384.002 2019c-10 1.33301 -20.665 2.99805 -31.998 4.99805c-10 2 -20.333 3.5 -31 4.5s-21.334 1.5 -32.001 1.5c-12 0 -24 -1 -36 -3s-24.333 -6 -37 -12h1c-26 -10 -47 -26.5 -63 -49.5
s-24 -47.5 -24 -73.5c0 -6 0.666992 -13 2 -21s4 -16 8 -24c5.33301 -13.333 13.166 -25.833 23.499 -37.5s22.166 -22 35.499 -31s27.833 -16 43.5 -21s32.167 -7.5 49.5 -7.5c8 0 16 0.5 24 1.5s17 3.5 27 7.5l-1 -1c16 4.66699 31.833 10.834 47.5 18.501
s30.167 15.334 43.5 23.001s25.166 14.834 35.499 21.501s17.833 12 22.5 16l53 -69c-28 -19.333 -63.333 -41 -106 -65s-94 -52.667 -154 -86l-244 -135c-8 14.667 -15 27.667 -21 39s-13 24 -21 38l210 117c-35.333 15.333 -66.166 35.166 -92.499 59.499
s-45.833 50.166 -58.5 77.499c-9.33301 24 -14 50.333 -14 79c0 22 3.33301 43.5 10 64.5s16.334 40.333 29.001 58s27.5 33.667 44.5 48s36.167 25.833 57.5 34.5c34 13.333 69 20 105 20c26 0 50.167 -2.16699 72.5 -6.5s38.5 -8.16602 48.5 -11.499z" />
    <glyph glyph-name="uni0624" unicode="&#x624;" horiz-adv-x="1043" arabic-form="isolated" 
d="M518 670c-16 0 -32.1689 -4.66699 -48.502 -14s-32 -21.833 -47 -37.5s-29 -33.834 -42 -54.501s-24.167 -42.5 -33.5 -65.5s-16.666 -46.167 -21.999 -69.5s-8 -45.666 -8 -66.999c0 -22 3.5 -42 10.5 -60s15.5 -33.333 25.5 -46v1
c21.333 -20.667 44.833 -36.5 70.5 -47.5s52 -18.833 79 -23.5s54 -7.16699 81 -7.5s52.833 -0.5 77.5 -0.5c21.333 0 44.333 0.5 69 1.5s44.667 2.16699 60 3.5c-2 46.667 -7.33301 90.834 -16 132.501s-19.5 80.167 -32.5 115.5s-27.667 67.166 -44 95.499
s-33.5 52.5 -51.5 72.5c-7.33301 8 -15.666 16.167 -24.999 24.5s-19.5 16 -30.5 23s-22.5 12.667 -34.5 17s-24.667 6.5 -38 6.5zM100.998 -525c101.333 22 192.501 52.665 273.501 91.998s150.5 83.5 208.5 132.5s104 101.167 138 156.5s55 110 63 164h-77
c-38.667 -2 -80.834 -1.5 -126.501 1.5s-90 9.66699 -133 20s-82.667 25 -119 44s-64.5 43.833 -84.5 74.5v-1c-21.333 27.333 -36.833 58 -46.5 92s-14.5 70 -14.5 108c0 30.667 3.16699 61.834 9.5 93.501s14.666 62.834 24.999 93.501s22.666 59.667 36.999 87
s29.5 52 45.5 74c30.667 38 65 67.5 103 88.5s76.333 31.5 115 31.5c88.667 0 170.667 -40.667 246 -122v1c28.667 -32 54.334 -68.167 77.001 -108.5s42 -83.5 58 -129.5s28.167 -94.167 36.5 -144.5s12.5 -101.5 12.5 -153.5c0 -75.333 -10.167 -147.166 -30.5 -215.499
s-48.666 -132 -84.999 -191s-79.666 -113 -129.999 -162s-105.5 -92.333 -165.5 -130s-123.833 -69.334 -191.5 -95.001s-136.834 -44.167 -207.501 -55.5zM501.999 1338c-8 2 -17.001 4 -27.001 6c-8.66699 1.33301 -18.5 2.83301 -29.5 4.5s-22.833 2.5 -35.5 2.5
c-10 0 -20.167 -0.833008 -30.5 -2.5s-20.833 -4.83398 -31.5 -9.50098v2c-21.333 -9.33301 -38.5 -23.5 -51.5 -42.5s-19.5 -39.5 -19.5 -61.5c0 -11.333 2.66699 -23.333 8 -36l-1 1c9.33301 -23.333 25.833 -42.833 49.5 -58.5s49.834 -23.5 78.501 -23.5
c7.33301 0 14.333 0.333008 21 1s13.667 2.66699 21 6c17.333 5.33301 34.333 12.333 51 21s31.667 17 45 25c15.333 9.33301 29.666 19 42.999 29l59 -78c-26 -19.333 -58.667 -40 -98 -62s-87.333 -48.667 -144 -80l-227 -126l-48 87l179 100
c-27.333 11.333 -51.5 27.666 -72.5 48.999s-37.167 45 -48.5 71c-9.33301 22.667 -14 47.334 -14 74.001c0 20.667 3.16699 40.834 9.5 60.501s15.333 38 27 55s25.667 32.167 42 45.5s34.5 24 54.5 32c31.333 12.667 64 19 98 19c15.333 0 30 -1 44 -3
s26.667 -4.33301 38 -7c12.667 -2.66699 25.334 -5.66699 38.001 -9z" />
    <glyph glyph-name="uni0625" unicode="&#x625;" horiz-adv-x="525" arabic-form="isolated" 
d="M131 23c4.66699 72 8.50195 139.999 11.502 203.999s5 126.5 6 187.5s1.33301 121.667 1 182s-0.833008 123.5 -1.5 189.5c-1.33301 54.667 -3 105.334 -5 152.001s-4.66699 87.334 -8 122.001c-4.66699 62 -9.33398 125.5 -14.001 190.5s-11.334 129.5 -20.001 193.5
c28.667 4.66699 54.5 7.83398 77.5 9.50098s48.5 4.16699 76.5 7.5c6 -44 11.5 -89.833 16.5 -137.5s9.5 -95.834 13.5 -144.501s7.33301 -97.167 10 -145.5s5 -95.166 7 -140.499c1.33301 -45.333 2.5 -93 3.5 -143s1.5 -103 1.5 -159
c0 -86.667 -1.33301 -177.834 -4 -273.501s-7.66699 -196.834 -15 -303.501zM374.002 -197.001c-10 1.33301 -20.665 2.99805 -31.998 4.99805c-10 2 -20.333 3.5 -31 4.5s-21.334 1.5 -32.001 1.5c-12 0 -24 -1 -36 -3s-24.333 -6 -37 -12h1c-26 -10 -47 -26.5 -63 -49.5
s-24 -47.5 -24 -73.5c0 -6 0.666992 -13 2 -21s4 -16 8 -24c5.33301 -13.333 13.166 -25.833 23.499 -37.5s22.166 -22 35.499 -31s27.833 -16 43.5 -21s32.167 -7.5 49.5 -7.5c8 0 16 0.5 24 1.5s17 3.5 27 7.5l-1 -1c16 4.66699 31.833 10.834 47.5 18.501
s30.167 15.334 43.5 23.001s25.166 14.834 35.499 21.501s17.833 12 22.5 16l53 -69c-28 -19.333 -63.333 -41 -106 -65s-94 -52.667 -154 -86l-244 -135c-8 14.667 -15 27.667 -21 39s-13 24 -21 38l210 117c-35.333 15.333 -66.166 35.166 -92.499 59.499
s-45.833 50.166 -58.5 77.499c-9.33301 24 -14 50.333 -14 79c0 22 3.33301 43.5 10 64.5s16.334 40.333 29.001 58s27.5 33.667 44.5 48s36.167 25.833 57.5 34.5c34 13.333 69 20 105 20c26 0 50.167 -2.16699 72.5 -6.5s38.5 -8.16602 48.5 -11.499z" />
    <glyph glyph-name="uni0626" unicode="&#x626;" horiz-adv-x="1723" arabic-form="isolated" 
d="M1375 812c18.667 4 36.6729 6.8291 54.0059 8.49609s34 2.5 50 2.5c24.667 0 48.167 -1.5 70.5 -4.5s42.833 -6.66699 61.5 -11s35.334 -9 50.001 -14s26.667 -9.16699 36 -12.5c-6.66699 -14 -13 -27 -19 -39s-11.667 -23.667 -17 -35s-10.833 -22.833 -16.5 -34.5
s-11.834 -24.5 -18.501 -38.5c-14 5.33301 -33.667 10.833 -59 16.5s-53.333 8.5 -84 8.5c-12 0 -24.333 -0.5 -37 -1.5s-25 -2.83301 -37 -5.5h2c-26.667 -2.66699 -54 -10.334 -82 -23.001s-55.5 -29.167 -82.5 -49.5s-52.5 -43.5 -76.5 -69.5s-45.167 -53.667 -63.5 -83
s-32.833 -59.333 -43.5 -90s-16 -60.667 -16 -90c0 -23.333 3.33301 -45.333 10 -66c7.33301 -21.333 19.166 -39.166 35.499 -53.499s35.5 -26.666 57.5 -36.999s46.167 -19.166 72.5 -26.499s53.166 -14 80.499 -20c34.667 -8 69.667 -17.333 105 -28
s67 -24.834 95 -42.501s50.833 -40.5 68.5 -68.5s26.5 -63.667 26.5 -107c0 -18.667 -2 -40 -6 -64v1c-11.333 -62.667 -39.333 -120 -84 -172s-104.334 -96.667 -179.001 -134c-72 -36.667 -153.833 -64.5 -245.5 -83.5s-191.167 -28.5 -298.5 -28.5
c-122 0 -230.5 18 -325.5 54s-172.5 86.667 -232.5 152c-42 49.333 -74.5 106.333 -97.5 171s-34.5 133.334 -34.5 206.001c0 15.333 0.5 31.166 1.5 47.499s2.5 32.833 4.5 49.5c8 56.667 18.833 115.834 32.5 177.501s28 119.667 43 174s29 102.333 42 144
s22.5 71.167 28.5 88.5c26.667 -9.33301 52.667 -18.666 78 -27.999s50.333 -18.333 75 -27c-14 -42.667 -27.667 -87 -41 -133s-26 -92.5 -38 -139.5s-22.833 -93.833 -32.5 -140.5s-17.834 -91.667 -24.501 -135c-1.33301 -11.333 -2.5 -23.666 -3.5 -36.999
s-1.5 -27 -1.5 -41c0 -21.333 1.66699 -43.5 5 -66.5s8.66602 -46.167 15.999 -69.5s16.833 -46.166 28.5 -68.499s25.5 -43.166 41.5 -62.499c45.333 -48 105.166 -85.167 179.499 -111.5s159.5 -39.5 255.5 -39.5c98 0 186 8 264 24s144.833 37.333 200.5 64s99 57 130 91
s48.167 69 51.5 105c1.33301 16 -3 29.833 -13 41.5s-23.667 22.167 -41 31.5s-37.333 17.333 -60 24s-45.334 13 -68.001 19c-33.333 8.66699 -68.666 18.667 -105.999 30s-72.5 26.166 -105.5 44.499s-61.667 41.166 -86 68.499s-40.5 61 -48.5 101
c-6.66699 33.333 -10 66.666 -10 99.999c0 68 12.5 134 37.5 198s59.167 122.333 102.5 175s94.333 97.834 153 135.501s121.667 63.5 189 77.5zM692.006 1125c-8 2 -17.001 4 -27.001 6c-8.66699 1.33301 -18.5 2.83301 -29.5 4.5s-22.833 2.5 -35.5 2.5
c-10 0 -20.167 -0.833008 -30.5 -2.5s-20.833 -4.83398 -31.5 -9.50098v2c-21.333 -9.33301 -38.5 -23.5 -51.5 -42.5s-19.5 -39.5 -19.5 -61.5c0 -11.333 2.66699 -23.333 8 -36l-1 1c9.33301 -23.333 25.833 -42.833 49.5 -58.5s49.834 -23.5 78.501 -23.5
c7.33301 0 14.333 0.333008 21 1s13.667 2.66699 21 6c17.333 5.33301 34.333 12.333 51 21s31.667 17 45 25c15.333 9.33301 29.666 19 42.999 29l59 -78c-26 -19.333 -58.667 -40 -98 -62s-87.333 -48.667 -144 -80l-227 -126l-48 87l179 100
c-27.333 11.333 -51.5 27.666 -72.5 48.999s-37.167 45 -48.5 71c-9.33301 22.667 -14 47.334 -14 74.001c0 20.667 3.16699 40.834 9.5 60.501s15.333 38 27 55s25.667 32.167 42 45.5s34.5 24 54.5 32c31.333 12.667 64 19 98 19c15.333 0 30 -1 44 -3
s26.667 -4.33301 38 -7c12.667 -2.66699 25.334 -5.66699 38.001 -9z" />
    <glyph glyph-name="uni0627" unicode="&#x627;" horiz-adv-x="502" arabic-form="isolated" 
d="M182 20c3.33301 54.667 6.16602 107.497 8.49902 158.497s4.33301 100.5 6 148.5s2.83398 95.167 3.50098 141.5s1 92.166 1 137.499c0 124.667 -2.16699 239.167 -6.5 343.5s-9.5 196 -15.5 275s-11.833 144.5 -17.5 196.5s-9.83398 88.667 -12.501 110l157 24
c0 -1.33301 0.333008 -3.5 1 -6.5s1.33398 -8.33301 2.00098 -16s1.83398 -17.667 3.50098 -30s3.5 -28.166 5.5 -47.499c4.66699 -38 8.66699 -79 12 -123s6.66602 -91.333 9.99902 -142c3.33301 -49.333 6 -97.5 8 -144.5s3.66699 -90.833 5 -131.5
c1.33301 -46.667 2.5 -95.667 3.5 -147s1.5 -105.666 1.5 -162.999c0 -89.333 -1.33301 -183.166 -4 -281.499s-7.66699 -202.166 -15 -311.499z" />
    <glyph glyph-name="uni0628" unicode="&#x628;" horiz-adv-x="1992" arabic-form="isolated" 
d="M998 20c-116 1.33301 -221.998 8.99512 -317.998 22.9951s-179.333 33.667 -250 59c-64.667 25.333 -120 56.5 -166 93.5s-80.333 78.833 -103 125.5c-26.667 50.667 -40 107 -40 169c0 29.333 3.33301 60.166 10 92.499s16 64.5 28 96.5c13.333 34 27 63.833 41 89.5
s25.333 45.167 34 58.5l126 -94c-2 -2.66699 -3.66699 -5.16699 -5 -7.5s-3.66602 -7 -6.99902 -14s-8.33301 -17.667 -15 -32s-16.334 -34.5 -29.001 -60.5c-8.66699 -23.333 -15.5 -45.666 -20.5 -66.999s-7.5 -41.666 -7.5 -60.999c0 -17.333 2 -34.5 6 -51.5
s9.33301 -32.5 16 -46.5c18.667 -33.333 48.334 -63.166 89.001 -89.499s90.834 -48.666 150.501 -66.999s128.167 -32.666 205.5 -42.999s162.333 -15.5 255 -15.5c54 0 113.333 2.33301 178 7s130.667 13 198 25s134.5 28.333 201.5 49s130.167 47.334 189.5 80.001
c-4 42.667 -13.833 87 -29.5 133s-33.334 89.333 -53.001 130s-38.834 76.834 -57.501 108.501s-32.667 55.167 -42 70.5l133 86c8.66699 -14 21.167 -34.833 37.5 -62.5s33.166 -59.5 50.499 -95.5s34.166 -75 50.499 -117s29.5 -84 39.5 -126
c4.66699 -20 8.33398 -38.833 11.001 -56.5s4 -34.834 4 -51.501c0 -30 -8.16699 -57.5 -24.5 -82.5s-43.166 -49.833 -80.499 -74.5c-46 -26 -102 -50.333 -168 -73s-135.833 -42 -209.5 -58s-147.834 -28.5 -222.501 -37.5s-143.334 -13.167 -206.001 -12.5z
M1158 -361.005l-147 -147l-148 148l147 147z" />
    <glyph glyph-name="uni0629" unicode="&#x629;" horiz-adv-x="1020" arabic-form="isolated" 
d="M522 16c-3.33301 0 -11.167 0.333008 -23.5 1s-28 2.5 -47 5.5s-40 7.5 -63 13.5s-46.5 14.667 -70.5 26c-59.333 28 -104.5 65.667 -135.5 113s-46.5 103.333 -46.5 168c0 56.667 13.333 115.667 40 177s66 123.666 118 186.999c20.667 24.667 43 48.834 67 72.501
s45.667 44.5 65 62.5c-19.333 16.667 -34 29.667 -44 39s-17.167 16.333 -21.5 21s-6.83301 7.33398 -7.5 8.00098s-1.33398 0.666992 -2.00098 0l107 114c8.66699 -8 20.834 -19 36.501 -33s33.167 -30.333 52.5 -49s39.833 -38.834 61.5 -60.501
s42.834 -43.834 63.501 -66.501c78 -89.333 137.167 -174 177.5 -254s60.5 -152.667 60.5 -218c0 -64.667 -14.333 -120.667 -43 -168s-70.334 -84.666 -125.001 -111.999c-20.667 -10 -41.5 -18 -62.5 -24s-41.167 -10.833 -60.5 -14.5s-37.333 -6 -54 -7
s-31 -1.5 -43 -1.5zM509.999 719c-20 -17.333 -43.334 -40.166 -70.001 -68.499s-52 -59.333 -76 -93s-44.333 -69 -61 -106s-25 -72.833 -25 -107.5c0 -22.667 7.83301 -46.667 23.5 -72s43.834 -47.666 84.501 -66.999h-1c14 -6.66699 28 -12 42 -16s27.167 -7 39.5 -9
s23.333 -3.33301 33 -4s17.167 -1 22.5 -1c6.66699 0 15.667 0.166992 27 0.5s23.833 1.5 37.5 3.5s28 4.83301 43 8.5s29.167 8.83398 42.5 15.501c28.667 15.333 51.667 33.166 69 53.499s26 47.5 26 81.5c0 22.667 -5.5 48.167 -16.5 76.5s-26.333 58.666 -46 90.999
s-43.167 66.166 -70.5 101.499s-57.333 71 -90 107l-18 20zM427.998 1360l-146 -146l-148 147l146 147zM782.998 1358l-145 -146l-148 148l146 146z" />
    <glyph glyph-name="uni062A" unicode="&#x62a;" horiz-adv-x="2000" arabic-form="isolated" 
d="M978 20c-116 1.33301 -221.998 8.99512 -317.998 22.9951s-179.333 33.667 -250 59c-64.667 25.333 -120 56.5 -166 93.5s-80.333 78.833 -103 125.5c-26.667 50.667 -40 107 -40 169c0 29.333 3.33301 60.166 10 92.499s16 64.5 28 96.5c13.333 34 27 63.833 41 89.5
s25.333 45.167 34 58.5l126 -94c-2 -2.66699 -3.66699 -5.16699 -5 -7.5s-3.66602 -7 -6.99902 -14s-8.33301 -17.667 -15 -32s-16.334 -34.5 -29.001 -60.5c-8.66699 -23.333 -15.5 -45.666 -20.5 -66.999s-7.5 -41.666 -7.5 -60.999c0 -17.333 2 -34.5 6 -51.5
s9.33301 -32.5 16 -46.5c18.667 -33.333 48.334 -63.166 89.001 -89.499s90.834 -48.666 150.501 -66.999s128.167 -32.666 205.5 -42.999s162.333 -15.5 255 -15.5c54 0 113.333 2.33301 178 7s130.667 13 198 25s134.5 28.333 201.5 49s130.167 47.334 189.5 80.001
c-4 42.667 -13.833 87 -29.5 133s-33.334 89.333 -53.001 130s-38.834 76.834 -57.501 108.501s-32.667 55.167 -42 70.5l133 86c8.66699 -14 21.167 -34.833 37.5 -62.5s33.166 -59.5 50.499 -95.5s34.166 -75 50.499 -117s29.5 -84 39.5 -126
c4.66699 -20 8.33398 -38.833 11.001 -56.5s4 -34.834 4 -51.501c0 -30 -8.16699 -57.5 -24.5 -82.5s-43.166 -49.833 -80.499 -74.5c-46 -26 -102 -50.333 -168 -73s-135.833 -42 -209.5 -58s-147.834 -28.5 -222.501 -37.5s-143.334 -13.167 -206.001 -12.5z
M972.002 988.995l-146 -146l-148 147l146 147zM1327 986.995l-145 -146l-148 148l146 146z" />
    <glyph glyph-name="uni062B" unicode="&#x62b;" horiz-adv-x="1964" arabic-form="isolated" 
d="M985 20c-116 1.33301 -221.998 8.99512 -317.998 22.9951s-179.333 33.667 -250 59c-64.667 25.333 -120 56.5 -166 93.5s-80.333 78.833 -103 125.5c-26.667 50.667 -40 107 -40 169c0 29.333 3.33301 60.166 10 92.499s16 64.5 28 96.5c13.333 34 27 63.833 41 89.5
s25.333 45.167 34 58.5l126 -94c-2 -2.66699 -3.66699 -5.16699 -5 -7.5s-3.66602 -7 -6.99902 -14s-8.33301 -17.667 -15 -32s-16.334 -34.5 -29.001 -60.5c-8.66699 -23.333 -15.5 -45.666 -20.5 -66.999s-7.5 -41.666 -7.5 -60.999c0 -17.333 2 -34.5 6 -51.5
s9.33301 -32.5 16 -46.5c18.667 -33.333 48.334 -63.166 89.001 -89.499s90.834 -48.666 150.501 -66.999s128.167 -32.666 205.5 -42.999s162.333 -15.5 255 -15.5c54 0 113.333 2.33301 178 7s130.667 13 198 25s134.5 28.333 201.5 49s130.167 47.334 189.5 80.001
c-4 42.667 -13.833 87 -29.5 133s-33.334 89.333 -53.001 130s-38.834 76.834 -57.501 108.501s-32.667 55.167 -42 70.5l133 86c8.66699 -14 21.167 -34.833 37.5 -62.5s33.166 -59.5 50.499 -95.5s34.166 -75 50.499 -117s29.5 -84 39.5 -126
c4.66699 -20 8.33398 -38.833 11.001 -56.5s4 -34.834 4 -51.501c0 -30 -8.16699 -57.5 -24.5 -82.5s-43.166 -49.833 -80.499 -74.5c-46 -26 -102 -50.333 -168 -73s-135.833 -42 -209.5 -58s-147.834 -28.5 -222.501 -37.5s-143.334 -13.167 -206.001 -12.5zM1058 967.995
l146 146l148 -148l-146 -146zM652.002 968.995l146 147l148 -148l-146 -147zM875.002 1259l132 132l133 -133l-132 -132z" />
    <glyph glyph-name="uni062C" unicode="&#x62c;" horiz-adv-x="1570" arabic-form="isolated" 
d="M873 -608c94 0 182.999 13.1699 266.999 39.5029s166.667 67.833 248 124.5l90 -129c-94.667 -63.333 -195.334 -112.333 -302.001 -147s-220.334 -52 -341.001 -52c-100 0 -194 13.5 -282 40.5s-164.833 66.5 -230.5 118.5s-117.5 115.667 -155.5 191s-57 161 -57 257
v21c0 6.66699 0.333008 14 1 22c4 68 19.333 133.167 46 195.5s63.334 120.333 110.001 174s102.667 102.334 168 146.001s138.333 80.667 219 111s168.334 53.166 263.001 68.499s195 22 301 20c-24 12.667 -50 29.334 -78 50.001s-57.333 42.5 -88 65.5
s-62.5 46.167 -95.5 69.5s-66.833 44.5 -101.5 63.5s-70 34.333 -106 46s-72 17.5 -108 17.5s-69.833 -7.33301 -101.5 -22s-61.167 -33.334 -88.5 -56.001s-52.333 -47.5 -75 -74.5s-42.667 -52.5 -60 -76.5c-8 5.33301 -15 9.83301 -21 13.5s-11.5 7.16699 -16.5 10.5
l-15 10c-5 3.33301 -10.833 7.33301 -17.5 12c-9.33301 6.66699 -18.833 13 -28.5 19s-19.834 12.333 -30.501 19c22.667 36 49.167 72.167 79.5 108.5s64 68.833 101 97.5s77.167 52 120.5 70s89 27 137 27c56 0 108.833 -7.16699 158.5 -21.5s97.167 -33.333 142.5 -57
s89.166 -50.834 131.499 -81.501s84.333 -62.334 126 -95.001s83.5 -65 125.5 -97s85.333 -61 130 -87l-63 -182c-96 10 -189.333 11.167 -280 3.5s-176.5 -23 -257.5 -46s-155.667 -52.5 -224 -88.5s-127.666 -77.333 -177.999 -124s-90.666 -97.5 -120.999 -152.5
s-47.833 -112.833 -52.5 -173.5c-0.666992 -53.333 6.83301 -102 22.5 -146s37.334 -83.333 65.001 -118s60.834 -64.834 99.501 -90.501s80.667 -47 126 -64s93.166 -29.667 143.499 -38s101.5 -12.5 153.5 -12.5zM1034 -92.9971l-147 -147l-148 148l147 147z" />
    <glyph glyph-name="uni062D" unicode="&#x62d;" horiz-adv-x="1592" arabic-form="isolated" 
d="M867 -608c94 0 182.999 13.1699 266.999 39.5029s166.667 67.833 248 124.5l90 -129c-94.667 -63.333 -195.334 -112.333 -302.001 -147s-220.334 -52 -341.001 -52c-100 0 -194 13.5 -282 40.5s-164.833 66.5 -230.5 118.5s-117.5 115.667 -155.5 191s-57 161 -57 257
v21c0 6.66699 0.333008 14 1 22c4 68 19.333 133.167 46 195.5s63.334 120.333 110.001 174s102.667 102.334 168 146.001s138.333 80.667 219 111s168.334 53.166 263.001 68.499s195 22 301 20c-24 12.667 -50 29.334 -78 50.001s-57.333 42.5 -88 65.5
s-62.5 46.167 -95.5 69.5s-66.833 44.5 -101.5 63.5s-70 34.333 -106 46s-72 17.5 -108 17.5s-69.833 -7.33301 -101.5 -22s-61.167 -33.334 -88.5 -56.001s-52.333 -47.5 -75 -74.5s-42.667 -52.5 -60 -76.5c-8 5.33301 -15 9.83301 -21 13.5s-11.5 7.16699 -16.5 10.5
l-15 10c-5 3.33301 -10.833 7.33301 -17.5 12c-9.33301 6.66699 -18.833 13 -28.5 19s-19.834 12.333 -30.501 19c22.667 36 49.167 72.167 79.5 108.5s64 68.833 101 97.5s77.167 52 120.5 70s89 27 137 27c56 0 108.833 -7.16699 158.5 -21.5s97.167 -33.333 142.5 -57
s89.166 -50.834 131.499 -81.501s84.333 -62.334 126 -95.001s83.5 -65 125.5 -97s85.333 -61 130 -87l-63 -182c-96 10 -189.333 11.167 -280 3.5s-176.5 -23 -257.5 -46s-155.667 -52.5 -224 -88.5s-127.666 -77.333 -177.999 -124s-90.666 -97.5 -120.999 -152.5
s-47.833 -112.833 -52.5 -173.5c-0.666992 -53.333 6.83301 -102 22.5 -146s37.334 -83.333 65.001 -118s60.834 -64.834 99.501 -90.501s80.667 -47 126 -64s93.166 -29.667 143.499 -38s101.5 -12.5 153.5 -12.5z" />
    <glyph glyph-name="uni062E" unicode="&#x62e;" horiz-adv-x="1570" arabic-form="isolated" 
d="M867 -608c94 0 182.999 13.1699 266.999 39.5029s166.667 67.833 248 124.5l90 -129c-94.667 -63.333 -195.334 -112.333 -302.001 -147s-220.334 -52 -341.001 -52c-100 0 -194 13.5 -282 40.5s-164.833 66.5 -230.5 118.5s-117.5 115.667 -155.5 191s-57 161 -57 257
v21c0 6.66699 0.333008 14 1 22c4 68 19.333 133.167 46 195.5s63.334 120.333 110.001 174s102.667 102.334 168 146.001s138.333 80.667 219 111s168.334 53.166 263.001 68.499s195 22 301 20c-24 12.667 -50 29.334 -78 50.001s-57.333 42.5 -88 65.5
s-62.5 46.167 -95.5 69.5s-66.833 44.5 -101.5 63.5s-70 34.333 -106 46s-72 17.5 -108 17.5s-69.833 -7.33301 -101.5 -22s-61.167 -33.334 -88.5 -56.001s-52.333 -47.5 -75 -74.5s-42.667 -52.5 -60 -76.5c-8 5.33301 -15 9.83301 -21 13.5s-11.5 7.16699 -16.5 10.5
l-15 10c-5 3.33301 -10.833 7.33301 -17.5 12c-9.33301 6.66699 -18.833 13 -28.5 19s-19.834 12.333 -30.501 19c22.667 36 49.167 72.167 79.5 108.5s64 68.833 101 97.5s77.167 52 120.5 70s89 27 137 27c56 0 108.833 -7.16699 158.5 -21.5s97.167 -33.333 142.5 -57
s89.166 -50.834 131.499 -81.501s84.333 -62.334 126 -95.001s83.5 -65 125.5 -97s85.333 -61 130 -87l-63 -182c-96 10 -189.333 11.167 -280 3.5s-176.5 -23 -257.5 -46s-155.667 -52.5 -224 -88.5s-127.666 -77.333 -177.999 -124s-90.666 -97.5 -120.999 -152.5
s-47.833 -112.833 -52.5 -173.5c-0.666992 -53.333 6.83301 -102 22.5 -146s37.334 -83.333 65.001 -118s60.834 -64.834 99.501 -90.501s80.667 -47 126 -64s93.166 -29.667 143.499 -38s101.5 -12.5 153.5 -12.5zM753.999 1442l-147 -147l-148 148l147 147z" />
    <glyph glyph-name="uni062F" unicode="&#x62f;" horiz-adv-x="1127" arabic-form="isolated" 
d="M545 21c-30 0 -65.5059 3.33301 -106.506 10s-81.667 15.5 -122 26.5s-77.666 23.5 -111.999 37.5s-60.166 28 -77.499 42l67 153c24 -14 51.167 -27.333 81.5 -40s62.666 -23.834 96.999 -33.501s69.5 -17.5 105.5 -23.5s71.333 -9 106 -9
c49.333 0 96.166 6.83301 140.499 20.5s80.833 38.167 109.5 73.5c23.333 28.667 32.833 63.167 28.5 103.5s-17.666 83.166 -39.999 128.499s-51.166 91.333 -86.499 138s-72.666 90.5 -111.999 131.5s-78 77.167 -116 108.5s-71 54.666 -99 69.999
c12 26.667 23 51.334 33 74.001s20.667 46.667 32 72c36.667 -20 73.834 -44.667 111.501 -74s74.5 -61.666 110.5 -96.999s70.333 -73 103 -113s62.334 -81 89.001 -123s49.834 -84 69.501 -126s34.167 -82.667 43.5 -122c4.66699 -22 8 -45 10 -69s1.5 -47.667 -1.5 -71
s-8.66699 -46.166 -17 -68.499s-20.5 -42.833 -36.5 -61.5c-59.333 -71.333 -141.666 -118.333 -246.999 -141c-23.333 -6 -48.833 -10.333 -76.5 -13s-56.834 -4 -87.501 -4z" />
    <glyph glyph-name="uni0630" unicode="&#x630;" horiz-adv-x="1111" arabic-form="isolated" 
d="M545 21c-30 0 -65.5059 3.33301 -106.506 10s-81.667 15.5 -122 26.5s-77.666 23.5 -111.999 37.5s-60.166 28 -77.499 42l67 153c24 -14 51.167 -27.333 81.5 -40s62.666 -23.834 96.999 -33.501s69.5 -17.5 105.5 -23.5s71.333 -9 106 -9
c49.333 0 96.166 6.83301 140.499 20.5s80.833 38.167 109.5 73.5c23.333 28.667 32.833 63.167 28.5 103.5s-17.666 83.166 -39.999 128.499s-51.166 91.333 -86.499 138s-72.666 90.5 -111.999 131.5s-78 77.167 -116 108.5s-71 54.666 -99 69.999
c12 26.667 23 51.334 33 74.001s20.667 46.667 32 72c36.667 -20 73.834 -44.667 111.501 -74s74.5 -61.666 110.5 -96.999s70.333 -73 103 -113s62.334 -81 89.001 -123s49.834 -84 69.501 -126s34.167 -82.667 43.5 -122c4.66699 -22 8 -45 10 -69s1.5 -47.667 -1.5 -71
s-8.66699 -46.166 -17 -68.499s-20.5 -42.833 -36.5 -61.5c-59.333 -71.333 -141.666 -118.333 -246.999 -141c-23.333 -6 -48.833 -10.333 -76.5 -13s-56.834 -4 -87.501 -4zM608.994 1464l-147 -147l-148 148l147 147z" />
    <glyph glyph-name="uni0631" unicode="&#x631;" horiz-adv-x="717" arabic-form="isolated" 
d="M481 625c18 -62 34.666 -122.336 49.999 -181.003c6.66699 -25.333 13.334 -51.333 20.001 -78s12.834 -53.167 18.501 -79.5s10.834 -51.666 15.501 -75.999s8.33398 -46.5 11.001 -66.5c0 -8 0.5 -16.167 1.5 -24.5s1.5 -18.166 1.5 -29.499
c0 -55.333 -8.16699 -109.333 -24.5 -162s-38.833 -103.167 -67.5 -151.5s-62.834 -94.666 -102.501 -138.999s-82.834 -86.166 -129.501 -125.499s-96.167 -75.833 -148.5 -109.5s-105.5 -64.167 -159.5 -91.5l-69 140c70 36 137.667 77.167 203 123.5
s123.333 96.666 174 150.999s91.334 112.166 122.001 173.499s46 125 46 191c0 6.66699 -0.333008 13.334 -1 20.001s-1.33398 13.667 -2.00098 21c-2.66699 24.667 -6.83398 51.5 -12.501 80.5s-12.167 58.667 -19.5 89s-15 60 -23 89s-15.667 56 -23 81
s-14 46.833 -20 65.5s-10.333 32.667 -13 42z" />
    <glyph glyph-name="uni0632" unicode="&#x632;" horiz-adv-x="722" arabic-form="isolated" 
d="M481 625c18 -62 34.666 -122.336 49.999 -181.003c6.66699 -25.333 13.334 -51.333 20.001 -78s12.834 -53.167 18.501 -79.5s10.834 -51.666 15.501 -75.999s8.33398 -46.5 11.001 -66.5c0 -8 0.5 -16.167 1.5 -24.5s1.5 -18.166 1.5 -29.499
c0 -55.333 -8.16699 -109.333 -24.5 -162s-38.833 -103.167 -67.5 -151.5s-62.834 -94.666 -102.501 -138.999s-82.834 -86.166 -129.501 -125.499s-96.167 -75.833 -148.5 -109.5s-105.5 -64.167 -159.5 -91.5l-69 140c70 36 137.667 77.167 203 123.5
s123.333 96.666 174 150.999s91.334 112.166 122.001 173.499s46 125 46 191c0 6.66699 -0.333008 13.334 -1 20.001s-1.33398 13.667 -2.00098 21c-2.66699 24.667 -6.83398 51.5 -12.501 80.5s-12.167 58.667 -19.5 89s-15 60 -23 89s-15.667 56 -23 81
s-14 46.833 -20 65.5s-10.333 32.667 -13 42zM544.999 1056l-147 -147l-148 148l147 147z" />
    <glyph glyph-name="uni0633" unicode="&#x633;" horiz-adv-x="2654" arabic-form="isolated" 
d="M2420 897c6.66699 -12 14.6582 -27.834 23.9912 -47.501s19.333 -42 30 -67s21.334 -52.167 32.001 -81.5s20.334 -59.833 29.001 -91.5s15.5 -64 20.5 -97s7.5 -65.5 7.5 -97.5c-0.666992 -54.667 -7 -105.834 -19 -153.501s-30.833 -89.167 -56.5 -124.5
s-58.667 -63.166 -99 -83.499s-88.833 -30.5 -145.5 -30.5c-17.333 0 -36.166 3.16699 -56.499 9.5s-41 15.5 -62 27.5s-41.333 27 -61 45s-37.5 39 -53.5 63c-44 -52 -91 -88.667 -141 -110s-102 -33.333 -156 -36c-30 -1.33301 -58.333 2.16699 -85 10.5
s-50 18.166 -70 29.499c-23.333 12.667 -45 27.667 -65 45c5.33301 -86.667 -0.166992 -165.834 -16.5 -237.501s-41.333 -135.834 -75 -192.501s-74.667 -105.667 -123 -147s-101.166 -75.166 -158.499 -101.499s-118.333 -45.166 -183 -56.499s-130 -15 -196 -11
c-85.333 0 -163.333 12 -234 36s-133 60.333 -187 109c-48.667 43.333 -89 95.333 -121 156s-53 126.667 -63 198c-17.333 116 -11.5 232.333 17.5 349s76.167 227.667 141.5 333c22.667 -16.667 43.667 -31.334 63 -44.001s39.333 -26.667 60 -42
c-23.333 -37.333 -44.333 -79.666 -63 -126.999s-33.667 -96.666 -45 -147.999s-18.833 -102.666 -22.5 -153.999s-2.16699 -99.666 4.5 -144.999c2.66699 -18 7.33398 -39.667 14.001 -65s16.834 -51.333 30.501 -78s31.167 -53.167 52.5 -79.5s48 -49.833 80 -70.5
s70 -37.334 114 -50.001s95.667 -19 155 -19c104.667 4.66699 194.834 18.667 270.501 42s137.834 56.333 186.501 99s84.5 95 107.5 157s34.5 134 34.5 216c0 50.667 -4.16699 99.667 -12.5 147s-19.5 93 -33.5 137s-30.333 86 -49 126s-38.334 78.333 -59.001 115l138 78
c2.66699 -7.33301 6.66699 -17 12 -29c4.66699 -10 10.334 -22.667 17.001 -38s15 -34 25 -56c18 -41.333 37.667 -81.833 59 -121.5s45.333 -75 72 -106s56.5 -56 89.5 -75s69.833 -28.833 110.5 -29.5c42.667 2 76.667 12.5 102 31.5s44.666 43.5 57.999 73.5
s22.166 64.333 26.499 103s6.5 78.667 6.5 120v122c30 2.66699 57.833 5.33398 83.5 8.00098s52.834 5.66699 81.501 9c0.666992 -6 1 -12.667 1 -20v-20.5c0 -7.66699 0.333008 -15.834 1 -24.501c0.666992 -17.333 1.83398 -39.5 3.50098 -66.5
s4.83398 -55.667 9.50098 -86s11 -61 19 -92s18.667 -58.833 32 -83.5s29.833 -44.667 49.5 -60s43.167 -23 70.5 -23c25.333 0 48 7.33301 68 22s36.667 34 50 58s23.333 51.5 30 82.5s9.66699 62.5 9 94.5c-2.66699 37.333 -8.33398 74.333 -17.001 111
s-19 71.667 -31 105s-24.667 64.333 -38 93s-25.666 54 -36.999 76z" />
    <glyph glyph-name="uni0634" unicode="&#x634;" horiz-adv-x="2681" arabic-form="isolated" 
d="M2420 897c6.66699 -12 14.6582 -27.834 23.9912 -47.501s19.333 -42 30 -67s21.334 -52.167 32.001 -81.5s20.334 -59.833 29.001 -91.5s15.5 -64 20.5 -97s7.5 -65.5 7.5 -97.5c-0.666992 -54.667 -7 -105.834 -19 -153.501s-30.833 -89.167 -56.5 -124.5
s-58.667 -63.166 -99 -83.499s-88.833 -30.5 -145.5 -30.5c-17.333 0 -36.166 3.16699 -56.499 9.5s-41 15.5 -62 27.5s-41.333 27 -61 45s-37.5 39 -53.5 63c-44 -52 -91 -88.667 -141 -110s-102 -33.333 -156 -36c-30 -1.33301 -58.333 2.16699 -85 10.5
s-50 18.166 -70 29.499c-23.333 12.667 -45 27.667 -65 45c5.33301 -86.667 -0.166992 -165.834 -16.5 -237.501s-41.333 -135.834 -75 -192.501s-74.667 -105.667 -123 -147s-101.166 -75.166 -158.499 -101.499s-118.333 -45.166 -183 -56.499s-130 -15 -196 -11
c-85.333 0 -163.333 12 -234 36s-133 60.333 -187 109c-48.667 43.333 -89 95.333 -121 156s-53 126.667 -63 198c-17.333 116 -11.5 232.333 17.5 349s76.167 227.667 141.5 333c22.667 -16.667 43.667 -31.334 63 -44.001s39.333 -26.667 60 -42
c-23.333 -37.333 -44.333 -79.666 -63 -126.999s-33.667 -96.666 -45 -147.999s-18.833 -102.666 -22.5 -153.999s-2.16699 -99.666 4.5 -144.999c2.66699 -18 7.33398 -39.667 14.001 -65s16.834 -51.333 30.501 -78s31.167 -53.167 52.5 -79.5s48 -49.833 80 -70.5
s70 -37.334 114 -50.001s95.667 -19 155 -19c104.667 4.66699 194.834 18.667 270.501 42s137.834 56.333 186.501 99s84.5 95 107.5 157s34.5 134 34.5 216c0 50.667 -4.16699 99.667 -12.5 147s-19.5 93 -33.5 137s-30.333 86 -49 126s-38.334 78.333 -59.001 115l138 78
c2.66699 -7.33301 6.66699 -17 12 -29c4.66699 -10 10.334 -22.667 17.001 -38s15 -34 25 -56c18 -41.333 37.667 -81.833 59 -121.5s45.333 -75 72 -106s56.5 -56 89.5 -75s69.833 -28.833 110.5 -29.5c42.667 2 76.667 12.5 102 31.5s44.666 43.5 57.999 73.5
s22.166 64.333 26.499 103s6.5 78.667 6.5 120v122c30 2.66699 57.833 5.33398 83.5 8.00098s52.834 5.66699 81.501 9c0.666992 -6 1 -12.667 1 -20v-20.5c0 -7.66699 0.333008 -15.834 1 -24.501c0.666992 -17.333 1.83398 -39.5 3.50098 -66.5
s4.83398 -55.667 9.50098 -86s11 -61 19 -92s18.667 -58.833 32 -83.5s29.833 -44.667 49.5 -60s43.167 -23 70.5 -23c25.333 0 48 7.33301 68 22s36.667 34 50 58s23.333 51.5 30 82.5s9.66699 62.5 9 94.5c-2.66699 37.333 -8.33398 74.333 -17.001 111
s-19 71.667 -31 105s-24.667 64.333 -38 93s-25.666 54 -36.999 76zM1951.99 1142l146 146l148 -148l-146 -146zM1545.99 1143l146 147l148 -148l-146 -147zM1768.99 1433l132 132l133 -133l-132 -132z" />
    <glyph glyph-name="uni0635" unicode="&#x635;" horiz-adv-x="2867" arabic-form="isolated" 
d="M836 -629c-15.333 0 -31.3271 0.337891 -47.9941 1.00488s-33.667 2.33398 -51 5.00098c-64.667 4.66699 -123.334 14.834 -176.001 30.501s-100.334 36.167 -143.001 61.5c-40 23.333 -74.5 51.166 -103.5 83.499s-54.167 68.833 -75.5 109.5
c-18.667 40 -32.667 82.333 -42 127s-13.666 92.667 -12.999 144c0 41.333 3.33301 83.666 10 126.999s15.667 88 27 134c8.66699 34.667 18.5 68 29.5 100s22 61.167 33 87.5s21.333 49.666 31 69.999s18.167 36.5 25.5 48.5l132 -85
c-9.33301 -17.333 -21.5 -43.333 -36.5 -78s-29.5 -74.167 -43.5 -118.5s-26 -91.833 -36 -142.5s-15 -101 -15 -151c0 -34.667 3.16699 -68.5 9.5 -101.5s16.5 -63.833 30.5 -92.5c28 -56.667 73.5 -101.834 136.5 -135.501s140.5 -54.5 232.5 -62.5
c14 -1.33301 28.5 -2.33301 43.5 -3s29.167 -1 42.5 -1c74.667 0 142.167 9.66699 202.5 29s112.5 47.666 156.5 84.999c32 30 58.5 61.667 79.5 95s37.667 67.166 50 101.499s21.166 68.833 26.499 103.5s8 68 8 100c0 52 -4.5 104.667 -13.5 158s-20 104.333 -33 153
s-26.333 93 -40 133s-25.167 72.667 -34.5 98c24.667 9.33301 49.834 19.166 75.501 29.499s49.167 19.166 70.5 26.499c11.333 -26 21.5 -49.5 30.5 -70.5s17.667 -40.5 26 -58.5s17.166 -35.333 26.499 -52s19.666 -34 30.999 -52c23.333 -37.333 47.333 -66.833 72 -88.5
s44.667 -37.167 60 -46.5c26.667 49.333 62 103.333 106 162s94.667 115.667 152 171v-1c58 54.667 120.333 102.167 187 142.5s135.334 67.166 206.001 80.499h-1c36.667 7.33301 74 10.333 112 9s74.667 -6.83301 110 -16.5s68.833 -23.667 100.5 -42
s60.167 -41.166 85.5 -68.499c36 -36 62.667 -77 80 -123s25 -92.333 23 -139c-6 -69.333 -27 -133.666 -63 -192.999s-83.333 -109 -142 -149c-35.333 -22 -72.333 -40.333 -111 -55s-77.5 -26.667 -116.5 -36s-76.833 -16.166 -113.5 -20.499
s-70.334 -6.83301 -101.001 -7.5c-8 -0.666992 -15.833 -1 -23.5 -1h-23.5c-59.333 0 -114.333 3.16699 -165 9.5s-99.167 16.666 -145.5 30.999s-91.833 32.833 -136.5 55.5s-90.334 50 -137.001 82c0 -6 0.166992 -14.167 0.5 -24.5s0.666016 -21 0.999023 -32
s0.666016 -21.667 0.999023 -32s0.5 -18.5 0.5 -24.5c0 -55.333 -5 -110.5 -15 -165.5s-25.667 -105.833 -47 -152.5c-18.667 -42 -41.167 -80.833 -67.5 -116.5s-55.833 -67.5 -88.5 -95.5c-58.667 -48 -127 -85 -205 -111s-163.667 -39 -257 -39zM1767.01 201.005
c52 -19.333 106.168 -33.668 162.501 -43.001s114.5 -14 174.5 -14c34 0 68.833 2 104.5 6s70.667 10 105 18s67.333 17.833 99 29.5s60.5 25.167 86.5 40.5c38 25.333 69 56.833 93 94.5s38.333 79.5 43 125.5c0.666992 16 -1 31.333 -5 46s-9 28.167 -15 40.5
s-12.667 23.333 -20 33s-14 17.5 -20 23.5c-20 20 -40.833 35.667 -62.5 47s-43.834 19.5 -66.501 24.5s-45.667 7.33301 -69 7s-46.333 -2.5 -69 -6.5h1c-55.333 -9.33301 -109.333 -30.666 -162 -63.999s-102.667 -72.333 -150 -117
c-26 -24.667 -50.667 -50.167 -74 -76.5s-45 -52.166 -65 -77.499s-37.667 -49.833 -53 -73.5s-28 -44.834 -38 -63.501z" />
    <glyph glyph-name="uni0636" unicode="&#x636;" horiz-adv-x="2894" arabic-form="isolated" 
d="M836 -629c-15.333 0 -31.3271 0.337891 -47.9941 1.00488s-33.667 2.33398 -51 5.00098c-64.667 4.66699 -123.334 14.834 -176.001 30.501s-100.334 36.167 -143.001 61.5c-40 23.333 -74.5 51.166 -103.5 83.499s-54.167 68.833 -75.5 109.5
c-18.667 40 -32.667 82.333 -42 127s-13.666 92.667 -12.999 144c0 41.333 3.33301 83.666 10 126.999s15.667 88 27 134c8.66699 34.667 18.5 68 29.5 100s22 61.167 33 87.5s21.333 49.666 31 69.999s18.167 36.5 25.5 48.5l132 -85
c-9.33301 -17.333 -21.5 -43.333 -36.5 -78s-29.5 -74.167 -43.5 -118.5s-26 -91.833 -36 -142.5s-15 -101 -15 -151c0 -34.667 3.16699 -68.5 9.5 -101.5s16.5 -63.833 30.5 -92.5c28 -56.667 73.5 -101.834 136.5 -135.501s140.5 -54.5 232.5 -62.5
c14 -1.33301 28.5 -2.33301 43.5 -3s29.167 -1 42.5 -1c74.667 0 142.167 9.66699 202.5 29s112.5 47.666 156.5 84.999c32 30 58.5 61.667 79.5 95s37.667 67.166 50 101.499s21.166 68.833 26.499 103.5s8 68 8 100c0 52 -4.5 104.667 -13.5 158s-20 104.333 -33 153
s-26.333 93 -40 133s-25.167 72.667 -34.5 98c24.667 9.33301 49.834 19.166 75.501 29.499s49.167 19.166 70.5 26.499c11.333 -26 21.5 -49.5 30.5 -70.5s17.667 -40.5 26 -58.5s17.166 -35.333 26.499 -52s19.666 -34 30.999 -52c23.333 -37.333 47.333 -66.833 72 -88.5
s44.667 -37.167 60 -46.5c26.667 49.333 62 103.333 106 162s94.667 115.667 152 171v-1c58 54.667 120.333 102.167 187 142.5s135.334 67.166 206.001 80.499h-1c36.667 7.33301 74 10.333 112 9s74.667 -6.83301 110 -16.5s68.833 -23.667 100.5 -42
s60.167 -41.166 85.5 -68.499c36 -36 62.667 -77 80 -123s25 -92.333 23 -139c-6 -69.333 -27 -133.666 -63 -192.999s-83.333 -109 -142 -149c-35.333 -22 -72.333 -40.333 -111 -55s-77.5 -26.667 -116.5 -36s-76.833 -16.166 -113.5 -20.499
s-70.334 -6.83301 -101.001 -7.5c-8 -0.666992 -15.833 -1 -23.5 -1h-23.5c-59.333 0 -114.333 3.16699 -165 9.5s-99.167 16.666 -145.5 30.999s-91.833 32.833 -136.5 55.5s-90.334 50 -137.001 82c0 -6 0.166992 -14.167 0.5 -24.5s0.666016 -21 0.999023 -32
s0.666016 -21.667 0.999023 -32s0.5 -18.5 0.5 -24.5c0 -55.333 -5 -110.5 -15 -165.5s-25.667 -105.833 -47 -152.5c-18.667 -42 -41.167 -80.833 -67.5 -116.5s-55.833 -67.5 -88.5 -95.5c-58.667 -48 -127 -85 -205 -111s-163.667 -39 -257 -39zM1767.01 201.005
c52 -19.333 106.168 -33.668 162.501 -43.001s114.5 -14 174.5 -14c34 0 68.833 2 104.5 6s70.667 10 105 18s67.333 17.833 99 29.5s60.5 25.167 86.5 40.5c38 25.333 69 56.833 93 94.5s38.333 79.5 43 125.5c0.666992 16 -1 31.333 -5 46s-9 28.167 -15 40.5
s-12.667 23.333 -20 33s-14 17.5 -20 23.5c-20 20 -40.833 35.667 -62.5 47s-43.834 19.5 -66.501 24.5s-45.667 7.33301 -69 7s-46.333 -2.5 -69 -6.5h1c-55.333 -9.33301 -109.333 -30.666 -162 -63.999s-102.667 -72.333 -150 -117
c-26 -24.667 -50.667 -50.167 -74 -76.5s-45 -52.166 -65 -77.499s-37.667 -49.833 -53 -73.5s-28 -44.834 -38 -63.501zM2421.01 1250l-147 -147l-148 148l147 147z" />
    <glyph glyph-name="uni0637" unicode="&#x637;" horiz-adv-x="1776" arabic-form="isolated" 
d="M856 20c-22 0 -43.4912 0.329102 -64.4912 0.996094s-41.5 1.66699 -61.5 3h-4c-97.333 5.33301 -196.833 18.833 -298.5 40.5s-204.834 52.167 -309.501 91.5c10.667 27.333 20.167 52.333 28.5 75s17.5 46.667 27.5 72c39.333 -15.333 80.166 -29.5 122.499 -42.5
s86.833 -25.167 133.5 -36.5c14 20.667 33.5 48 58.5 82s52.833 70.667 83.5 110c4.66699 32 8.66699 62 12 90s6 54.833 8 80.5s3.5 50.5 4.5 74.5s1.5 48.333 1.5 73c0 41.333 -1.16699 85.5 -3.5 132.5s-5.83301 100.833 -10.5 161.5
c-4.66699 66 -9.83398 127.167 -15.501 183.5s-11 106.5 -16 150.5s-9.33301 80.667 -13 110s-6.5 49.666 -8.5 60.999l157 21c2 -14.667 5.16699 -41.667 9.5 -81s9.16602 -84.666 14.499 -135.999s11 -105.5 17 -162.5s11 -110.833 15 -161.5
c2 -21.333 3.5 -39.666 4.5 -54.999s2 -30.166 3 -44.499s1.66699 -29.333 2 -45s0.833008 -34.334 1.5 -56.001s1.16699 -48 1.5 -79s1.16602 -68.5 2.49902 -112.5c179.333 170.667 340.333 266.334 483 287.001c48 8 97.5 7.16699 148.5 -2.5s97.833 -27.5 140.5 -53.5
s78.167 -59.333 106.5 -100s44.166 -87.667 47.499 -141c2 -34.667 -0.666992 -69 -8 -103s-17.666 -66.167 -30.999 -96.5s-28.5 -58.166 -45.5 -83.499s-34.5 -46.666 -52.5 -63.999c-54.667 -52.667 -112.334 -95 -173.001 -127s-121.334 -56.667 -182.001 -74
s-119.834 -28.833 -177.501 -34.5s-110.834 -8.5 -159.501 -8.5zM603.009 191.996l25.0049 -2.5c10 -1 20.333 -2 31 -3s21 -2 31 -3s18.333 -1.5 25 -1.5c3.33301 0 6.66602 -0.166992 9.99902 -0.5s6.66602 -0.5 9.99902 -0.5l62 -2c20.667 -0.666992 41.667 -1 63 -1
c44.667 0 91.667 1.5 141 4.5s99.166 11 149.499 24s100.666 32.333 150.999 58s98.5 61.5 144.5 107.5c12.667 12.667 24.5 28.167 35.5 46.5s20.5 38 28.5 59s13.667 42.667 17 65s4 43.5 2 63.5c-4 32 -14.833 58.167 -32.5 78.5s-39 36 -64 47s-52.333 17.833 -82 20.5
s-57.834 2.66699 -84.501 0c-70 -11.333 -146.333 -43.833 -229 -97.5s-169.667 -131.167 -261 -232.5z" />
    <glyph glyph-name="uni0638" unicode="&#x638;" horiz-adv-x="1787" arabic-form="isolated" 
d="M856 20c-22 0 -43.4912 0.329102 -64.4912 0.996094s-41.5 1.66699 -61.5 3h-4c-97.333 5.33301 -196.833 18.833 -298.5 40.5s-204.834 52.167 -309.501 91.5c10.667 27.333 20.167 52.333 28.5 75s17.5 46.667 27.5 72c39.333 -15.333 80.166 -29.5 122.499 -42.5
s86.833 -25.167 133.5 -36.5c14 20.667 33.5 48 58.5 82s52.833 70.667 83.5 110c4.66699 32 8.66699 62 12 90s6 54.833 8 80.5s3.5 50.5 4.5 74.5s1.5 48.333 1.5 73c0 41.333 -1.16699 85.5 -3.5 132.5s-5.83301 100.833 -10.5 161.5
c-4.66699 66 -9.83398 127.167 -15.501 183.5s-11 106.5 -16 150.5s-9.33301 80.667 -13 110s-6.5 49.666 -8.5 60.999l157 21c2 -14.667 5.16699 -41.667 9.5 -81s9.16602 -84.666 14.499 -135.999s11 -105.5 17 -162.5s11 -110.833 15 -161.5
c2 -21.333 3.5 -39.666 4.5 -54.999s2 -30.166 3 -44.499s1.66699 -29.333 2 -45s0.833008 -34.334 1.5 -56.001s1.16699 -48 1.5 -79s1.16602 -68.5 2.49902 -112.5c179.333 170.667 340.333 266.334 483 287.001c48 8 97.5 7.16699 148.5 -2.5s97.833 -27.5 140.5 -53.5
s78.167 -59.333 106.5 -100s44.166 -87.667 47.499 -141c2 -34.667 -0.666992 -69 -8 -103s-17.666 -66.167 -30.999 -96.5s-28.5 -58.166 -45.5 -83.499s-34.5 -46.666 -52.5 -63.999c-54.667 -52.667 -112.334 -95 -173.001 -127s-121.334 -56.667 -182.001 -74
s-119.834 -28.833 -177.501 -34.5s-110.834 -8.5 -159.501 -8.5zM603.009 191.996l25.0049 -2.5c10 -1 20.333 -2 31 -3s21 -2 31 -3s18.333 -1.5 25 -1.5c3.33301 0 6.66602 -0.166992 9.99902 -0.5s6.66602 -0.5 9.99902 -0.5l62 -2c20.667 -0.666992 41.667 -1 63 -1
c44.667 0 91.667 1.5 141 4.5s99.166 11 149.499 24s100.666 32.333 150.999 58s98.5 61.5 144.5 107.5c12.667 12.667 24.5 28.167 35.5 46.5s20.5 38 28.5 59s13.667 42.667 17 65s4 43.5 2 63.5c-4 32 -14.833 58.167 -32.5 78.5s-39 36 -64 47s-52.333 17.833 -82 20.5
s-57.834 2.66699 -84.501 0c-70 -11.333 -146.333 -43.833 -229 -97.5s-169.667 -131.167 -261 -232.5zM1446.01 1338l-147 -147l-148 148l147 147z" />
    <glyph glyph-name="uni0639" unicode="&#x639;" horiz-adv-x="1543" arabic-form="isolated" 
d="M828 -715c-48 0 -96.9922 3.83398 -146.992 11.501s-99.167 20.5 -147.5 38.5s-95.333 41.333 -141 70s-87.834 64 -126.501 106c-52.667 56.667 -90.5 122.667 -113.5 198s-31.833 153.666 -26.5 234.999c3.33301 64 17.166 126.167 41.499 186.5
s57.166 117.5 98.499 171.5c22 26.667 46.667 52.667 74 78s56.5 49.166 87.5 71.499s63.333 43.166 97 62.499s67.5 36 101.5 50l-2 -1l56 19l-47 24c-48 34 -84.333 76.667 -109 128s-37 108 -37 170c0 55.333 11.167 107.333 33.5 156s52.166 91.334 89.499 128.001
s80.666 66.167 129.999 88.5s101 34.5 155 36.5c35.333 2 70.833 -0.833008 106.5 -8.5s70.5 -19 104.5 -34s66.5 -32.833 97.5 -53.5s59.5 -43 85.5 -67c-16 -19.333 -32.667 -39.833 -50 -61.5s-33.666 -41.834 -48.999 -60.501c-32 24.667 -64.333 46.667 -97 66
c-28 16.667 -59 31.334 -93 44.001s-66.333 18.667 -97 18c-36 -6 -70.333 -15.833 -103 -29.5s-61 -32 -85 -55s-42.333 -51 -55 -84s-17.334 -71.5 -14.001 -115.5c5.33301 -59.333 31 -105 77 -137c26.667 -18 60.667 -32.667 102 -44s89 -17 143 -17
c16 0 32.667 0.5 50 1.5s34.666 2.83301 51.999 5.5c30.667 4 59.167 8.5 85.5 13.5s49.5 9.83301 69.5 14.5c22.667 5.33301 44 10.666 64 15.999c6 -28 10.333 -55.333 13 -82s6.66699 -53.667 12 -81c-34.667 -6 -70 -12.167 -106 -18.5s-79.333 -13.5 -130 -21.5
c-58.667 -10 -109.834 -19.833 -153.501 -29.5s-82.834 -19.834 -117.501 -30.501s-66.667 -22.167 -96 -34.5s-59 -25.833 -89 -40.5c-16 -8 -35.167 -18.667 -57.5 -32s-45.666 -29.5 -69.999 -48.5s-48.5 -40.833 -72.5 -65.5s-45.833 -52.5 -65.5 -83.5
s-36.167 -65.167 -49.5 -102.5s-21.333 -77.666 -24 -120.999v1c-5.33301 -78 6.16699 -147 34.5 -207s68.166 -110.333 119.499 -151s111.333 -71.5 180 -92.5s140.334 -31.5 215.001 -31.5c42 0 84.167 3.33301 126.5 10s84.166 16.667 125.499 30s81.5 29.833 120.5 49.5
s75.833 42.834 110.5 69.501l93 -133c-52 -41.333 -103.167 -74.666 -153.5 -99.999s-99.833 -45 -148.5 -59s-96.167 -23.333 -142.5 -28s-91.5 -7 -135.5 -7z" />
    <glyph glyph-name="uni063A" unicode="&#x63a;" horiz-adv-x="1548" arabic-form="isolated" 
d="M828 -715c-48 0 -96.9922 3.83398 -146.992 11.501s-99.167 20.5 -147.5 38.5s-95.333 41.333 -141 70s-87.834 64 -126.501 106c-52.667 56.667 -90.5 122.667 -113.5 198s-31.833 153.666 -26.5 234.999c3.33301 64 17.166 126.167 41.499 186.5
s57.166 117.5 98.499 171.5c22 26.667 46.667 52.667 74 78s56.5 49.166 87.5 71.499s63.333 43.166 97 62.499s67.5 36 101.5 50l-2 -1l56 19l-47 24c-48 34 -84.333 76.667 -109 128s-37 108 -37 170c0 55.333 11.167 107.333 33.5 156s52.166 91.334 89.499 128.001
s80.666 66.167 129.999 88.5s101 34.5 155 36.5c35.333 2 70.833 -0.833008 106.5 -8.5s70.5 -19 104.5 -34s66.5 -32.833 97.5 -53.5s59.5 -43 85.5 -67c-16 -19.333 -32.667 -39.833 -50 -61.5s-33.666 -41.834 -48.999 -60.501c-32 24.667 -64.333 46.667 -97 66
c-28 16.667 -59 31.334 -93 44.001s-66.333 18.667 -97 18c-36 -6 -70.333 -15.833 -103 -29.5s-61 -32 -85 -55s-42.333 -51 -55 -84s-17.334 -71.5 -14.001 -115.5c5.33301 -59.333 31 -105 77 -137c26.667 -18 60.667 -32.667 102 -44s89 -17 143 -17
c16 0 32.667 0.5 50 1.5s34.666 2.83301 51.999 5.5c30.667 4 59.167 8.5 85.5 13.5s49.5 9.83301 69.5 14.5c22.667 5.33301 44 10.666 64 15.999c6 -28 10.333 -55.333 13 -82s6.66699 -53.667 12 -81c-34.667 -6 -70 -12.167 -106 -18.5s-79.333 -13.5 -130 -21.5
c-58.667 -10 -109.834 -19.833 -153.501 -29.5s-82.834 -19.834 -117.501 -30.501s-66.667 -22.167 -96 -34.5s-59 -25.833 -89 -40.5c-16 -8 -35.167 -18.667 -57.5 -32s-45.666 -29.5 -69.999 -48.5s-48.5 -40.833 -72.5 -65.5s-45.833 -52.5 -65.5 -83.5
s-36.167 -65.167 -49.5 -102.5s-21.333 -77.666 -24 -120.999v1c-5.33301 -78 6.16699 -147 34.5 -207s68.166 -110.333 119.499 -151s111.333 -71.5 180 -92.5s140.334 -31.5 215.001 -31.5c42 0 84.167 3.33301 126.5 10s84.166 16.667 125.499 30s81.5 29.833 120.5 49.5
s75.833 42.834 110.5 69.501l93 -133c-52 -41.333 -103.167 -74.666 -153.5 -99.999s-99.833 -45 -148.5 -59s-96.167 -23.333 -142.5 -28s-91.5 -7 -135.5 -7zM1006.01 1725l-147 -147l-148 148l147 147z" />
    <glyph glyph-name="uni0641" unicode="&#x641;" horiz-adv-x="1953" arabic-form="isolated" 
d="M1699 999c23.333 -25.333 44.999 -55.333 64.999 -90s37.5 -72.5 52.5 -113.5s26.833 -84.5 35.5 -130.5s13 -93 13 -141c0 -27.333 -1 -55.166 -3 -83.499s-7.66699 -56.5 -17 -84.5c-17.333 -50.667 -41.833 -94 -73.5 -130s-69.167 -66.5 -112.5 -91.5
s-91.666 -45 -144.999 -60s-110 -26.333 -170 -34s-122.833 -12.834 -188.5 -15.501s-132.5 -4 -200.5 -4c-396.667 0 -652.334 98 -767.001 294c-23.333 40 -39.833 80.5 -49.5 121.5s-14.5 81.5 -14.5 121.5c0 36.667 2.16699 70 6.5 100s9.83301 56.833 16.5 80.5
s13.5 44.334 20.5 62.001s13.5 32.5 19.5 44.5c23.333 -12.667 46.5 -25.334 69.5 -38.001s46.167 -25.334 69.5 -38.001c-9.33301 -22 -19 -49.667 -29 -83s-15 -75.666 -15 -126.999c0 -27.333 3.5 -55.333 10.5 -84s17.833 -55.667 32.5 -81
c42 -68 113.167 -120.667 213.5 -158s229.166 -59 386.499 -65c14.667 -0.666992 29 -1 43 -1h41c82.667 0 161.334 4.83301 236.001 14.5s142.5 23.834 203.5 42.501s113.5 42 157.5 70s76.333 60.333 97 97c-51.333 -11.333 -100.666 -16.833 -147.999 -16.5
s-91.666 5.33301 -132.999 15s-79 23.834 -113 42.501s-63 41 -87 67c-15.333 17.333 -28.833 40.666 -40.5 69.999s-17.5 65.666 -17.5 108.999c0 30 3.16699 61.5 9.5 94.5s15.666 65.5 27.999 97.5s27.5 62.5 45.5 91.5s38.5 54.333 61.5 76s48.333 39 76 52
s57.5 19.5 89.5 19.5c82 0 157 -37.333 225 -112v-1zM1709 572c-6.66699 34.667 -14.833 72.6699 -24.5 114.003s-23 80.666 -40 117.999s-38.833 70 -65.5 98s-60.334 45.667 -101.001 53c-14.667 2.66699 -32 -3.5 -52 -18.5s-39 -35 -57 -60s-33.167 -53.333 -45.5 -85
s-18.5 -62.834 -18.5 -93.501c0 -18.667 3.33301 -36.334 10 -53.001s15.334 -32 26.001 -46c18 -23.333 42.5 -40.333 73.5 -51s64 -17.167 99 -19.5s70.167 -1.5 105.5 2.5s66.333 9.33301 93 16zM1630 1465l-147 -147l-148 148l147 147z" />
    <glyph glyph-name="uni0642" unicode="&#x642;" horiz-adv-x="1592" arabic-form="isolated" 
d="M1063 21c-70 5.33301 -130.834 19.0039 -182.501 41.0039s-93.167 53.333 -124.5 94c-43.333 55.333 -65 120.333 -65 195c0 31.333 3.16699 63.333 9.5 96s15 64.5 26 95.5s23.833 60.167 38.5 87.5s30.334 51.666 47.001 72.999c30.667 40 64.5 70.167 101.5 90.5
s75.5 30.5 115.5 30.5c45.333 0 88.166 -10.333 128.499 -31s79.5 -51.334 117.5 -92.001v1c28.667 -32 54.167 -68.333 76.5 -109s41.333 -84 57 -130s27.667 -94.167 36 -144.5s12.5 -101.166 12.5 -152.499c0 -15.333 -0.333008 -30.5 -1 -45.5
s-1.66699 -30.167 -3 -45.5c0.666992 -1.33301 0.333984 -12 -0.999023 -32s-5.16602 -46 -11.499 -78s-16 -68 -29 -108s-30.5 -81 -52.5 -123c-53.333 -102.667 -123 -183.334 -209 -242.001c-54 -38 -112.667 -66 -176 -84s-133 -27 -209 -27
c-130.667 0 -243.334 24.667 -338.001 74c-50.667 25.333 -95.667 55.666 -135 90.999s-72 76.333 -98 123c-28.667 46.667 -50.5 97.5 -65.5 152.5s-22.5 113.5 -22.5 175.5c0 19.333 1 39.666 3 60.999c11.333 146.667 58.666 300.667 141.999 462
c26 -14 49.667 -26.833 71 -38.5s44.333 -24.167 69 -37.5c-42 -80.667 -73.5 -158.334 -94.5 -233.001s-31.5 -145.667 -31.5 -213c0 -46 5.16699 -89.833 15.5 -131.5s26.166 -80.5 47.499 -116.5c40.667 -67.333 98.834 -119 174.501 -155s162.167 -54.667 259.5 -56
c6 -0.666992 12.333 -1 19 -1h18c66 0 126.333 13.333 181 40s102.834 62.167 144.501 106.5s76.5 95.333 104.5 153s48.667 117.834 62 180.501zM1029 665.004c-19.333 -2 -37.333 -8.66602 -54 -19.999s-32 -25.833 -46 -43.5s-26.5 -37.334 -37.5 -59.001
s-20.167 -43.667 -27.5 -66s-13 -44.166 -17 -65.499s-6 -40 -6 -56c0 -42.667 9.66699 -75.667 29 -99v1c11.333 -14.667 25.833 -26.834 43.5 -36.501s36 -17.5 55 -23.5s37.667 -10.333 56 -13s34.166 -4.66699 47.499 -6c40 -2 77.333 -3 112 -3
c18.667 0 39.5 0.333008 62.5 1s41.167 1.66699 54.5 3c-2 46.667 -7.33301 91 -16 133s-19.5 80.5 -32.5 115.5s-27.667 66.667 -44 95s-33.166 52.5 -50.499 72.5c-8 8 -16.667 16.167 -26 24.5s-19.5 15.833 -30.5 22.5s-22.5 12.167 -34.5 16.5s-24.667 6.5 -38 6.5z
M970.999 1166l-146 -146l-148 147l146 147zM1326 1164l-145 -146l-148 148l146 146z" />
    <glyph glyph-name="uni0643" unicode="&#x643;" horiz-adv-x="2003" arabic-form="isolated" 
d="M1842 954c1.33301 -36 2.50293 -69.502 3.50293 -100.502s2.16699 -60.5 3.5 -88.5c2.66699 -65.333 4.5 -119.166 5.5 -161.499s1.5 -74.166 1.5 -95.499c-0.666992 -32 -4.33398 -63.833 -11.001 -95.5s-18.334 -63.167 -35.001 -94.5
c-25.333 -48.667 -61.333 -91.667 -108 -129s-101.667 -68.666 -165 -93.999c-72.667 -26.667 -156.667 -47.667 -252 -63s-200 -23 -314 -23c-116 1.33301 -222 9.16602 -318 23.499s-179.333 34.166 -250 59.499c-64.667 25.333 -120 56.333 -166 93
s-80.333 78.667 -103 126c-26.667 50.667 -40 107 -40 169c0 29.333 3.33301 60.166 10 92.499s16 64.5 28 96.5c13.333 34 27 63.833 41 89.5s25.333 45.167 34 58.5l126 -94c-4 -5.33301 -6.33301 -8.66602 -7 -9.99902l-6 -12l1 1
c-7.33301 -12.667 -14.833 -26.834 -22.5 -42.501s-14.834 -32.5 -21.501 -50.5c-16.667 -45.333 -25 -88 -25 -128c0 -17.333 2 -34.5 6 -51.5s9.33301 -32.5 16 -46.5c18.667 -33.333 48.167 -63.166 88.5 -89.499s90.166 -48.666 149.499 -66.999
s127.5 -32.666 204.5 -42.999s161.833 -15.5 254.5 -15.5c108.667 0 204.834 5.83301 288.501 17.5s156.5 29.834 218.5 54.501c94 38 158.333 89 193 153l-1 -1c11.333 20.667 19 41.5 23 62.5s6.33301 41.833 7 62.5l-2.5 72.5c-1 29 -2.16699 62 -3.5 99
s-3 77.333 -5 121s-4 90.167 -6 139.5c-2 60 -4.66699 118 -8 174s-6.5 107 -9.5 153s-5.83301 86.167 -8.5 120.5s-5 60.166 -7 77.499l156 16c0.666992 -10.667 2.5 -30.834 5.5 -60.501s6.16699 -67.5 9.5 -113.5s6.83301 -99.5 10.5 -160.5
s7.16699 -128.167 10.5 -201.5zM1145 900.998c-10 1.33301 -20.665 2.99805 -31.998 4.99805c-10 2 -20.333 3.5 -31 4.5s-21.334 1.5 -32.001 1.5c-12 0 -24 -1 -36 -3s-24.333 -6 -37 -12h1c-26 -10 -47 -26.5 -63 -49.5s-24 -47.5 -24 -73.5c0 -6 0.666992 -13 2 -21
s4 -16 8 -24c5.33301 -13.333 13.166 -25.833 23.499 -37.5s22.166 -22 35.499 -31s27.833 -16 43.5 -21s32.167 -7.5 49.5 -7.5c8 0 16 0.5 24 1.5s17 3.5 27 7.5l-1 -1c16 4.66699 31.833 10.834 47.5 18.501s30.167 15.334 43.5 23.001s25.166 14.834 35.499 21.501
s17.833 12 22.5 16l53 -69c-28 -19.333 -63.333 -41 -106 -65s-94 -52.667 -154 -86l-244 -135c-8 14.667 -15 27.667 -21 39s-13 24 -21 38l210 117c-35.333 15.333 -66.166 35.166 -92.499 59.499s-45.833 50.166 -58.5 77.499c-9.33301 24 -14 50.333 -14 79
c0 22 3.33301 43.5 10 64.5s16.334 40.333 29.001 58s27.5 33.667 44.5 48s36.167 25.833 57.5 34.5c34 13.333 69 20 105 20c26 0 50.167 -2.16699 72.5 -6.5s38.5 -8.16602 48.5 -11.499z" />
    <glyph glyph-name="uni0644" unicode="&#x644;" horiz-adv-x="1472" arabic-form="isolated" 
d="M338 330c-18 -36 -34.0029 -75.666 -48.0029 -118.999c-12 -37.333 -23 -80.833 -33 -130.5s-15 -103.834 -15 -162.501c0 -46.667 6.16699 -88.667 18.5 -126s28.833 -70.333 49.5 -99s44.5 -53.5 71.5 -74.5s54.833 -38.5 83.5 -52.5s57.334 -24.667 86.001 -32
s55 -11.666 79 -12.999h-1c5.33301 -0.666992 10.666 -1 15.999 -1h16c34 0 69.5 3.66699 106.5 11s73.167 19 108.5 35s68.833 36.333 100.5 61s59.5 54.167 83.5 88.5s43 74 57 119s21 95.5 21 151.5c0 48.667 -0.666992 105.5 -2 170.5s-3 134.667 -5 209
s-4.5 151.333 -7.5 231s-6 158.5 -9 236.5s-6 153.167 -9 225.5s-5.83301 138.166 -8.5 197.499s-5 110.333 -7 153s-3.33301 73.334 -4 92.001c29.333 0.666992 55.666 1.83398 78.999 3.50098s49 3.16699 77 4.5c10 -209.333 18.667 -410.333 26 -603
c3.33301 -82 6.5 -166.167 9.5 -252.5s5.83301 -170.166 8.5 -251.499s4.66699 -157.833 6 -229.5s2 -133.834 2 -186.501c0 -78 -9.5 -147.5 -28.5 -208.5s-44.5 -114.5 -76.5 -160.5s-69 -85 -111 -117s-86.333 -58.167 -133 -78.5s-93.834 -35 -141.501 -44
s-93.167 -13.5 -136.5 -13.5h-17.5c-5.66699 0 -11.5 0.333008 -17.5 1c-39.333 2 -80.166 8.16699 -122.499 18.5s-83.666 25.166 -123.999 44.499s-78.666 43.666 -114.999 72.999s-68.333 64.166 -96 104.499s-49.5 86.333 -65.5 138s-23.667 109.834 -23 174.501
c0.666992 69.333 5.33398 131 14.001 185s18.834 100.667 30.501 140s23.5 71.5 35.5 96.5s21.667 43.167 29 54.5z" />
    <glyph glyph-name="uni0645" unicode="&#x645;" horiz-adv-x="1178" arabic-form="isolated" 
d="M153 -711l-36.002 908.001c0 8 0.666992 19.167 2 33.5s4.33301 30 9 47s11.834 34 21.501 51s23.167 31.5 40.5 43.5c10.667 9.33301 24.5 17.333 41.5 24s37.5 10 61.5 10c11.333 0 24.5 -1.33301 39.5 -4s32.167 -6.66699 51.5 -12
c9.33301 27.333 19.666 55 30.999 83s24 55.667 38 83c40 74.667 80.667 133 122 175c64 62.667 132.333 92.667 205 90c50.667 -2 96.834 -13.333 138.501 -34s77.5 -50.334 107.5 -89.001c21.333 -30.667 39.166 -67.334 53.499 -110.001s23.5 -86 27.5 -130
c0.666992 -7.33301 1 -14.5 1 -21.5v-21.5c0 -36 -3 -71.167 -9 -105.5s-15.667 -67.5 -29 -99.5c-17.333 -44 -40.5 -79.5 -69.5 -106.5s-60.167 -44.167 -93.5 -51.5c-17.333 -2 -36.833 -1.33301 -58.5 2s-46.834 9.33301 -75.501 18s-61.167 20 -97.5 34
s-77.833 30.667 -124.5 50v-1c-37.333 16 -75.166 31.5 -113.499 46.5s-73.5 27.833 -105.5 38.5c-6.66699 2 -15.667 4.66699 -27 8s-19.666 3.33301 -24.999 0c-3.33301 -4 -5.16602 -8.66699 -5.49902 -14s-0.5 -15.666 -0.5 -30.999l35 -914h-156zM610.998 302.001
c30.667 -13.333 60.666 -25.668 89.999 -37.001s56.666 -21.666 81.999 -30.999c26.667 -9.33301 48 -16 64 -20s27 -6.33301 33 -7c12 4.66699 22.5 15.667 31.5 33s16.5 36.833 22.5 58.5s10.5 43.5 13.5 65.5s4.5 40 4.5 54c0 29.333 -4 59 -12 89
c-10 35.333 -22.667 63.5 -38 84.5s-31.166 36.833 -47.499 47.5s-31.833 17.5 -46.5 20.5s-26 4.5 -34 4.5c-26.667 0.666992 -56.167 -15.333 -88.5 -48s-62.833 -77 -91.5 -133c-9.33301 -18.667 -18.666 -39 -27.999 -61s-21.333 -51.333 -36 -88z" />
    <glyph glyph-name="uni0646" unicode="&#x646;" horiz-adv-x="1592" arabic-form="isolated" 
d="M767 -668c-99.333 2 -188.505 16.999 -267.505 44.999s-146.167 68 -201.5 120s-97.666 115.833 -126.999 191.5s-44 162.167 -44 259.5c0 51.333 4.5 103.5 13.5 156.5s21 104.5 36 154.5s32.333 97.333 52 142s40.167 84.667 61.5 120l128 -94
c-12 -18.667 -25.667 -45 -41 -79s-29.666 -72.667 -42.999 -116s-24.666 -90 -33.999 -140s-14 -100 -14 -150c0 -30.667 2.5 -63 7.5 -97s14.167 -67.333 27.5 -100s31.5 -64 54.5 -94s52.5 -56.5 88.5 -79.5s79 -41.667 129 -56s109 -22.5 177 -24.5
c91.333 -2.66699 172.333 7.83301 243 31.5s130 58 178 103s84.5 99.5 109.5 163.5s37.5 135.667 37.5 215c0 58.667 -5.83301 115 -17.5 169s-25.667 103.667 -42 149s-33.166 85 -50.499 119s-31.666 60 -42.999 78l139 89c6 -9.33301 14.333 -23.833 25 -43.5
s22.5 -43.5 35.5 -71.5s26.167 -59.667 39.5 -95s25.333 -73.666 36 -114.999s19.5 -85 26.5 -131s10.5 -93.667 10.5 -143c0 -106 -18 -201.5 -54 -286.5s-86.333 -157 -151 -216s-141.667 -103.833 -231 -134.5s-187.333 -44 -294 -40zM965.995 640.999l-147 -147
l-148 148l147 147z" />
    <glyph glyph-name="uni0647" unicode="&#x647;" horiz-adv-x="974" arabic-form="isolated" 
d="M485 16c-3.33301 0 -11.167 0.333008 -23.5 1s-28 2.5 -47 5.5s-40 7.5 -63 13.5s-46.5 14.667 -70.5 26c-59.333 28 -104.5 65.667 -135.5 113s-46.5 103.333 -46.5 168c0 56.667 13.333 115.667 40 177s66 123.666 118 186.999c20.667 24.667 43 48.834 67 72.501
s45.667 44.5 65 62.5c-19.333 16.667 -34 29.667 -44 39s-17.167 16.333 -21.5 21s-6.83301 7.33398 -7.5 8.00098s-1.33398 0.666992 -2.00098 0l107 114c8.66699 -8 20.834 -19 36.501 -33s33.167 -30.333 52.5 -49s39.833 -38.834 61.5 -60.501
s42.834 -43.834 63.501 -66.501c78 -89.333 137.167 -174 177.5 -254s60.5 -152.667 60.5 -218c0 -64.667 -14.333 -120.667 -43 -168s-70.334 -84.666 -125.001 -111.999c-20.667 -10 -41.5 -18 -62.5 -24s-41.167 -10.833 -60.5 -14.5s-37.333 -6 -54 -7
s-31 -1.5 -43 -1.5zM472.999 719c-20 -17.333 -43.334 -40.166 -70.001 -68.499s-52 -59.333 -76 -93s-44.333 -69 -61 -106s-25 -72.833 -25 -107.5c0 -22.667 7.83301 -46.667 23.5 -72s43.834 -47.666 84.501 -66.999h-1c14 -6.66699 28 -12 42 -16s27.167 -7 39.5 -9
s23.333 -3.33301 33 -4s17.167 -1 22.5 -1c6.66699 0 15.667 0.166992 27 0.5s23.833 1.5 37.5 3.5s28 4.83301 43 8.5s29.167 8.83398 42.5 15.501c28.667 15.333 51.667 33.166 69 53.499s26 47.5 26 81.5c0 22.667 -5.5 48.167 -16.5 76.5s-26.333 58.666 -46 90.999
s-43.167 66.166 -70.5 101.499s-57.333 71 -90 107l-18 20z" />
    <glyph glyph-name="uni0648" unicode="&#x648;" horiz-adv-x="1051" arabic-form="isolated" 
d="M518 670c-16 0 -32.1689 -4.66699 -48.502 -14s-32 -21.833 -47 -37.5s-29 -33.834 -42 -54.501s-24.167 -42.5 -33.5 -65.5s-16.666 -46.167 -21.999 -69.5s-8 -45.666 -8 -66.999c0 -22 3.5 -42 10.5 -60s15.5 -33.333 25.5 -46v1
c21.333 -20.667 44.833 -36.5 70.5 -47.5s52 -18.833 79 -23.5s54 -7.16699 81 -7.5s52.833 -0.5 77.5 -0.5c21.333 0 44.333 0.5 69 1.5s44.667 2.16699 60 3.5c-2 46.667 -7.33301 90.834 -16 132.501s-19.5 80.167 -32.5 115.5s-27.667 67.166 -44 95.499
s-33.5 52.5 -51.5 72.5c-7.33301 8 -15.666 16.167 -24.999 24.5s-19.5 16 -30.5 23s-22.5 12.667 -34.5 17s-24.667 6.5 -38 6.5zM100.998 -525c101.333 22 192.501 52.665 273.501 91.998s150.5 83.5 208.5 132.5s104 101.167 138 156.5s55 110 63 164h-77
c-38.667 -2 -80.834 -1.5 -126.501 1.5s-90 9.66699 -133 20s-82.667 25 -119 44s-64.5 43.833 -84.5 74.5v-1c-21.333 27.333 -36.833 58 -46.5 92s-14.5 70 -14.5 108c0 30.667 3.16699 61.834 9.5 93.501s14.666 62.834 24.999 93.501s22.666 59.667 36.999 87
s29.5 52 45.5 74c30.667 38 65 67.5 103 88.5s76.333 31.5 115 31.5c88.667 0 170.667 -40.667 246 -122v1c28.667 -32 54.334 -68.167 77.001 -108.5s42 -83.5 58 -129.5s28.167 -94.167 36.5 -144.5s12.5 -101.5 12.5 -153.5c0 -75.333 -10.167 -147.166 -30.5 -215.499
s-48.666 -132 -84.999 -191s-79.666 -113 -129.999 -162s-105.5 -92.333 -165.5 -130s-123.833 -69.334 -191.5 -95.001s-136.834 -44.167 -207.501 -55.5z" />
    <glyph glyph-name="uni0649" unicode="&#x649;" horiz-adv-x="1733" arabic-form="isolated" 
d="M1375 812c18.667 4 36.6729 6.8291 54.0059 8.49609s34 2.5 50 2.5c24.667 0 48.167 -1.5 70.5 -4.5s42.833 -6.66699 61.5 -11s35.334 -9 50.001 -14s26.667 -9.16699 36 -12.5c-6.66699 -14 -13 -27 -19 -39s-11.667 -23.667 -17 -35s-10.833 -22.833 -16.5 -34.5
s-11.834 -24.5 -18.501 -38.5c-14 5.33301 -33.667 10.833 -59 16.5s-53.333 8.5 -84 8.5c-12 0 -24.333 -0.5 -37 -1.5s-25 -2.83301 -37 -5.5h2c-26.667 -2.66699 -54 -10.334 -82 -23.001s-55.5 -29.167 -82.5 -49.5s-52.5 -43.5 -76.5 -69.5s-45.167 -53.667 -63.5 -83
s-32.833 -59.333 -43.5 -90s-16 -60.667 -16 -90c0 -23.333 3.33301 -45.333 10 -66c7.33301 -21.333 19.166 -39.166 35.499 -53.499s35.5 -26.666 57.5 -36.999s46.167 -19.166 72.5 -26.499s53.166 -14 80.499 -20c34.667 -8 69.667 -17.333 105 -28
s67 -24.834 95 -42.501s50.833 -40.5 68.5 -68.5s26.5 -63.667 26.5 -107c0 -18.667 -2 -40 -6 -64v1c-11.333 -62.667 -39.333 -120 -84 -172s-104.334 -96.667 -179.001 -134c-72 -36.667 -153.833 -64.5 -245.5 -83.5s-191.167 -28.5 -298.5 -28.5
c-122 0 -230.5 18 -325.5 54s-172.5 86.667 -232.5 152c-42 49.333 -74.5 106.333 -97.5 171s-34.5 133.334 -34.5 206.001c0 15.333 0.5 31.166 1.5 47.499s2.5 32.833 4.5 49.5c8 56.667 18.833 115.834 32.5 177.501s28 119.667 43 174s29 102.333 42 144
s22.5 71.167 28.5 88.5c26.667 -9.33301 52.667 -18.666 78 -27.999s50.333 -18.333 75 -27c-14 -42.667 -27.667 -87 -41 -133s-26 -92.5 -38 -139.5s-22.833 -93.833 -32.5 -140.5s-17.834 -91.667 -24.501 -135c-1.33301 -11.333 -2.5 -23.666 -3.5 -36.999
s-1.5 -27 -1.5 -41c0 -21.333 1.66699 -43.5 5 -66.5s8.66602 -46.167 15.999 -69.5s16.833 -46.166 28.5 -68.499s25.5 -43.166 41.5 -62.499c45.333 -48 105.166 -85.167 179.499 -111.5s159.5 -39.5 255.5 -39.5c98 0 186 8 264 24s144.833 37.333 200.5 64s99 57 130 91
s48.167 69 51.5 105c1.33301 16 -3 29.833 -13 41.5s-23.667 22.167 -41 31.5s-37.333 17.333 -60 24s-45.334 13 -68.001 19c-33.333 8.66699 -68.666 18.667 -105.999 30s-72.5 26.166 -105.5 44.499s-61.667 41.166 -86 68.499s-40.5 61 -48.5 101
c-6.66699 33.333 -10 66.666 -10 99.999c0 68 12.5 134 37.5 198s59.167 122.333 102.5 175s94.333 97.834 153 135.501s121.667 63.5 189 77.5z" />
    <glyph glyph-name="uni064A" unicode="&#x64a;" horiz-adv-x="1781" arabic-form="isolated" 
d="M1375 812c18.667 4 36.6729 6.8291 54.0059 8.49609s34 2.5 50 2.5c24.667 0 48.167 -1.5 70.5 -4.5s42.833 -6.66699 61.5 -11s35.334 -9 50.001 -14s26.667 -9.16699 36 -12.5c-6.66699 -14 -13 -27 -19 -39s-11.667 -23.667 -17 -35s-10.833 -22.833 -16.5 -34.5
s-11.834 -24.5 -18.501 -38.5c-14 5.33301 -33.667 10.833 -59 16.5s-53.333 8.5 -84 8.5c-12 0 -24.333 -0.5 -37 -1.5s-25 -2.83301 -37 -5.5h2c-26.667 -2.66699 -54 -10.334 -82 -23.001s-55.5 -29.167 -82.5 -49.5s-52.5 -43.5 -76.5 -69.5s-45.167 -53.667 -63.5 -83
s-32.833 -59.333 -43.5 -90s-16 -60.667 -16 -90c0 -23.333 3.33301 -45.333 10 -66c7.33301 -21.333 19.166 -39.166 35.499 -53.499s35.5 -26.666 57.5 -36.999s46.167 -19.166 72.5 -26.499s53.166 -14 80.499 -20c34.667 -8 69.667 -17.333 105 -28
s67 -24.834 95 -42.501s50.833 -40.5 68.5 -68.5s26.5 -63.667 26.5 -107c0 -18.667 -2 -40 -6 -64v1c-11.333 -62.667 -39.333 -120 -84 -172s-104.334 -96.667 -179.001 -134c-72 -36.667 -153.833 -64.5 -245.5 -83.5s-191.167 -28.5 -298.5 -28.5
c-122 0 -230.5 18 -325.5 54s-172.5 86.667 -232.5 152c-42 49.333 -74.5 106.333 -97.5 171s-34.5 133.334 -34.5 206.001c0 15.333 0.5 31.166 1.5 47.499s2.5 32.833 4.5 49.5c8 56.667 18.833 115.834 32.5 177.501s28 119.667 43 174s29 102.333 42 144
s22.5 71.167 28.5 88.5c26.667 -9.33301 52.667 -18.666 78 -27.999s50.333 -18.333 75 -27c-14 -42.667 -27.667 -87 -41 -133s-26 -92.5 -38 -139.5s-22.833 -93.833 -32.5 -140.5s-17.834 -91.667 -24.501 -135c-1.33301 -11.333 -2.5 -23.666 -3.5 -36.999
s-1.5 -27 -1.5 -41c0 -21.333 1.66699 -43.5 5 -66.5s8.66602 -46.167 15.999 -69.5s16.833 -46.166 28.5 -68.499s25.5 -43.166 41.5 -62.499c45.333 -48 105.166 -85.167 179.499 -111.5s159.5 -39.5 255.5 -39.5c98 0 186 8 264 24s144.833 37.333 200.5 64s99 57 130 91
s48.167 69 51.5 105c1.33301 16 -3 29.833 -13 41.5s-23.667 22.167 -41 31.5s-37.333 17.333 -60 24s-45.334 13 -68.001 19c-33.333 8.66699 -68.666 18.667 -105.999 30s-72.5 26.166 -105.5 44.499s-61.667 41.166 -86 68.499s-40.5 61 -48.5 101
c-6.66699 33.333 -10 66.666 -10 99.999c0 68 12.5 134 37.5 198s59.167 122.333 102.5 175s94.333 97.834 153 135.501s121.667 63.5 189 77.5zM773.006 -993.004l-146 -146l-148 147l146 147zM1128.01 -995.004l-145 -146l-148 148l146 146z" />
    <glyph glyph-name="uni066E.init" unicode="&#x66e;" horiz-adv-x="700" 
d="M-85 98c0 22 7.66602 40.5068 22.999 55.5068s33.666 22.5 54.999 22.5h103c7.33301 0 14.833 -0.166992 22.5 -0.5s15.167 -0.5 22.5 -0.5c32 0 62.833 1.66699 92.5 5s57 9.66602 82 18.999s47.167 22.666 66.5 39.999s35.333 39.666 48 66.999v-1
c10.667 22 16 51.333 16 88c0 62.667 -14.667 141 -44 235c-5.33301 16.667 -11.833 34.667 -19.5 54s-15.167 38.166 -22.5 56.499s-14.5 35.166 -21.5 50.499s-12.5 27.666 -16.5 36.999l142 71c4 -9.33301 9.33301 -21.333 16 -36s14 -31.667 22 -51
s16.167 -40.333 24.5 -63s16.5 -46.334 24.5 -71.001c17.333 -54 30.333 -104.333 39 -151s13 -90 13 -130c0 -58.667 -9.33301 -109.667 -28 -153c-23.333 -48.667 -55.166 -90.5 -95.499 -125.5s-88.5 -60.167 -144.5 -75.5c-34.667 -10 -68.5 -16 -101.5 -18
s-64.5 -3 -94.5 -3h-146c-21.333 0 -39.666 7.5 -54.999 22.5s-23 33.5 -23 55.5z" />
    <glyph glyph-name="uni066E.medi" unicode="&#x66e;" horiz-adv-x="705" 
d="M-74 98c0 21.333 7.50098 39.6641 22.501 54.9971s33.5 23 55.5 23h17c118.667 0 206 21.167 262 63.5s84 106.5 84 192.5c0 18 -0.833008 35.5 -2.5 52.5s-4.16699 34.667 -7.5 53s-7.33301 37.833 -12 58.5s-10.334 43.334 -17.001 68.001
c28 7.33301 53.167 14.5 75.5 21.5s46.833 14.167 73.5 21.5c15.333 -57.333 27.166 -109.5 35.499 -156.5s13.166 -91.833 14.499 -134.5c1.33301 -38 4.16602 -71.833 8.49902 -101.5s12.666 -54.667 24.999 -75s29.833 -36 52.5 -47s53 -16.5 91 -16.5
c21.333 0 39.833 -7.66699 55.5 -23s23.5 -33.666 23.5 -54.999c0 -22 -7.66699 -40.5 -23 -55.5s-33.666 -22.5 -54.999 -22.5c-32 0 -61.167 3.33301 -87.5 10s-50.666 15.834 -72.999 27.501s-42.666 25.667 -60.999 42s-35.166 34.5 -50.499 54.5
c-46 -44.667 -102.5 -78.167 -169.5 -100.5s-147.833 -33.5 -242.5 -33.5h-17c-22 0 -40.5 7.5 -55.5 22.5s-22.5 33.5 -22.5 55.5z" />
    <glyph glyph-name="uni066E.fina" unicode="&#x66e;" horiz-adv-x="2316" 
d="M1938 177c-25.333 30 -48.333 74.3359 -69 133.003c-187.333 -195.333 -467.666 -293 -840.999 -293c-199.333 1.33301 -364 24.666 -494 69.999s-224 117 -282 215c-23.333 38.667 -39.833 78.667 -49.5 120s-14.5 82.333 -14.5 123c0 25.333 1.66699 50.166 5 74.499
s7.66602 47.166 12.999 68.499c11.333 46.667 23.333 86.334 36 119.001s22.667 56.667 30 72c25.333 -14 48.666 -27.167 69.999 -39.5s44.333 -25.166 69 -38.499c-4 -10 -10 -23.333 -18 -40s-15.667 -35.834 -23 -57.501s-13.833 -45 -19.5 -70s-8.5 -50.5 -8.5 -76.5
c0 -27.333 3.33301 -55.333 10 -84s17.334 -55.667 32.001 -81c21.333 -34.667 51.5 -65.334 90.5 -92.001s85.833 -49.167 140.5 -67.5s116.667 -32.333 186 -42s145 -14.5 227 -14.5c148.667 0 276.167 13.333 382.5 40s194.5 68.667 264.5 126l-1 -1
c30 24 56.167 50 78.5 78s41.5 57 57.5 87s29.667 60.167 41 90.5s21.333 60.166 30 89.499c28 -7.33301 53.667 -14.333 77 -21s48.333 -13.667 75 -21c-3.33301 -13.333 -6.33301 -25.5 -9 -36.5s-6 -25.5 -10 -43.5c-8 -39.333 -11.667 -74.333 -11 -105
c1.33301 -30 6 -61.667 14 -95s23.333 -63.666 46 -90.999l-1 1c52 -65.333 136.667 -98 254 -98c22 0 40.667 -7.5 56 -22.5s23 -33.5 23 -55.5s-7.66699 -40.5 -23 -55.5s-34 -22.5 -56 -22.5h-8c-167.333 2 -290.333 54 -369 156z" />
    <glyph glyph-name="uni066F.init" unicode="&#x66f;" horiz-adv-x="895" 
d="M428 947c-11.333 0 -25.6641 -4.49707 -42.9971 -13.4971s-34.833 -22.667 -52.5 -41s-33.834 -41.333 -48.501 -69s-25 -59.834 -31 -96.501v1c-2 -10.667 -3.33301 -21.834 -4 -33.501s-0.166992 -23.334 1.5 -35.001s4.33398 -22.667 8.00098 -33
s9.16699 -19.5 16.5 -27.5h-1c7.33301 -9.33301 17.833 -18 31.5 -26s29.167 -15.167 46.5 -21.5s35.833 -11.5 55.5 -15.5s39.167 -6.66699 58.5 -8c17.333 -1.33301 34 -2 50 -2h46c14 0 30.167 0.166992 48.5 0.5s38.5 1.5 60.5 3.5
c-2.66699 36 -7.83398 71.333 -15.501 106s-17.334 67.5 -29.001 98.5s-25.167 59.5 -40.5 85.5s-32 48.667 -50 68v-1c-6 6.66699 -13 13.5 -21 20.5s-16.5 13.5 -25.5 19.5s-18.833 10.833 -29.5 14.5s-21.334 5.5 -32.001 5.5zM-80.998 98.0029
c0 22 7.83496 40.5029 23.502 55.5029s34.5 22.5 56.5 22.5c93.333 0 175.5 3.16699 246.5 9.5s133 17 186 32s98 34.833 135 59.5s68.167 55 93.5 91h-154c-34 0 -67.167 2.83301 -99.5 8.5s-62.833 14 -91.5 25s-54.834 24.333 -78.501 40s-43.834 33.5 -60.501 53.5
c-12 10 -22 24.833 -30 44.5s-14.333 41.5 -19 65.5s-7.16699 48.667 -7.5 74s1.16699 48.666 4.5 69.999c8.66699 48.667 21.834 93.667 39.501 135s38.834 78 63.501 110c28 36.667 59.167 64.334 93.5 83.001s70.166 28 107.499 28c82 0 157 -37 225 -111
c26 -28.667 49.333 -61.334 70 -98.001s38.167 -75.834 52.5 -117.501s25.333 -85.167 33 -130.5s11.5 -91 11.5 -137c0 -66 -10 -124.167 -30 -174.5s-47.833 -93.833 -83.5 -130.5s-78.334 -67 -128.001 -91s-104.334 -43.167 -164.001 -57.5s-123.5 -24.333 -191.5 -30
s-137.667 -8.16699 -209 -7.5h-17c-21.333 0 -39.666 7.66699 -54.999 23s-23 33.666 -23 54.999z" />
    <glyph glyph-name="uni066F.medi" unicode="&#x66f;" horiz-adv-x="1019" 
d="M508 761c-20 0 -42.334 -5.50098 -67.001 -16.501s-47.834 -27.667 -69.501 -50s-39.667 -50.166 -54 -83.499s-21.5 -72 -21.5 -116c0 -18 5 -37.833 15 -59.5s24.5 -43.5 43.5 -65.5s42.333 -43.333 70 -64s59.167 -39 94.5 -55c28.667 12.667 53.834 28.667 75.501 48
s40 40.5 55 63.5s26.333 46.833 34 71.5s11.5 48.667 11.5 72c0 32 -5.66699 63.333 -17 94s-26 58 -44 82s-38.167 43.167 -60.5 57.5s-44.166 21.5 -65.499 21.5zM-78.001 97.999c0 22.667 7.50488 41.3301 22.5049 55.9971s33.5 22 55.5 22c24 0 49.167 0.5 75.5 1.5
s53 2.33301 80 4s53.5 3.83398 79.5 6.50098s50.667 5.66699 74 9c-26 22.667 -48.667 46.5 -68 71.5s-35.5 50.167 -48.5 75.5s-22.667 50.5 -29 75.5s-9.5 49.167 -9.5 72.5c0 50 8.83301 100 26.5 150s42.167 95.167 73.5 135.5s68.666 73.333 111.999 99
s91 39.5 143 41.5c52.667 -3.33301 99.667 -16.5 141 -39.5s76.166 -52.333 104.499 -88s49.833 -76.167 64.5 -121.5s22 -91.666 22 -138.999c0 -54 -11 -108.833 -33 -164.5s-56 -108.5 -102 -158.5c51.333 -10.667 104.666 -18.5 159.999 -23.5s106 -7.5 152 -7.5
c22.667 0 41.5 -7.33301 56.5 -22s22.5 -33.334 22.5 -56.001c0 -22 -7.5 -40.5 -22.5 -55.5s-33.833 -22.5 -56.5 -22.5h-9c-20 0 -41 0.333008 -63 1s-44.333 1.83398 -67 3.50098s-44.834 3.5 -66.501 5.5s-42.167 4.66699 -61.5 8
c-40.667 6.66699 -79.834 14.334 -117.501 23.001s-74.5 19 -110.5 31c-31.333 -12 -66.333 -22.5 -105 -31.5s-80 -16.5 -124 -22.5s-90.167 -10.5 -138.5 -13.5s-97.5 -4.5 -147.5 -4.5h-8c-22 0 -40.5 7.5 -55.5 22.5s-22.5 33.5 -22.5 55.5z" />
    <glyph glyph-name="uni066F.fina" unicode="&#x66f;" horiz-adv-x="1570" 
d="M1022 668c-30 0 -61.333 -20.334 -94 -61.001l1 1c-20.667 -25.333 -39.334 -55.333 -56.001 -90s-28.667 -72.334 -36 -113.001c-1.33301 -9.33301 -2.33301 -18.166 -3 -26.499s-1 -16.833 -1 -25.5c0 -20 2.33301 -38.5 7 -55.5s12 -31.5 22 -43.5
c11.333 -14 25.833 -25.5 43.5 -34.5s36 -16.167 55 -21.5s37.667 -9.33301 56 -12s33.833 -4.66699 46.5 -6c32 -1.33301 62.333 -2.33301 91 -3s54.667 -1 78 -1h62c-2 47.333 -7.33301 92.166 -16 134.499s-19.5 81.333 -32.5 117s-27.667 67.834 -44 96.501
s-33.5 53.334 -51.5 74.001c-7.33301 8 -15.5 16 -24.5 24s-19 15.5 -30 22.5s-22.667 12.667 -35 17s-25.166 6.5 -38.499 6.5zM1232 16.999c-25.333 0 -52.835 0.503906 -82.502 1.50391s-61.5 2.5 -95.5 4.5c-68 5.33301 -128 19.666 -180 42.999s-94 54 -126 92
c-19.333 26.667 -34.833 56.834 -46.5 90.501s-17.5 68.834 -17.5 105.501c0 23.333 2.66699 50.333 8 81c8.66699 53.333 22.5 102.833 41.5 148.5s42.5 85.834 70.5 120.501c64 81.333 136.667 122 218 122c89.333 0 171 -40.667 245 -122c28 -30.667 53 -65.5 75 -104.5
s40.667 -81 56 -126s27.5 -92.5 36.5 -142.5s14.5 -101 16.5 -153c13.333 -0.666992 31.5 -1.16699 54.5 -1.5s44.833 -0.5 65.5 -0.5c21.333 0 39.833 -7.5 55.5 -22.5s23.5 -33.5 23.5 -55.5c0 -21.333 -7.83301 -39.666 -23.5 -54.999s-34.167 -23 -55.5 -23h-9h-122
c-3.33301 -18 -7.33301 -38.167 -12 -60.5s-10.667 -45.833 -18 -70.5s-15.833 -49.834 -25.5 -75.501s-20.834 -50.834 -33.501 -75.501c-53.333 -102 -122.666 -183.333 -207.999 -244h1c-108 -74 -237 -111 -387 -111c-64 0 -124 6.16699 -180 18.5
s-109 31.166 -159 56.499c-50.667 25.333 -95.167 55.666 -133.5 90.999s-71.5 76 -99.5 122c-28 47.333 -49.333 98.833 -64 154.5s-22 114.834 -22 177.501c0 8.66699 0.166992 18.167 0.5 28.5s0.833008 20.166 1.5 29.499c6.66699 69.333 22 144 46 224
s56 159.333 96 238l140 -74c-42 -81.333 -73.5 -159.5 -94.5 -234.5s-31.5 -145.833 -31.5 -212.5c0 -94.667 21 -177.334 63 -248.001c42 -68.667 100 -121.167 174 -157.5s161.667 -54.5 263 -54.5c102.667 0 191.834 23 267.501 69s136.834 110.667 183.501 194
c18 33.333 33 69.166 45 107.499s21.333 73.166 28 104.499h-49z" />
    <glyph glyph-name="uni0671" unicode="&#x671;" horiz-adv-x="573" arabic-form="isolated" 
d="M147 23c4.66699 72 8.50195 139.999 11.502 203.999s5 126.5 6 187.5s1.33301 121.667 1 182s-0.833008 123.5 -1.5 189.5c-1.33301 54.667 -3 105.334 -5 152.001s-4.66699 87.334 -8 122.001c-4.66699 62 -9.33398 125.5 -14.001 190.5s-11.334 129.5 -20.001 193.5
c28.667 4.66699 54.5 7.83398 77.5 9.50098s48.5 4.16699 76.5 7.5c6 -44 11.5 -89.833 16.5 -137.5s9.5 -95.834 13.5 -144.501s7.33301 -97.167 10 -145.5s5 -95.166 7 -140.499c1.33301 -45.333 2.5 -93 3.5 -143s1.5 -103 1.5 -159
c0 -86.667 -1.33301 -177.834 -4 -273.501s-7.66699 -196.834 -15 -303.501zM199.002 1635c18 -2 38.332 -3.16797 60.999 -3.50098s45.5 0.833984 68.5 3.50098s45.167 7.16699 66.5 13.5s39 15.5 53 27.5c17.333 15.333 27 34.333 29 57
c0 9.33301 -2.16699 17.666 -6.5 24.999s-8.16602 12.666 -11.499 15.999c-13.333 14 -27.333 21.833 -42 23.5s-28 1.5 -40 -0.5c-18 -3.33301 -35.833 -9.5 -53.5 -18.5s-34.167 -21.167 -49.5 -36.5c-19.333 -19.333 -35.333 -39.166 -48 -59.499
s-21.667 -36.166 -27 -47.499zM-74.999 1666c17.333 8.66699 34.667 15.998 52 21.998c14.667 5.33301 29.834 9.66602 45.501 12.999s29.167 3.66602 40.5 0.999023s21.5 -6.16699 30.5 -10.5s16.833 -9.16602 23.5 -14.499c7.33301 -6 13.666 -12.333 18.999 -19
c6.66699 12.667 17.667 31.667 33 57s35.666 50.333 60.999 75c19.333 18.667 40.666 34.167 63.999 46.5s47 20.166 71 23.499c28 6 54.167 5.5 78.5 -1.5s45.166 -19.833 62.499 -38.5c12.667 -13.333 22.167 -27.666 28.5 -42.999s8.5 -31.666 6.5 -48.999
c-1.33301 -41.333 -19 -76 -53 -104c-14.667 -12 -31.167 -21.667 -49.5 -29s-37.333 -13.166 -57 -17.499s-39.667 -7.33301 -60 -9s-39.5 -2.5 -57.5 -2.5c-19.333 0 -36.666 0.666992 -51.999 2s-26.333 2.33301 -33 3c-16.667 2 -33 6.66699 -49 14
c-9.33301 4 -18.166 9.16699 -26.499 15.5s-17.166 15.833 -26.499 28.5c-10.667 8 -23.667 11 -39 9s-30 -6 -44 -12c-16.667 -7.33301 -33.667 -16.666 -51 -27.999z" />
    <glyph glyph-name="uni0672.fina" unicode="&#x672;" horiz-adv-x="569" 
d="M562 20c-70.667 0 -131.003 8.16992 -181.003 24.5029s-92 41.5 -126 75.5c-20.667 20.667 -36.5 43 -47.5 67s-19 47.667 -24 71s-7.83301 45.666 -8.5 66.999s-1 39.666 -1 54.999c0.666992 20 1.5 55 2.5 105s1.5 110 1.5 180c0 39.333 -0.166992 82.166 -0.5 128.499
s-1 92.666 -2 138.999s-2.33301 94.5 -4 144.5s-3.66699 96.333 -6 139s-5.16602 82.167 -8.49902 118.5s-7.33301 68.833 -12 97.5l156 28c5.33301 -31.333 9.83301 -66.333 13.5 -105s6.66699 -80.667 9 -126s4.33301 -94.333 6 -147s2.83398 -103.5 3.50098 -152.5
s1.16699 -98.167 1.5 -147.5s0.5 -95 0.5 -137c0 -51.333 -0.166992 -98.166 -0.5 -140.499s-0.833008 -84.5 -1.5 -126.5c-0.666992 -32 0.666016 -60.167 3.99902 -84.5s14 -45.166 32 -62.499c16.667 -16.667 40.334 -29.834 71.001 -39.501
s68.334 -14.834 113.001 -15.501h9c21.333 0 39.833 -7.66699 55.5 -23s23.5 -33.666 23.5 -54.999c0 -22 -7.83301 -40.5 -23.5 -55.5s-34.167 -22.5 -55.5 -22.5zM549.997 1914c-11.333 11.333 -23.668 21.665 -37.001 30.998c-12 8 -26.167 15.333 -42.5 22
s-35.166 10 -56.499 10c-18 0 -33.667 -3 -47 -9s-24.5 -14 -33.5 -24s-15.833 -21.667 -20.5 -35s-7 -27 -7 -41c0 -19.333 4.33301 -36.833 13 -52.5s20.167 -29 34.5 -40s30.833 -19.5 49.5 -25.5s38.334 -8.33301 59.001 -7c18 1.33301 35.333 3.16602 52 5.49902
s31.667 4.5 45 6.5c15.333 2.66699 29.333 5.33398 42 8.00098l12 -87c-17.333 -4.66699 -37 -10.5 -59 -17.5s-47.333 -12.833 -76 -17.5s-61.5 -7.16699 -98.5 -7.5s-79.5 3.83398 -127.5 12.501c-6 0.666992 -13.167 2.33398 -21.5 5.00098s-17 5.16699 -26 7.5
s-17.667 4.33301 -26 6s-15.5 2.16699 -21.5 1.5c-18.667 -1.33301 -34 -4.16602 -46 -8.49902s-22.333 -9.5 -31 -15.5s-16.5 -12.5 -23.5 -19.5s-14.833 -14.167 -23.5 -21.5l-48 65c8 7.33301 17.167 16 27.5 26s21.833 19.667 34.5 29s27 17.666 43 24.999
s33.667 12 53 14c8 1.33301 19.333 0.333008 34 -3s29.334 -7.33301 44.001 -12c17.333 -5.33301 35.666 -11.333 54.999 -18c-22 20.667 -37.5 42.334 -46.5 65.001s-13.5 48 -13.5 76c0 26.667 5 52.167 15 76.5s23.833 45.5 41.5 63.5s38.5 32.333 62.5 43
s50.333 16 79 16s54.667 -4.33301 78 -13s43.666 -18.334 60.999 -29.001c20 -12 37.667 -26 53 -42z" />
    <glyph glyph-name="uni0673.fina" unicode="&#x673;" horiz-adv-x="542" 
d="M581 20c-70.667 0 -130.999 8.16699 -180.999 24.5s-92 41.5 -126 75.5c-20.667 20.667 -36.5 43 -47.5 67s-19 47.667 -24 71s-7.83301 45.666 -8.5 66.999s-1 39.666 -1 54.999v18c0.666992 11.333 1.5 41.166 2.5 89.499s1.5 107.5 1.5 177.5
c0 24.667 -0.166992 52.667 -0.5 84s-0.833008 61 -1.5 89c0 52.667 -0.666992 108.834 -2 168.501s-3.33301 117.834 -6 174.501s-5.83398 109.667 -9.50098 159s-8.16699 90 -13.5 122l156 28c6 -35.333 11 -77 15 -125s7.16699 -99.667 9.5 -155
s4.16602 -112.833 5.49902 -172.5s2 -118.167 2 -175.5c0.666992 -38.667 1.16699 -76.167 1.5 -112.5s0.5 -71.166 0.5 -104.499c0 -51.333 -0.166992 -96.333 -0.5 -135s-0.833008 -68 -1.5 -88v-26v-18c-0.666992 -32 0.666016 -60.167 3.99902 -84.5
s14 -45.166 32 -62.499c16.667 -16.667 40.334 -29.834 71.001 -39.501s68.334 -14.834 113.001 -15.501h9c21.333 0 39.833 -7.66699 55.5 -23s23.5 -33.666 23.5 -54.999c0 -22 -7.83301 -40.5 -23.5 -55.5s-34.167 -22.5 -55.5 -22.5zM602.001 -271
c-11.333 11.333 -23.668 21.665 -37.001 30.998c-12 8 -26.167 15.333 -42.5 22s-35.166 10 -56.499 10c-18 0 -33.667 -3 -47 -9s-24.5 -14 -33.5 -24s-15.833 -21.667 -20.5 -35s-7 -27 -7 -41c0 -19.333 4.33301 -36.833 13 -52.5s20.167 -29 34.5 -40
s30.833 -19.5 49.5 -25.5s38.334 -8.33301 59.001 -7c18 1.33301 35.333 3.16602 52 5.49902s31.667 4.5 45 6.5c15.333 2.66699 29.333 5.33398 42 8.00098l12 -87c-17.333 -4.66699 -37 -10.5 -59 -17.5s-47.333 -12.833 -76 -17.5s-61.5 -7.16699 -98.5 -7.5
s-79.5 3.83398 -127.5 12.501c-6 0.666992 -13.167 2.33398 -21.5 5.00098s-17 5.16699 -26 7.5s-17.667 4.33301 -26 6s-15.5 2.16699 -21.5 1.5c-18.667 -1.33301 -34 -4.16602 -46 -8.49902s-22.333 -9.5 -31 -15.5s-16.5 -12.5 -23.5 -19.5s-14.833 -14.167 -23.5 -21.5
l-48 65c8 7.33301 17.167 16 27.5 26s21.833 19.667 34.5 29s27 17.666 43 24.999s33.667 12 53 14c8 1.33301 19.333 0.333008 34 -3s29.334 -7.33301 44.001 -12c17.333 -5.33301 35.666 -11.333 54.999 -18c-22 20.667 -37.5 42.334 -46.5 65.001s-13.5 48 -13.5 76
c0 26.667 5 52.167 15 76.5s23.833 45.5 41.5 63.5s38.5 32.333 62.5 43s50.333 16 79 16s54.667 -4.33301 78 -13s43.666 -18.334 60.999 -29.001c20 -12 37.667 -26 53 -42z" />
    <glyph glyph-name="uni0675.fina" unicode="&#x675;" horiz-adv-x="536" 
d="M537 20c-70.667 0 -131.003 8.16992 -181.003 24.5029s-92 41.5 -126 75.5c-20.667 20.667 -36.5 43 -47.5 67s-19 47.667 -24 71s-7.83301 45.666 -8.5 66.999s-1 39.666 -1 54.999c0.666992 20 1.5 55 2.5 105s1.5 110 1.5 180c0 39.333 -0.166992 82.166 -0.5 128.499
s-1 92.666 -2 138.999s-2.33301 94.5 -4 144.5s-3.66699 96.333 -6 139s-5.16602 82.167 -8.49902 118.5s-7.33301 68.833 -12 97.5l156 28c5.33301 -31.333 9.83301 -66.333 13.5 -105s6.66699 -80.667 9 -126s4.33301 -94.333 6 -147s2.83398 -103.5 3.50098 -152.5
s1.16699 -98.167 1.5 -147.5s0.5 -95 0.5 -137c0 -51.333 -0.166992 -98.166 -0.5 -140.499s-0.833008 -84.5 -1.5 -126.5c-0.666992 -32 0.666016 -60.167 3.99902 -84.5s14 -45.166 32 -62.499c16.667 -16.667 40.334 -29.834 71.001 -39.501
s68.334 -14.834 113.001 -15.501h9c21.333 0 39.833 -7.66699 55.5 -23s23.5 -33.666 23.5 -54.999c0 -22 -7.83301 -40.5 -23.5 -55.5s-34.167 -22.5 -55.5 -22.5zM766.997 1635c-10 1.33301 -20.665 2.99805 -31.998 4.99805c-10 2 -20.333 3.5 -31 4.5
s-21.334 1.5 -32.001 1.5c-12 0 -24 -1 -36 -3s-24.333 -6 -37 -12h1c-26 -10 -47 -26.5 -63 -49.5s-24 -47.5 -24 -73.5c0 -6 0.666992 -13 2 -21s4 -16 8 -24c5.33301 -13.333 13.166 -25.833 23.499 -37.5s22.166 -22 35.499 -31s27.833 -16 43.5 -21
s32.167 -7.5 49.5 -7.5c8 0 16 0.5 24 1.5s17 3.5 27 7.5l-1 -1c16 4.66699 31.833 10.834 47.5 18.501s30.167 15.334 43.5 23.001s25.166 14.834 35.499 21.501s17.833 12 22.5 16l53 -69c-28 -19.333 -63.333 -41 -106 -65s-94 -52.667 -154 -86l-244 -135
c-8 14.667 -15 27.667 -21 39s-13 24 -21 38l210 117c-35.333 15.333 -66.166 35.166 -92.499 59.499s-45.833 50.166 -58.5 77.499c-9.33301 24 -14 50.333 -14 79c0 22 3.33301 43.5 10 64.5s16.334 40.333 29.001 58s27.5 33.667 44.5 48s36.167 25.833 57.5 34.5
c34 13.333 69 20 105 20c26 0 50.167 -2.16699 72.5 -6.5s38.5 -8.16602 48.5 -11.499z" />
    <glyph glyph-name="uni0676.fina" unicode="&#x676;" horiz-adv-x="1051" 
d="M102 -525c101.333 22 192.501 52.665 273.501 91.998s150.5 83.5 208.5 132.5s104 101.167 138 156.5s55 110 63 164h-77c-24.667 0 -50.5 0.333008 -77.5 1s-53.5 2 -79.5 4c-138 9.33301 -240 54.333 -306 135v-1c-21.333 27.333 -36.833 58 -46.5 92
s-14.5 70 -14.5 108c0 30.667 3.16699 61.834 9.5 93.501s14.666 62.834 24.999 93.501s22.666 59.667 36.999 87s29.5 52 45.5 74c30.667 38 65 67.5 103 88.5s76.333 31.5 115 31.5c88.667 0 170.667 -40.667 246 -122v1c27.333 -30.667 52 -65.667 74 -105
s40.833 -81.833 56.5 -127.5s28.167 -93.667 37.5 -144s14.666 -101.5 15.999 -153.5h94c22 0 40.833 -7.5 56.5 -22.5s23.5 -33.833 23.5 -56.5c0 -21.333 -7.83301 -39.5 -23.5 -54.5s-34.5 -22.5 -56.5 -22.5h-107c-19.333 -97.333 -54.333 -185.5 -105 -264.5
s-111.667 -148 -183 -207s-150.666 -107.667 -237.999 -146s-177.666 -65.5 -270.999 -81.5zM519.001 669.998c-24.667 0 -49 -10.166 -73 -30.499s-45.5 -45.666 -64.5 -75.999s-34.5 -63.5 -46.5 -99.5s-18 -70 -18 -102c0 -22 3.33301 -42 10 -60s15 -33.333 25 -46v1
c11.333 -14.667 26.166 -26.667 44.499 -36s37.5 -16.833 57.5 -22.5s39.5 -9.83398 58.5 -12.501s35.167 -4.33398 48.5 -5.00098c37.333 -2 76.5 -3 117.5 -3s78.5 1.66699 112.5 5c-2 46.667 -7.33301 90.834 -16 132.501s-19.5 80.167 -32.5 115.5
s-27.667 67.166 -44 95.499s-33.5 52.5 -51.5 72.5c-7.33301 8 -15.666 16.167 -24.999 24.5s-19.5 16 -30.5 23s-22.5 12.667 -34.5 17s-24.667 6.5 -38 6.5zM1235 1239c-10 1.33301 -20.665 2.99805 -31.998 4.99805c-10 2 -20.333 3.5 -31 4.5s-21.334 1.5 -32.001 1.5
c-12 0 -24 -1 -36 -3s-24.333 -6 -37 -12h1c-26 -10 -47 -26.5 -63 -49.5s-24 -47.5 -24 -73.5c0 -6 0.666992 -13 2 -21s4 -16 8 -24c5.33301 -13.333 13.166 -25.833 23.499 -37.5s22.166 -22 35.499 -31s27.833 -16 43.5 -21s32.167 -7.5 49.5 -7.5c8 0 16 0.5 24 1.5
s17 3.5 27 7.5l-1 -1c16 4.66699 31.833 10.834 47.5 18.501s30.167 15.334 43.5 23.001s25.166 14.834 35.499 21.501s17.833 12 22.5 16l53 -69c-28 -19.333 -63.333 -41 -106 -65s-94 -52.667 -154 -86l-244 -135c-8 14.667 -15 27.667 -21 39s-13 24 -21 38l210 117
c-35.333 15.333 -66.166 35.166 -92.499 59.499s-45.833 50.166 -58.5 77.499c-9.33301 24 -14 50.333 -14 79c0 22 3.33301 43.5 10 64.5s16.334 40.333 29.001 58s27.5 33.667 44.5 48s36.167 25.833 57.5 34.5c34 13.333 69 20 105 20c26 0 50.167 -2.16699 72.5 -6.5
s38.5 -8.16602 48.5 -11.499z" />
    <glyph glyph-name="uni0677.fina" unicode="&#x677;" horiz-adv-x="1078" 
d="M133 -525c101.333 22 192.501 52.665 273.501 91.998s150.5 83.5 208.5 132.5s104 101.167 138 156.5s55 110 63 164h-77c-24.667 0 -50.5 0.333008 -77.5 1s-53.5 2 -79.5 4c-138 9.33301 -240 54.333 -306 135v-1c-21.333 27.333 -36.833 58 -46.5 92
s-14.5 70 -14.5 108c0 30.667 3.16699 61.834 9.5 93.501s14.666 62.834 24.999 93.501s22.666 59.667 36.999 87s29.5 52 45.5 74c30.667 38 65 67.5 103 88.5s76.333 31.5 115 31.5c88.667 0 170.667 -40.667 246 -122v1c27.333 -30.667 52 -65.667 74 -105
s40.833 -81.833 56.5 -127.5s28.167 -93.667 37.5 -144s14.666 -101.5 15.999 -153.5h94c22 0 40.833 -7.5 56.5 -22.5s23.5 -33.833 23.5 -56.5c0 -21.333 -7.83301 -39.5 -23.5 -54.5s-34.5 -22.5 -56.5 -22.5h-107c-19.333 -97.333 -54.333 -185.5 -105 -264.5
s-111.667 -148 -183 -207s-150.666 -107.667 -237.999 -146s-177.666 -65.5 -270.999 -81.5zM550.001 669.998c-24.667 0 -49 -10.166 -73 -30.499s-45.5 -45.666 -64.5 -75.999s-34.5 -63.5 -46.5 -99.5s-18 -70 -18 -102c0 -22 3.33301 -42 10 -60s15 -33.333 25 -46v1
c11.333 -14.667 26.166 -26.667 44.499 -36s37.5 -16.833 57.5 -22.5s39.5 -9.83398 58.5 -12.501s35.167 -4.33398 48.5 -5.00098c37.333 -2 76.5 -3 117.5 -3s78.5 1.66699 112.5 5c-2 46.667 -7.33301 90.834 -16 132.501s-19.5 80.167 -32.5 115.5
s-27.667 67.166 -44 95.499s-33.5 52.5 -51.5 72.5c-7.33301 8 -15.666 16.167 -24.999 24.5s-19.5 16 -30.5 23s-22.5 12.667 -34.5 17s-24.667 6.5 -38 6.5zM71.001 1235c26 21.333 52 31.999 78 31.999c18.667 0 34 -6.33301 46 -19c28 -29.333 43 -67.333 45 -114
c2.66699 -40.667 -4.66602 -80 -21.999 -118l-96 42l-11 5l-17 9l-18 9c-12.667 6.66699 -23 14 -31 22c-20.667 18.667 -27.334 41.334 -20.001 68.001c6 22.667 21.333 44 46 64zM286.001 991.998c18.667 40.667 27.9961 86.001 27.9961 136.001
c-0.666992 50 -10.667 93 -30 129c-4 6.66699 -8 13 -12 19c-6 8.66699 -12.333 16.334 -19 23.001c-18 18.667 -37.333 30.334 -58 35.001c-14 3.33301 -27.667 5 -41 5c-32 0 -62 -7.66699 -90 -23c-38 -20.667 -68 -50.667 -90 -90
c-25.333 -44.667 -29.666 -86.667 -12.999 -126c14.667 -34.667 44.667 -65.334 90 -92.001c16.667 -10 36.667 -20.333 60 -31l31 -13l15 -5l14 -6l2 -1c-111.333 -75.333 -222.666 -129 -333.999 -161l-3 -1l26 -71h2c8 1.33301 36 12 84 32
c16.667 7.33301 33.667 14.666 51 21.999c15.333 6.66699 25 11 29 13c70 32.667 128.333 68 175 106c4.66699 4 12.334 10.667 23.001 20c3.33301 3.33301 7.33301 6.66602 12 9.99902l4 4l3 3c4 -1.33301 13 -5 27 -11c4.66699 -1.33301 9.33398 -3 14.001 -5l3 -1l2 -1
l1 -1v0l3 -1l26 68zM1257 1234c-10 1.33301 -20.665 2.99805 -31.998 4.99805c-10 2 -20.333 3.5 -31 4.5s-21.334 1.5 -32.001 1.5c-12 0 -24 -1 -36 -3s-24.333 -6 -37 -12h1c-26 -10 -47 -26.5 -63 -49.5s-24 -47.5 -24 -73.5c0 -6 0.666992 -13 2 -21s4 -16 8 -24
c5.33301 -13.333 13.166 -25.833 23.499 -37.5s22.166 -22 35.499 -31s27.833 -16 43.5 -21s32.167 -7.5 49.5 -7.5c8 0 16 0.5 24 1.5s17 3.5 27 7.5l-1 -1c16 4.66699 31.833 10.834 47.5 18.501s30.167 15.334 43.5 23.001s25.166 14.834 35.499 21.501
s17.833 12 22.5 16l53 -69c-28 -19.333 -63.333 -41 -106 -65s-94 -52.667 -154 -86l-244 -135c-8 14.667 -15 27.667 -21 39s-13 24 -21 38l210 117c-35.333 15.333 -66.166 35.166 -92.499 59.499s-45.833 50.166 -58.5 77.499c-9.33301 24 -14 50.333 -14 79
c0 22 3.33301 43.5 10 64.5s16.334 40.333 29.001 58s27.5 33.667 44.5 48s36.167 25.833 57.5 34.5c34 13.333 69 20 105 20c26 0 50.167 -2.16699 72.5 -6.5s38.5 -8.16602 48.5 -11.499z" />
    <glyph glyph-name="uni0678.fina" unicode="&#x678;" horiz-adv-x="1707" 
d="M830 -632c-56.667 0 -115.334 2.82812 -176.001 8.49512s-119 16.667 -175 33s-107.333 39.666 -154 69.999s-84.667 70.5 -114 120.5c-62 90 -93 207 -93 351v23.5c0 7.66699 0.333008 15.834 1 24.501c4.66699 88.667 20 184.5 46 287.5s64.333 216.167 115 339.5
c26.667 -10.667 51.334 -20.667 74.001 -30s46.334 -19 71.001 -29c-48 -120.667 -84.833 -234.167 -110.5 -340.5s-38.5 -199.5 -38.5 -279.5c0 -108 21.667 -194.333 65 -259c19.333 -28 41.666 -51.333 66.999 -70s52.333 -34.167 81 -46.5s58.167 -21.666 88.5 -27.999
s60.5 -10.833 90.5 -13.5s58.833 -4.16699 86.5 -4.5s52.834 -0.5 75.501 -0.5c20 0 48.333 1.66699 85 5s76.5 9 119.5 17s86.667 18.667 131 32s84.5 29.666 120.5 48.999s65.5 42.333 88.5 69s34.5 57.667 34.5 93c0 9.33301 -3.83301 20.5 -11.5 33.5
s-20.167 26.667 -37.5 41s-40 29.333 -68 45s-62 30.834 -102 45.501c-24 8 -47.5 15.5 -70.5 22.5s-44.833 13.167 -65.5 18.5s-39.5 10 -56.5 14s-30.833 7 -41.5 9h-3l11 158l752 -1c21.333 0 39.833 -7.5 55.5 -22.5s23.5 -33.5 23.5 -55.5s-7.83301 -40.5 -23.5 -55.5
s-34.167 -22.5 -55.5 -22.5h-295c30 -24.667 54.333 -48.167 73 -70.5s33.5 -43.166 44.5 -62.499s18.333 -37.166 22 -53.499s5.5 -30.833 5.5 -43.5c-0.666992 -54 -13.334 -102 -38.001 -144s-57 -78.667 -97 -110s-85.833 -57.666 -137.5 -78.999
s-104.5 -38.666 -158.5 -51.999s-107.5 -22.833 -160.5 -28.5s-101.167 -8.5 -144.5 -8.5zM902 836.995c-10 1.33301 -20.665 2.99805 -31.998 4.99805c-10 2 -20.333 3.5 -31 4.5s-21.334 1.5 -32.001 1.5c-12 0 -24 -1 -36 -3s-24.333 -6 -37 -12h1
c-26 -10 -47 -26.5 -63 -49.5s-24 -47.5 -24 -73.5c0 -6 0.666992 -13 2 -21s4 -16 8 -24c5.33301 -13.333 13.166 -25.833 23.499 -37.5s22.166 -22 35.499 -31s27.833 -16 43.5 -21s32.167 -7.5 49.5 -7.5c8 0 16 0.5 24 1.5s17 3.5 27 7.5l-1 -1
c16 4.66699 31.833 10.834 47.5 18.501s30.167 15.334 43.5 23.001s25.166 14.834 35.499 21.501s17.833 12 22.5 16l53 -69c-28 -19.333 -63.333 -41 -106 -65s-94 -52.667 -154 -86l-244 -135c-8 14.667 -15 27.667 -21 39s-13 24 -21 38l210 117
c-35.333 15.333 -66.166 35.166 -92.499 59.499s-45.833 50.166 -58.5 77.499c-9.33301 24 -14 50.333 -14 79c0 22 3.33301 43.5 10 64.5s16.334 40.333 29.001 58s27.5 33.667 44.5 48s36.167 25.833 57.5 34.5c34 13.333 69 20 105 20c26 0 50.167 -2.16699 72.5 -6.5
s38.5 -8.16602 48.5 -11.499z" />
    <glyph glyph-name="uni0679" unicode="&#x679;" horiz-adv-x="1970" arabic-form="isolated" 
d="M992 20c-116 1.33301 -221.998 8.99512 -317.998 22.9951s-179.333 33.667 -250 59c-64.667 25.333 -120 56.5 -166 93.5s-80.333 78.833 -103 125.5c-26.667 50.667 -40 107 -40 169c0 29.333 3.33301 60.166 10 92.499s16 64.5 28 96.5c13.333 34 27 63.833 41 89.5
s25.333 45.167 34 58.5l126 -94c-2 -2.66699 -3.66699 -5.16699 -5 -7.5s-3.66602 -7 -6.99902 -14s-8.33301 -17.667 -15 -32s-16.334 -34.5 -29.001 -60.5c-8.66699 -23.333 -15.5 -45.666 -20.5 -66.999s-7.5 -41.666 -7.5 -60.999c0 -17.333 2 -34.5 6 -51.5
s9.33301 -32.5 16 -46.5c18.667 -33.333 48.334 -63.166 89.001 -89.499s90.834 -48.666 150.501 -66.999s128.167 -32.666 205.5 -42.999s162.333 -15.5 255 -15.5c54 0 113.333 2.33301 178 7s130.667 13 198 25s134.5 28.333 201.5 49s130.167 47.334 189.5 80.001
c-4 42.667 -13.833 87 -29.5 133s-33.334 89.333 -53.001 130s-38.834 76.834 -57.501 108.501s-32.667 55.167 -42 70.5l133 86c8.66699 -14 21.167 -34.833 37.5 -62.5s33.166 -59.5 50.499 -95.5s34.166 -75 50.499 -117s29.5 -84 39.5 -126
c4.66699 -20 8.33398 -38.833 11.001 -56.5s4 -34.834 4 -51.501c0 -30 -8.16699 -57.5 -24.5 -82.5s-43.166 -49.833 -80.499 -74.5c-46 -26 -102 -50.333 -168 -73s-135.833 -42 -209.5 -58s-147.834 -28.5 -222.501 -37.5s-143.334 -13.167 -206.001 -12.5zM1172 966.995
c-34.667 -18 -72.334 -30.002 -113.001 -36.002c-54 -7.33301 -113 -7.33301 -177 0c60.667 82.667 116.667 142.667 168 180c26 18.667 48.667 32.334 68 41.001c28 12 53.667 16 77 12c28 -4.66699 48.333 -18.667 61 -42c12 -24 12.333 -49 1 -75
c-1.33301 -2.66699 -2 -3.66699 -2 -3l2 3c0.666992 2 1 3.33301 1 4c0.666992 0.666992 0.333984 -0.666016 -0.999023 -3.99902c-14.667 -31.333 -43 -58 -85 -80zM1284 1205.99c-32.667 22.667 -70.3311 34.001 -112.998 34.001c-38 0 -79 -13 -123 -39
c-31.333 -18.667 -66 -45.667 -104 -81c0 52 -2.66699 112.333 -8 181l-5 52l-6 53c-5.33301 45.333 -9 80.666 -11 105.999l-80 -10c9.33301 -50.667 17.333 -108.334 24 -173.001l5 -54l4 -54c2 -40 2 -76 0 -108l-4 -42l-1 -13l-2 -14
c-1.33301 -11.333 -4 -19.666 -8 -24.999l-32 -43l-6 -10l-7 -10c-5.33301 -7.33301 -11.333 -10.333 -18 -9c-34 9.33301 -67.333 20.333 -100 33l-15 -36l-15 -35c148.667 -56.667 287.667 -74 417 -52c73.333 12.667 137.666 42 192.999 88
c23.333 19.333 41.666 43.666 54.999 72.999c14 31.333 19.667 61 17 89v9v-5c0.666992 -2.66699 1 -4.66699 1 -6s-0.333008 -0.666016 -1 2.00098c-2 40.667 -21 73.667 -57 99z" />
    <glyph glyph-name="uni067A.init" unicode="&#x67a;" horiz-adv-x="827" arabic-form="initial" 
d="M-78 98c0 22 7.66504 40.5039 22.998 55.5039s33.666 22.5 54.999 22.5h111c37.333 0 78.5 0.833008 123.5 2.5s88.5 6.66699 130.5 15s79.833 21.333 113.5 39s57.5 42.167 71.5 73.5v-1c10.667 22 16 51.333 16 88c0 31.333 -4.66699 66.666 -14 105.999
s-21.333 82.333 -36 129c-5.33301 16.667 -11.833 34.667 -19.5 54s-15.167 38.166 -22.5 56.499s-14.5 35.166 -21.5 50.499s-12.5 27.666 -16.5 36.999l142 71c4 -9.33301 9.33301 -21.333 16 -36s14 -31.667 22 -51s16.167 -40.333 24.5 -63s16.5 -46.334 24.5 -71.001
c17.333 -54 30.333 -104.333 39 -151s13 -90 13 -130c0 -58.667 -9.33301 -109.667 -28 -153c-23.333 -48.667 -55.166 -90.5 -95.499 -125.5s-88.5 -60.167 -144.5 -75.5c-17.333 -5.33301 -39.666 -9.33301 -66.999 -12s-55.5 -4.66699 -84.5 -6
s-56.5 -2.16602 -82.5 -2.49902s-46.333 -0.5 -61 -0.5h-154c-21.333 0 -39.666 7.5 -54.999 22.5s-23 33.5 -23 55.5zM489.998 1529l-149 -149l-150 150l149 149zM488.998 1140l-149 -149l-150 150l149 149z" />
    <glyph glyph-name="uni067A.medi" unicode="&#x67a;" horiz-adv-x="861" arabic-form="medial" 
d="M-81 98c0 22 7.5 40.499 22.5 55.499s33.5 22.5 55.5 22.5h76c58.667 0 115 3 169 9s101.5 17.667 142.5 35s73.167 42.166 96.5 74.499s34 74.833 32 127.5c-0.666992 18 -1.66699 35.167 -3 51.5s-3.5 33.333 -6.5 51s-6.66699 36.5 -11 56.5s-9.83301 42.667 -16.5 68
c28 7.33301 53.167 14.5 75.5 21.5s46.833 14.167 73.5 21.5c8 -28.667 14.333 -55 19 -79s8.5 -47.167 11.5 -69.5s5.66699 -44.666 8 -66.999s5.16602 -46.5 8.49902 -72.5c3.33301 -28 7.5 -55.5 12.5 -82.5s13.667 -51.333 26 -73s29.833 -39.167 52.5 -52.5
s53.334 -20 92.001 -20c22 0 40.833 -7.5 56.5 -22.5s23.5 -33.5 23.5 -55.5s-7.66699 -40.5 -23 -55.5s-33.666 -22.5 -54.999 -22.5c-32 0 -61.333 3.5 -88 10.5s-51.167 16.667 -73.5 29s-42.833 26.833 -61.5 43.5s-35.334 35 -50.001 55
c-26 -25.333 -58.333 -46.666 -97 -63.999s-80.834 -31.5 -126.501 -42.5s-93.167 -19 -142.5 -24s-97.666 -7.5 -144.999 -7.5h-76c-22 0 -40.5 7.5 -55.5 22.5s-22.5 33.5 -22.5 55.5zM521 1413l-149 -149l-150 150l149 149zM520 1024l-149 -149l-150 150l149 149z" />
    <glyph glyph-name="uni067A.fina" unicode="&#x67a;" horiz-adv-x="2241" arabic-form="final" 
d="M1858 177c-25.333 30 -48.333 74.3359 -69 133.003c-187.333 -195.333 -467.666 -293 -840.999 -293c-199.333 1.33301 -364 24.666 -494 69.999s-224 117 -282 215c-23.333 38.667 -39.833 78.667 -49.5 120s-14.5 82.333 -14.5 123c0 25.333 1.66699 50.166 5 74.499
s7.66602 47.166 12.999 68.499c11.333 46.667 23.333 86.334 36 119.001s22.667 56.667 30 72c25.333 -14 48.666 -27.167 69.999 -39.5s44.333 -25.166 69 -38.499c-4 -10 -10 -23.333 -18 -40s-15.667 -35.834 -23 -57.501s-13.833 -45 -19.5 -70s-8.5 -50.5 -8.5 -76.5
c0 -27.333 3.33301 -55.333 10 -84s17.334 -55.667 32.001 -81c21.333 -34.667 51.5 -65.334 90.5 -92.001s85.833 -49.167 140.5 -67.5s116.667 -32.333 186 -42s145 -14.5 227 -14.5c148.667 0 276.167 13.333 382.5 40s194.5 68.667 264.5 126l-1 -1
c30 24 56.167 50 78.5 78s41.5 57 57.5 87s29.667 60.167 41 90.5s21.333 60.166 30 89.499c28 -7.33301 53.667 -14.333 77 -21s48.333 -13.667 75 -21c-3.33301 -13.333 -6.33301 -25.5 -9 -36.5s-6 -25.5 -10 -43.5c-8 -39.333 -11.667 -74.333 -11 -105
c1.33301 -30 6 -61.667 14 -95s23.333 -63.666 46 -90.999l-1 1c52 -65.333 136.667 -98 254 -98c22 0 40.667 -7.5 56 -22.5s23 -33.5 23 -55.5s-7.66699 -40.5 -23 -55.5s-34 -22.5 -56 -22.5h-8c-167.333 2 -290.333 54 -369 156zM1160 1192l-149 -149l-150 150l149 149z
M1159 803.003l-149 -149l-150 150l149 149z" />
    <glyph glyph-name="uni067B.init" unicode="&#x67b;" horiz-adv-x="684" arabic-form="initial" 
d="M-85 98c0 22 7.66602 40.5068 22.999 55.5068s33.666 22.5 54.999 22.5h103c7.33301 0 14.833 -0.166992 22.5 -0.5s15.167 -0.5 22.5 -0.5c32 0 62.833 1.66699 92.5 5s57 9.66602 82 18.999s47.167 22.666 66.5 39.999s35.333 39.666 48 66.999v-1
c10.667 22 16 51.333 16 88c0 62.667 -14.667 141 -44 235c-5.33301 16.667 -11.833 34.667 -19.5 54s-15.167 38.166 -22.5 56.499s-14.5 35.166 -21.5 50.499s-12.5 27.666 -16.5 36.999l142 71c4 -9.33301 9.33301 -21.333 16 -36s14 -31.667 22 -51
s16.167 -40.333 24.5 -63s16.5 -46.334 24.5 -71.001c17.333 -54 30.333 -104.333 39 -151s13 -90 13 -130c0 -58.667 -9.33301 -109.667 -28 -153c-23.333 -48.667 -55.166 -90.5 -95.499 -125.5s-88.5 -60.167 -144.5 -75.5c-34.667 -10 -68.5 -16 -101.5 -18
s-64.5 -3 -94.5 -3h-146c-21.333 0 -39.666 7.5 -54.999 22.5s-23 33.5 -23 55.5zM452.999 -342.993l-149 -149l-150 150l149 149zM461.999 -741.993l-149 -149l-150 150l149 149z" />
    <glyph glyph-name="uni067B.medi" unicode="&#x67b;" horiz-adv-x="705" arabic-form="medial" 
d="M-74 98c0 21.333 7.50098 39.6641 22.501 54.9971s33.5 23 55.5 23h17c118.667 0 206 21.167 262 63.5s84 106.5 84 192.5c0 18 -0.833008 35.5 -2.5 52.5s-4.16699 34.667 -7.5 53s-7.33301 37.833 -12 58.5s-10.334 43.334 -17.001 68.001
c28 7.33301 53.167 14.5 75.5 21.5s46.833 14.167 73.5 21.5c15.333 -57.333 27.166 -109.5 35.499 -156.5s13.166 -91.833 14.499 -134.5c1.33301 -38 4.16602 -71.833 8.49902 -101.5s12.666 -54.667 24.999 -75s29.833 -36 52.5 -47s53 -16.5 91 -16.5
c21.333 0 39.833 -7.66699 55.5 -23s23.5 -33.666 23.5 -54.999c0 -22 -7.66699 -40.5 -23 -55.5s-33.666 -22.5 -54.999 -22.5c-32 0 -61.167 3.33301 -87.5 10s-50.666 15.834 -72.999 27.501s-42.666 25.667 -60.999 42s-35.166 34.5 -50.499 54.5
c-46 -44.667 -102.5 -78.167 -169.5 -100.5s-147.833 -33.5 -242.5 -33.5h-17c-22 0 -40.5 7.5 -55.5 22.5s-22.5 33.5 -22.5 55.5zM525.001 -330.002l-149 -149l-150 150l149 149zM534.001 -729.002l-149 -149l-150 150l149 149z" />
    <glyph glyph-name="uni067B.fina" unicode="&#x67b;" horiz-adv-x="2231" arabic-form="final" 
d="M1858 177c-25.333 30 -48.333 74.3359 -69 133.003c-187.333 -195.333 -467.666 -293 -840.999 -293c-199.333 1.33301 -364 24.666 -494 69.999s-224 117 -282 215c-23.333 38.667 -39.833 78.667 -49.5 120s-14.5 82.333 -14.5 123c0 25.333 1.66699 50.166 5 74.499
s7.66602 47.166 12.999 68.499c11.333 46.667 23.333 86.334 36 119.001s22.667 56.667 30 72c25.333 -14 48.666 -27.167 69.999 -39.5s44.333 -25.166 69 -38.499c-4 -10 -10 -23.333 -18 -40s-15.667 -35.834 -23 -57.501s-13.833 -45 -19.5 -70s-8.5 -50.5 -8.5 -76.5
c0 -27.333 3.33301 -55.333 10 -84s17.334 -55.667 32.001 -81c21.333 -34.667 51.5 -65.334 90.5 -92.001s85.833 -49.167 140.5 -67.5s116.667 -32.333 186 -42s145 -14.5 227 -14.5c148.667 0 276.167 13.333 382.5 40s194.5 68.667 264.5 126l-1 -1
c30 24 56.167 50 78.5 78s41.5 57 57.5 87s29.667 60.167 41 90.5s21.333 60.166 30 89.499c28 -7.33301 53.667 -14.333 77 -21s48.333 -13.667 75 -21c-3.33301 -13.333 -6.33301 -25.5 -9 -36.5s-6 -25.5 -10 -43.5c-8 -39.333 -11.667 -74.333 -11 -105
c1.33301 -30 6 -61.667 14 -95s23.333 -63.666 46 -90.999l-1 1c52 -65.333 136.667 -98 254 -98c22 0 40.667 -7.5 56 -22.5s23 -33.5 23 -55.5s-7.66699 -40.5 -23 -55.5s-34 -22.5 -56 -22.5h-8c-167.333 2 -290.333 54 -369 156zM1155 -341.997l-149 -149l-150 150
l149 149zM1164 -740.997l-149 -149l-150 150l149 149z" />
    <glyph glyph-name="uni067C.init" unicode="&#x67c;" horiz-adv-x="799" 
d="M-85 98c0 22 7.66602 40.5068 22.999 55.5068s33.666 22.5 54.999 22.5h103c7.33301 0 14.833 -0.166992 22.5 -0.5s15.167 -0.5 22.5 -0.5c32 0 62.833 1.66699 92.5 5s57 9.66602 82 18.999s47.167 22.666 66.5 39.999s35.333 39.666 48 66.999v-1
c10.667 22 16 51.333 16 88c0 62.667 -14.667 141 -44 235c-5.33301 16.667 -11.833 34.667 -19.5 54s-15.167 38.166 -22.5 56.499s-14.5 35.166 -21.5 50.499s-12.5 27.666 -16.5 36.999l142 71c4 -9.33301 9.33301 -21.333 16 -36s14 -31.667 22 -51
s16.167 -40.333 24.5 -63s16.5 -46.334 24.5 -71.001c17.333 -54 30.333 -104.333 39 -151s13 -90 13 -130c0 -58.667 -9.33301 -109.667 -28 -153c-23.333 -48.667 -55.166 -90.5 -95.499 -125.5s-88.5 -60.167 -144.5 -75.5c-34.667 -10 -68.5 -16 -101.5 -18
s-64.5 -3 -94.5 -3h-146c-21.333 0 -39.666 7.5 -54.999 22.5s-23 33.5 -23 55.5zM329.999 -225.993c18 0 35.335 4.33496 52.002 13.002s31.5 20.167 44.5 34.5s23.167 31 30.5 50s10.333 39.167 9 60.5c-0.666992 16.667 -3.83398 34.5 -9.50098 53.5
s-14.334 36.167 -26.001 51.5s-25.667 27.833 -42 37.5s-35.833 14.5 -58.5 14.5c-20.667 0 -39.334 -5.16699 -56.001 -15.5s-31.167 -23 -43.5 -38s-21.666 -31.833 -27.999 -50.5s-9.5 -36.334 -9.5 -53.001c0 -18.667 3.83301 -37.334 11.5 -56.001
s17.667 -35.5 30 -50.5s26.833 -27.333 43.5 -37s34 -14.5 52 -14.5zM330.001 174.009c32.667 0 62.167 -7.49805 88.5 -22.498s49.166 -34 68.499 -57s34.5 -48.833 45.5 -77.5s17.167 -57 18.5 -85c0.666992 -31.333 -4.66602 -61.333 -15.999 -90s-27 -54.5 -47 -77.5
s-43.5 -41.333 -70.5 -55s-56.167 -20.5 -87.5 -20.5c-33.333 -0.666992 -63.666 6 -90.999 20s-50.666 32.667 -69.999 56s-34.166 49.666 -44.499 78.999s-15.5 58.666 -15.5 87.999c0 28 5.16699 56.333 15.5 85s25.166 54.5 44.499 77.5s42.666 42 69.999 57
s57.666 22.5 90.999 22.5zM318.001 1221.01l-146 -146l-148 147l146 147zM673.001 1219.01l-145 -146l-148 148l146 146z" />
    <glyph glyph-name="uni067C.medi" unicode="&#x67c;" horiz-adv-x="854" 
d="M-81 98c0 22 7.5 40.499 22.5 55.499s33.5 22.5 55.5 22.5h76c58.667 0 115 3 169 9s101.5 17.667 142.5 35s73.167 42.166 96.5 74.499s34 74.833 32 127.5c-0.666992 18 -1.66699 35.167 -3 51.5s-3.5 33.333 -6.5 51s-6.66699 36.5 -11 56.5s-9.83301 42.667 -16.5 68
c28 7.33301 53.167 14.5 75.5 21.5s46.833 14.167 73.5 21.5c8 -28.667 14.333 -55 19 -79s8.5 -47.167 11.5 -69.5s5.66699 -44.666 8 -66.999s5.16602 -46.5 8.49902 -72.5c3.33301 -28 7.5 -55.5 12.5 -82.5s13.667 -51.333 26 -73s29.833 -39.167 52.5 -52.5
s53.334 -20 92.001 -20c22 0 40.833 -7.5 56.5 -22.5s23.5 -33.5 23.5 -55.5s-7.66699 -40.5 -23 -55.5s-33.666 -22.5 -54.999 -22.5c-32 0 -61.333 3.5 -88 10.5s-51.167 16.667 -73.5 29s-42.833 26.833 -61.5 43.5s-35.334 35 -50.001 55
c-26 -25.333 -58.333 -46.666 -97 -63.999s-80.834 -31.5 -126.501 -42.5s-93.167 -19 -142.5 -24s-97.666 -7.5 -144.999 -7.5h-76c-22 0 -40.5 7.5 -55.5 22.5s-22.5 33.5 -22.5 55.5zM308 1061l-146 -146l-148 147l146 147zM663 1059l-145 -146l-148 148l146 146z
M362 -220.001c18 0 35.335 4.33496 52.002 13.002s31.5 20.167 44.5 34.5s23.167 31 30.5 50s10.333 39.167 9 60.5c-0.666992 16.667 -3.83398 34.5 -9.50098 53.5s-14.334 36.167 -26.001 51.5s-25.667 27.833 -42 37.5s-35.833 14.5 -58.5 14.5
c-20.667 0 -39.334 -5.16699 -56.001 -15.5s-31.167 -23 -43.5 -38s-21.666 -31.833 -27.999 -50.5s-9.5 -36.334 -9.5 -53.001c0 -18.667 3.83301 -37.334 11.5 -56.001s17.667 -35.5 30 -50.5s26.833 -27.333 43.5 -37s34 -14.5 52 -14.5zM362.002 180.001
c32.667 0 62.167 -7.49805 88.5 -22.498s49.166 -34 68.499 -57s34.5 -48.833 45.5 -77.5s17.167 -57 18.5 -85c0.666992 -31.333 -4.66602 -61.333 -15.999 -90s-27 -54.5 -47 -77.5s-43.5 -41.333 -70.5 -55s-56.167 -20.5 -87.5 -20.5
c-33.333 -0.666992 -63.666 6 -90.999 20s-50.666 32.667 -69.999 56s-34.166 49.666 -44.499 78.999s-15.5 58.666 -15.5 87.999c0 28 5.16699 56.333 15.5 85s25.166 54.5 44.499 77.5s42.666 42 69.999 57s57.666 22.5 90.999 22.5z" />
    <glyph glyph-name="uni067C.fina" unicode="&#x67c;" horiz-adv-x="2236" 
d="M1858 177c-25.333 30 -48.333 74.3359 -69 133.003c-187.333 -195.333 -467.666 -293 -840.999 -293c-199.333 1.33301 -364 24.666 -494 69.999s-224 117 -282 215c-23.333 38.667 -39.833 78.667 -49.5 120s-14.5 82.333 -14.5 123c0 25.333 1.66699 50.166 5 74.499
s7.66602 47.166 12.999 68.499c11.333 46.667 23.333 86.334 36 119.001s22.667 56.667 30 72c25.333 -14 48.666 -27.167 69.999 -39.5s44.333 -25.166 69 -38.499c-4 -10 -10 -23.333 -18 -40s-15.667 -35.834 -23 -57.501s-13.833 -45 -19.5 -70s-8.5 -50.5 -8.5 -76.5
c0 -27.333 3.33301 -55.333 10 -84s17.334 -55.667 32.001 -81c21.333 -34.667 51.5 -65.334 90.5 -92.001s85.833 -49.167 140.5 -67.5s116.667 -32.333 186 -42s145 -14.5 227 -14.5c148.667 0 276.167 13.333 382.5 40s194.5 68.667 264.5 126l-1 -1
c30 24 56.167 50 78.5 78s41.5 57 57.5 87s29.667 60.167 41 90.5s21.333 60.166 30 89.499c28 -7.33301 53.667 -14.333 77 -21s48.333 -13.667 75 -21c-3.33301 -13.333 -6.33301 -25.5 -9 -36.5s-6 -25.5 -10 -43.5c-8 -39.333 -11.667 -74.333 -11 -105
c1.33301 -30 6 -61.667 14 -95s23.333 -63.666 46 -90.999l-1 1c52 -65.333 136.667 -98 254 -98c22 0 40.667 -7.5 56 -22.5s23 -33.5 23 -55.5s-7.66699 -40.5 -23 -55.5s-34 -22.5 -56 -22.5h-8c-167.333 2 -290.333 54 -369 156zM986 962.003l-146 -146l-148 147
l146 147zM1341 960.003l-145 -146l-148 148l146 146zM1091 -249.997c18 0 35.335 4.33496 52.002 13.002s31.5 20.167 44.5 34.5s23.167 31 30.5 50s10.333 39.167 9 60.5c-0.666992 16.667 -3.83398 34.5 -9.50098 53.5s-14.334 36.167 -26.001 51.5
s-25.667 27.833 -42 37.5s-35.833 14.5 -58.5 14.5c-20.667 0 -39.334 -5.16699 -56.001 -15.5s-31.167 -23 -43.5 -38s-21.666 -31.833 -27.999 -50.5s-9.5 -36.334 -9.5 -53.001c0 -18.667 3.83301 -37.334 11.5 -56.001s17.667 -35.5 30 -50.5s26.833 -27.333 43.5 -37
s34 -14.5 52 -14.5zM1091 150.005c32.667 0 62.167 -7.49805 88.5 -22.498s49.166 -34 68.499 -57s34.5 -48.833 45.5 -77.5s17.167 -57 18.5 -85c0.666992 -31.333 -4.66602 -61.333 -15.999 -90s-27 -54.5 -47 -77.5s-43.5 -41.333 -70.5 -55s-56.167 -20.5 -87.5 -20.5
c-33.333 -0.666992 -63.666 6 -90.999 20s-50.666 32.667 -69.999 56s-34.166 49.666 -44.499 78.999s-15.5 58.666 -15.5 87.999c0 28 5.16699 56.333 15.5 85s25.166 54.5 44.499 77.5s42.666 42 69.999 57s57.666 22.5 90.999 22.5z" />
    <glyph glyph-name="uni067D.init" unicode="&#x67d;" horiz-adv-x="827" 
d="M-78 98c0 22 7.66504 40.5039 22.998 55.5039s33.666 22.5 54.999 22.5h111c37.333 0 78.5 0.833008 123.5 2.5s88.5 6.66699 130.5 15s79.833 21.333 113.5 39s57.5 42.167 71.5 73.5v-1c10.667 22 16 51.333 16 88c0 31.333 -4.66699 66.666 -14 105.999
s-21.333 82.333 -36 129c-5.33301 16.667 -11.833 34.667 -19.5 54s-15.167 38.166 -22.5 56.499s-14.5 35.166 -21.5 50.499s-12.5 27.666 -16.5 36.999l142 71c4 -9.33301 9.33301 -21.333 16 -36s14 -31.667 22 -51s16.167 -40.333 24.5 -63s16.5 -46.334 24.5 -71.001
c17.333 -54 30.333 -104.333 39 -151s13 -90 13 -130c0 -58.667 -9.33301 -109.667 -28 -153c-23.333 -48.667 -55.166 -90.5 -95.499 -125.5s-88.5 -60.167 -144.5 -75.5c-17.333 -5.33301 -39.666 -9.33301 -66.999 -12s-55.5 -4.66699 -84.5 -6
s-56.5 -2.16602 -82.5 -2.49902s-46.333 -0.5 -61 -0.5h-154c-21.333 0 -39.666 7.5 -54.999 22.5s-23 33.5 -23 55.5zM317.998 1478l-148 -148l-150 150l148 148zM671.998 1477l-148 -149l-150 150l148 149zM503.998 1202l-148 -148l-150 150l148 148z" />
    <glyph glyph-name="uni067D.medi" unicode="&#x67d;" horiz-adv-x="864" 
d="M-81 98c0 22 7.5 40.499 22.5 55.499s33.5 22.5 55.5 22.5h76c58.667 0 115 3 169 9s101.5 17.667 142.5 35s73.167 42.166 96.5 74.499s34 74.833 32 127.5c-0.666992 18 -1.66699 35.167 -3 51.5s-3.5 33.333 -6.5 51s-6.66699 36.5 -11 56.5s-9.83301 42.667 -16.5 68
c28 7.33301 53.167 14.5 75.5 21.5s46.833 14.167 73.5 21.5c8 -28.667 14.333 -55 19 -79s8.5 -47.167 11.5 -69.5s5.66699 -44.666 8 -66.999s5.16602 -46.5 8.49902 -72.5c3.33301 -28 7.5 -55.5 12.5 -82.5s13.667 -51.333 26 -73s29.833 -39.167 52.5 -52.5
s53.334 -20 92.001 -20c22 0 40.833 -7.5 56.5 -22.5s23.5 -33.5 23.5 -55.5s-7.66699 -40.5 -23 -55.5s-33.666 -22.5 -54.999 -22.5c-32 0 -61.333 3.5 -88 10.5s-51.167 16.667 -73.5 29s-42.833 26.833 -61.5 43.5s-35.334 35 -50.001 55
c-26 -25.333 -58.333 -46.666 -97 -63.999s-80.834 -31.5 -126.501 -42.5s-93.167 -19 -142.5 -24s-97.666 -7.5 -144.999 -7.5h-76c-22 0 -40.5 7.5 -55.5 22.5s-22.5 33.5 -22.5 55.5zM313 1404l-148 -148l-150 150l148 148zM667 1403l-148 -149l-150 150l148 149z
M499 1128l-148 -148l-150 150l148 148z" />
    <glyph glyph-name="uni067D.fina" unicode="&#x67d;" horiz-adv-x="2229" 
d="M1858 177c-25.333 30 -48.333 74.3359 -69 133.003c-187.333 -195.333 -467.666 -293 -840.999 -293c-199.333 1.33301 -364 24.666 -494 69.999s-224 117 -282 215c-23.333 38.667 -39.833 78.667 -49.5 120s-14.5 82.333 -14.5 123c0 25.333 1.66699 50.166 5 74.499
s7.66602 47.166 12.999 68.499c11.333 46.667 23.333 86.334 36 119.001s22.667 56.667 30 72c25.333 -14 48.666 -27.167 69.999 -39.5s44.333 -25.166 69 -38.499c-4 -10 -10 -23.333 -18 -40s-15.667 -35.834 -23 -57.501s-13.833 -45 -19.5 -70s-8.5 -50.5 -8.5 -76.5
c0 -27.333 3.33301 -55.333 10 -84s17.334 -55.667 32.001 -81c21.333 -34.667 51.5 -65.334 90.5 -92.001s85.833 -49.167 140.5 -67.5s116.667 -32.333 186 -42s145 -14.5 227 -14.5c148.667 0 276.167 13.333 382.5 40s194.5 68.667 264.5 126l-1 -1
c30 24 56.167 50 78.5 78s41.5 57 57.5 87s29.667 60.167 41 90.5s21.333 60.166 30 89.499c28 -7.33301 53.667 -14.333 77 -21s48.333 -13.667 75 -21c-3.33301 -13.333 -6.33301 -25.5 -9 -36.5s-6 -25.5 -10 -43.5c-8 -39.333 -11.667 -74.333 -11 -105
c1.33301 -30 6 -61.667 14 -95s23.333 -63.666 46 -90.999l-1 1c52 -65.333 136.667 -98 254 -98c22 0 40.667 -7.5 56 -22.5s23 -33.5 23 -55.5s-7.66699 -40.5 -23 -55.5s-34 -22.5 -56 -22.5h-8c-167.333 2 -290.333 54 -369 156zM981 1084l-148 -148l-150 150l148 148z
M1335 1083l-148 -149l-150 150l148 149zM1167 808.003l-148 -148l-150 150l148 148z" />
    <glyph glyph-name="uni067E" unicode="&#x67e;" horiz-adv-x="1964" arabic-form="isolated" 
d="M991 20c-116 1.33301 -221.998 8.99512 -317.998 22.9951s-179.333 33.667 -250 59c-64.667 25.333 -120 56.5 -166 93.5s-80.333 78.833 -103 125.5c-26.667 50.667 -40 107 -40 169c0 29.333 3.33301 60.166 10 92.499s16 64.5 28 96.5c13.333 34 27 63.833 41 89.5
s25.333 45.167 34 58.5l126 -94c-2 -2.66699 -3.66699 -5.16699 -5 -7.5s-3.66602 -7 -6.99902 -14s-8.33301 -17.667 -15 -32s-16.334 -34.5 -29.001 -60.5c-8.66699 -23.333 -15.5 -45.666 -20.5 -66.999s-7.5 -41.666 -7.5 -60.999c0 -17.333 2 -34.5 6 -51.5
s9.33301 -32.5 16 -46.5c18.667 -33.333 48.334 -63.166 89.001 -89.499s90.834 -48.666 150.501 -66.999s128.167 -32.666 205.5 -42.999s162.333 -15.5 255 -15.5c54 0 113.333 2.33301 178 7s130.667 13 198 25s134.5 28.333 201.5 49s130.167 47.334 189.5 80.001
c-4 42.667 -13.833 87 -29.5 133s-33.334 89.333 -53.001 130s-38.834 76.834 -57.501 108.501s-32.667 55.167 -42 70.5l133 86c8.66699 -14 21.167 -34.833 37.5 -62.5s33.166 -59.5 50.499 -95.5s34.166 -75 50.499 -117s29.5 -84 39.5 -126
c4.66699 -20 8.33398 -38.833 11.001 -56.5s4 -34.834 4 -51.501c0 -30 -8.16699 -57.5 -24.5 -82.5s-43.166 -49.833 -80.499 -74.5c-46 -26 -102 -50.333 -168 -73s-135.833 -42 -209.5 -58s-147.834 -28.5 -222.501 -37.5s-143.334 -13.167 -206.001 -12.5z
M1211 -162.005l146 -146l-148 -148l-146 146zM805.002 -163.005l146 -147l-148 -148l-146 147zM1013 -468.005l132 -132l-133 -133l-132 132z" />
    <glyph glyph-name="uni067F.init" unicode="&#x67f;" horiz-adv-x="827" arabic-form="initial" 
d="M-78 98c0 22 7.66504 40.5039 22.998 55.5039s33.666 22.5 54.999 22.5h111c37.333 0 78.5 0.833008 123.5 2.5s88.5 6.66699 130.5 15s79.833 21.333 113.5 39s57.5 42.167 71.5 73.5v-1c10.667 22 16 51.333 16 88c0 31.333 -4.66699 66.666 -14 105.999
s-21.333 82.333 -36 129c-5.33301 16.667 -11.833 34.667 -19.5 54s-15.167 38.166 -22.5 56.499s-14.5 35.166 -21.5 50.499s-12.5 27.666 -16.5 36.999l142 71c4 -9.33301 9.33301 -21.333 16 -36s14 -31.667 22 -51s16.167 -40.333 24.5 -63s16.5 -46.334 24.5 -71.001
c17.333 -54 30.333 -104.333 39 -151s13 -90 13 -130c0 -58.667 -9.33301 -109.667 -28 -153c-23.333 -48.667 -55.166 -90.5 -95.499 -125.5s-88.5 -60.167 -144.5 -75.5c-17.333 -5.33301 -39.666 -9.33301 -66.999 -12s-55.5 -4.66699 -84.5 -6
s-56.5 -2.16602 -82.5 -2.49902s-46.333 -0.5 -61 -0.5h-154c-21.333 0 -39.666 7.5 -54.999 22.5s-23 33.5 -23 55.5zM721.998 1210l-148 -149l-150 150l148 148zM361.998 1204l-148 -148l-150 149l148 149zM718.998 1611l-148 -149l-150 150l148 148zM358.998 1605
l-148 -148l-150 149l148 149z" />
    <glyph glyph-name="uni067F.medi" unicode="&#x67f;" horiz-adv-x="854" arabic-form="medial" 
d="M-81 98c0 22 7.5 40.499 22.5 55.499s33.5 22.5 55.5 22.5h76c58.667 0 115 3 169 9s101.5 17.667 142.5 35s73.167 42.166 96.5 74.499s34 74.833 32 127.5c-0.666992 18 -1.66699 35.167 -3 51.5s-3.5 33.333 -6.5 51s-6.66699 36.5 -11 56.5s-9.83301 42.667 -16.5 68
c28 7.33301 53.167 14.5 75.5 21.5s46.833 14.167 73.5 21.5c8 -28.667 14.333 -55 19 -79s8.5 -47.167 11.5 -69.5s5.66699 -44.666 8 -66.999s5.16602 -46.5 8.49902 -72.5c3.33301 -28 7.5 -55.5 12.5 -82.5s13.667 -51.333 26 -73s29.833 -39.167 52.5 -52.5
s53.334 -20 92.001 -20c22 0 40.833 -7.5 56.5 -22.5s23.5 -33.5 23.5 -55.5s-7.66699 -40.5 -23 -55.5s-33.666 -22.5 -54.999 -22.5c-32 0 -61.333 3.5 -88 10.5s-51.167 16.667 -73.5 29s-42.833 26.833 -61.5 43.5s-35.334 35 -50.001 55
c-26 -25.333 -58.333 -46.666 -97 -63.999s-80.834 -31.5 -126.501 -42.5s-93.167 -19 -142.5 -24s-97.666 -7.5 -144.999 -7.5h-76c-22 0 -40.5 7.5 -55.5 22.5s-22.5 33.5 -22.5 55.5zM671 1091l-148 -149l-150 150l148 148zM311 1085l-148 -148l-150 149l148 149z
M668 1492l-148 -149l-150 150l148 148zM308 1486l-148 -148l-150 149l148 149z" />
    <glyph glyph-name="uni067F.fina" unicode="&#x67f;" horiz-adv-x="2242" arabic-form="final" 
d="M1858 177c-25.333 30 -48.333 74.3359 -69 133.003c-187.333 -195.333 -467.666 -293 -840.999 -293c-199.333 1.33301 -364 24.666 -494 69.999s-224 117 -282 215c-23.333 38.667 -39.833 78.667 -49.5 120s-14.5 82.333 -14.5 123c0 25.333 1.66699 50.166 5 74.499
s7.66602 47.166 12.999 68.499c11.333 46.667 23.333 86.334 36 119.001s22.667 56.667 30 72c25.333 -14 48.666 -27.167 69.999 -39.5s44.333 -25.166 69 -38.499c-4 -10 -10 -23.333 -18 -40s-15.667 -35.834 -23 -57.501s-13.833 -45 -19.5 -70s-8.5 -50.5 -8.5 -76.5
c0 -27.333 3.33301 -55.333 10 -84s17.334 -55.667 32.001 -81c21.333 -34.667 51.5 -65.334 90.5 -92.001s85.833 -49.167 140.5 -67.5s116.667 -32.333 186 -42s145 -14.5 227 -14.5c148.667 0 276.167 13.333 382.5 40s194.5 68.667 264.5 126l-1 -1
c30 24 56.167 50 78.5 78s41.5 57 57.5 87s29.667 60.167 41 90.5s21.333 60.166 30 89.499c28 -7.33301 53.667 -14.333 77 -21s48.333 -13.667 75 -21c-3.33301 -13.333 -6.33301 -25.5 -9 -36.5s-6 -25.5 -10 -43.5c-8 -39.333 -11.667 -74.333 -11 -105
c1.33301 -30 6 -61.667 14 -95s23.333 -63.666 46 -90.999l-1 1c52 -65.333 136.667 -98 254 -98c22 0 40.667 -7.5 56 -22.5s23 -33.5 23 -55.5s-7.66699 -40.5 -23 -55.5s-34 -22.5 -56 -22.5h-8c-167.333 2 -290.333 54 -369 156zM1362 874.003l-148 -149l-150 150
l148 148zM1002 868.003l-148 -148l-150 149l148 149zM1359 1275l-148 -149l-150 150l148 148zM999 1269l-148 -148l-150 149l148 149z" />
    <glyph glyph-name="uni0680.init" unicode="&#x680;" horiz-adv-x="827" arabic-form="initial" 
d="M-76 98c0 22 7.66504 40.5039 22.998 55.5039s33.666 22.5 54.999 22.5h111c37.333 0 78.5 0.833008 123.5 2.5s88.5 6.66699 130.5 15s79.833 21.333 113.5 39s57.5 42.167 71.5 73.5v-1c10.667 22 16 51.333 16 88c0 31.333 -4.66699 66.666 -14 105.999
s-21.333 82.333 -36 129c-5.33301 16.667 -11.833 34.667 -19.5 54s-15.167 38.166 -22.5 56.499s-14.5 35.166 -21.5 50.499s-12.5 27.666 -16.5 36.999l142 71c4 -9.33301 9.33301 -21.333 16 -36s14 -31.667 22 -51s16.167 -40.333 24.5 -63s16.5 -46.334 24.5 -71.001
c17.333 -54 30.333 -104.333 39 -151s13 -90 13 -130c0 -58.667 -9.33301 -109.667 -28 -153c-23.333 -48.667 -55.166 -90.5 -95.499 -125.5s-88.5 -60.167 -144.5 -75.5c-17.333 -5.33301 -39.666 -9.33301 -66.999 -12s-55.5 -4.66699 -84.5 -6
s-56.5 -2.16602 -82.5 -2.49902s-46.333 -0.5 -61 -0.5h-154c-21.333 0 -39.666 7.5 -54.999 22.5s-23 33.5 -23 55.5zM677.998 -685.996l-148 -149l-150 150l148 148zM317.998 -691.996l-148 -148l-150 149l148 149zM674.998 -284.996l-148 -149l-150 150l148 148z
M314.998 -290.996l-148 -148l-150 149l148 149z" />
    <glyph glyph-name="uni0680.medi" unicode="&#x680;" horiz-adv-x="864" arabic-form="medial" 
d="M-81 98c0 22 7.5 40.499 22.5 55.499s33.5 22.5 55.5 22.5h76c58.667 0 115 3 169 9s101.5 17.667 142.5 35s73.167 42.166 96.5 74.499s34 74.833 32 127.5c-0.666992 18 -1.66699 35.167 -3 51.5s-3.5 33.333 -6.5 51s-6.66699 36.5 -11 56.5s-9.83301 42.667 -16.5 68
c28 7.33301 53.167 14.5 75.5 21.5s46.833 14.167 73.5 21.5c8 -28.667 14.333 -55 19 -79s8.5 -47.167 11.5 -69.5s5.66699 -44.666 8 -66.999s5.16602 -46.5 8.49902 -72.5c3.33301 -28 7.5 -55.5 12.5 -82.5s13.667 -51.333 26 -73s29.833 -39.167 52.5 -52.5
s53.334 -20 92.001 -20c22 0 40.833 -7.5 56.5 -22.5s23.5 -33.5 23.5 -55.5s-7.66699 -40.5 -23 -55.5s-33.666 -22.5 -54.999 -22.5c-32 0 -61.333 3.5 -88 10.5s-51.167 16.667 -73.5 29s-42.833 26.833 -61.5 43.5s-35.334 35 -50.001 55
c-26 -25.333 -58.333 -46.666 -97 -63.999s-80.834 -31.5 -126.501 -42.5s-93.167 -19 -142.5 -24s-97.666 -7.5 -144.999 -7.5h-76c-22 0 -40.5 7.5 -55.5 22.5s-22.5 33.5 -22.5 55.5zM685 -730.001l-148 -149l-150 150l148 148zM325 -736.001l-148 -148l-150 149l148 149
zM682 -329.001l-148 -149l-150 150l148 148zM322 -335.001l-148 -148l-150 149l148 149z" />
    <glyph glyph-name="uni0680.fina" unicode="&#x680;" horiz-adv-x="2238" arabic-form="final" 
d="M1858 177c-25.333 30 -48.333 74.3359 -69 133.003c-187.333 -195.333 -467.666 -293 -840.999 -293c-199.333 1.33301 -364 24.666 -494 69.999s-224 117 -282 215c-23.333 38.667 -39.833 78.667 -49.5 120s-14.5 82.333 -14.5 123c0 25.333 1.66699 50.166 5 74.499
s7.66602 47.166 12.999 68.499c11.333 46.667 23.333 86.334 36 119.001s22.667 56.667 30 72c25.333 -14 48.666 -27.167 69.999 -39.5s44.333 -25.166 69 -38.499c-4 -10 -10 -23.333 -18 -40s-15.667 -35.834 -23 -57.501s-13.833 -45 -19.5 -70s-8.5 -50.5 -8.5 -76.5
c0 -27.333 3.33301 -55.333 10 -84s17.334 -55.667 32.001 -81c21.333 -34.667 51.5 -65.334 90.5 -92.001s85.833 -49.167 140.5 -67.5s116.667 -32.333 186 -42s145 -14.5 227 -14.5c148.667 0 276.167 13.333 382.5 40s194.5 68.667 264.5 126l-1 -1
c30 24 56.167 50 78.5 78s41.5 57 57.5 87s29.667 60.167 41 90.5s21.333 60.166 30 89.499c28 -7.33301 53.667 -14.333 77 -21s48.333 -13.667 75 -21c-3.33301 -13.333 -6.33301 -25.5 -9 -36.5s-6 -25.5 -10 -43.5c-8 -39.333 -11.667 -74.333 -11 -105
c1.33301 -30 6 -61.667 14 -95s23.333 -63.666 46 -90.999l-1 1c52 -65.333 136.667 -98 254 -98c22 0 40.667 -7.5 56 -22.5s23 -33.5 23 -55.5s-7.66699 -40.5 -23 -55.5s-34 -22.5 -56 -22.5h-8c-167.333 2 -290.333 54 -369 156zM1344 -723.997l-148 -149l-150 150
l148 148zM984 -729.997l-148 -148l-150 149l148 149zM1341 -322.997l-148 -149l-150 150l148 148zM981 -328.997l-148 -148l-150 149l148 149z" />
    <glyph glyph-name="uni0681.init" unicode="&#x681;" horiz-adv-x="1548" 
d="M-81 98c0 22 7.83496 40.5029 23.502 55.5029s34.5 22.5 56.5 22.5h198c90 0 181 9.16699 273 27.5s183.167 42.5 273.5 72.5s179.333 64.333 267 103s172.5 78.667 254.5 120l-298 124c-31.333 14.667 -62.166 29 -92.499 43s-59.666 26.5 -87.999 37.5
s-55.333 19.667 -81 26s-49.5 9.5 -71.5 9.5c-25.333 0 -49.333 -4.5 -72 -13.5s-43.834 -20.833 -63.501 -35.5s-37.834 -31 -54.501 -49s-31.667 -36 -45 -54s-24.666 -34.833 -33.999 -50.5s-16.666 -28.167 -21.999 -37.5l-134 80
c7.33301 15.333 17.833 34.166 31.5 56.499s33.167 48.833 58.5 79.5c49.333 60 102.333 105.167 159 135.5s115.334 45.5 176.001 45.5c31.333 0 63.166 -3.66699 95.499 -11s65.166 -17 98.499 -29s67.166 -25.833 101.499 -41.5s69.166 -31.834 104.499 -48.501
c38.667 -18 73.834 -35 105.501 -51s62.834 -31.5 93.501 -46.5s62.5 -30 95.5 -45s70.167 -30.167 111.5 -45.5c5.33301 -29.333 10.666 -55.833 15.999 -79.5s10.666 -49.5 15.999 -77.5c-22.667 -9.33301 -41.334 -17.166 -56.001 -23.499s-28.5 -12.666 -41.5 -18.999
s-26.833 -13.333 -41.5 -21s-34 -17.5 -58 -29.5c-72 -35.333 -150.333 -71.333 -235 -108s-173.167 -69.834 -265.5 -99.501s-187.333 -53.834 -285 -72.501s-195.167 -28 -292.5 -28h-198c-22 0 -40.833 7.66699 -56.5 23s-23.5 33.666 -23.5 54.999zM653.002 1483
c-10 1.33301 -20.665 2.99805 -31.998 4.99805c-10 2 -20.333 3.5 -31 4.5s-21.334 1.5 -32.001 1.5c-12 0 -24 -1 -36 -3s-24.333 -6 -37 -12h1c-26 -10 -47 -26.5 -63 -49.5s-24 -47.5 -24 -73.5c0 -6 0.666992 -13 2 -21s4 -16 8 -24
c5.33301 -13.333 13.166 -25.833 23.499 -37.5s22.166 -22 35.499 -31s27.833 -16 43.5 -21s32.167 -7.5 49.5 -7.5c8 0 16 0.5 24 1.5s17 3.5 27 7.5l-1 -1c16 4.66699 31.833 10.834 47.5 18.501s30.167 15.334 43.5 23.001s25.166 14.834 35.499 21.501
s17.833 12 22.5 16l53 -69c-28 -19.333 -63.333 -41 -106 -65s-94 -52.667 -154 -86l-244 -135c-8 14.667 -15 27.667 -21 39s-13 24 -21 38l210 117c-35.333 15.333 -66.166 35.166 -92.499 59.499s-45.833 50.166 -58.5 77.499c-9.33301 24 -14 50.333 -14 79
c0 22 3.33301 43.5 10 64.5s16.334 40.333 29.001 58s27.5 33.667 44.5 48s36.167 25.833 57.5 34.5c34 13.333 69 20 105 20c26 0 50.167 -2.16699 72.5 -6.5s38.5 -8.16602 48.5 -11.499z" />
    <glyph glyph-name="uni0681.medi" unicode="&#x681;" horiz-adv-x="1669" 
d="M-79 97c0 21.333 7.66016 39.832 22.9932 55.499s34 23.5 56 23.5h183c90.667 0 177.834 8.33301 261.501 25s164.667 38.667 243 66s154.833 58.333 229.5 93s148 70 220 106l60 30c-29.333 10 -61.166 23 -95.499 39s-69.833 32.833 -106.5 50.5s-74 35.667 -112 54
s-75.667 34.666 -113 48.999s-73.666 26.166 -108.999 35.499s-68.666 14 -99.999 14c-37.333 0 -72 -9.5 -104 -28.5s-60.5 -41.5 -85.5 -67.5s-46.167 -52.5 -63.5 -79.5s-30 -48.167 -38 -63.5l-130 88c20.667 38 44.834 75.667 72.501 113s59 70.5 94 99.5
s73.667 52.5 116 70.5s88.5 27 138.5 27c45.333 0 91.166 -6.33301 137.499 -19s92.666 -28.667 138.999 -48s92.666 -41 138.999 -65s92.5 -47.5 138.5 -70.5s91.667 -44 137 -63s90.333 -33.167 135 -42.5c2.66699 -15.333 5.5 -29.333 8.5 -42s5.66699 -25 8 -37
s4.83301 -24.167 7.5 -36.5s5.66699 -25.833 9 -40.5l-27 -12c-6 -2.66699 -12.667 -5.66699 -20 -9s-17 -8 -29 -14s-30.333 -15 -55 -27c8.66699 -30 22 -55.667 40 -77s38.333 -39.166 61 -53.499s46.667 -25.833 72 -34.5s50 -15.167 74 -19.5
s46.333 -7.16602 67 -8.49902s37.334 -2 50.001 -2h6h8c22 0 40.667 -7.83301 56 -23.5s23 -34.167 23 -55.5c0 -22 -7.66699 -40.333 -23 -55s-34 -22 -56 -22h-14c-63.333 0 -122.166 6.33301 -176.499 19s-103.166 31 -146.499 55s-80.666 53.333 -111.999 88
s-55.666 74 -72.999 118c-70 -35.333 -142.5 -69.666 -217.5 -102.999s-152.5 -63.333 -232.5 -90s-162.667 -48 -248 -64s-173.333 -24 -264 -24l-183 1c-22 0 -40.667 7.33301 -56 22s-23 33 -23 55zM619.993 1485c-10 1.33301 -20.665 2.99805 -31.998 4.99805
c-10 2 -20.333 3.5 -31 4.5s-21.334 1.5 -32.001 1.5c-12 0 -24 -1 -36 -3s-24.333 -6 -37 -12h1c-26 -10 -47 -26.5 -63 -49.5s-24 -47.5 -24 -73.5c0 -6 0.666992 -13 2 -21s4 -16 8 -24c5.33301 -13.333 13.166 -25.833 23.499 -37.5s22.166 -22 35.499 -31
s27.833 -16 43.5 -21s32.167 -7.5 49.5 -7.5c8 0 16 0.5 24 1.5s17 3.5 27 7.5l-1 -1c16 4.66699 31.833 10.834 47.5 18.501s30.167 15.334 43.5 23.001s25.166 14.834 35.499 21.501s17.833 12 22.5 16l53 -69c-28 -19.333 -63.333 -41 -106 -65s-94 -52.667 -154 -86
l-244 -135c-8 14.667 -15 27.667 -21 39s-13 24 -21 38l210 117c-35.333 15.333 -66.166 35.166 -92.499 59.499s-45.833 50.166 -58.5 77.499c-9.33301 24 -14 50.333 -14 79c0 22 3.33301 43.5 10 64.5s16.334 40.333 29.001 58s27.5 33.667 44.5 48
s36.167 25.833 57.5 34.5c34 13.333 69 20 105 20c26 0 50.167 -2.16699 72.5 -6.5s38.5 -8.16602 48.5 -11.499z" />
    <glyph glyph-name="uni0681.fina" unicode="&#x681;" horiz-adv-x="1598" 
d="M853 -608c94 0 183.005 13.1719 267.005 39.5049s166.667 67.833 248 124.5l90 -129c-94.667 -63.333 -195.334 -112.333 -302.001 -147s-220.334 -52 -341.001 -52c-100 0 -194 13.5 -282 40.5s-164.833 66.5 -230.5 118.5s-117.5 115.667 -155.5 191s-57 161 -57 257
v21c0 6.66699 0.333008 14 1 22c4 68 19.333 133.167 46 195.5s63.334 120.333 110.001 174s102.667 102.334 168 146.001s138.333 80.667 219 111s168.334 53.166 263.001 68.499s195 22 301 20c-24 12.667 -50 29.334 -78 50.001s-57.333 42.5 -88 65.5
s-62.5 46.167 -95.5 69.5s-66.833 44.5 -101.5 63.5s-70 34.333 -106 46s-72 17.5 -108 17.5s-69.833 -7.33301 -101.5 -22s-61.167 -33.334 -88.5 -56.001s-52.333 -47.5 -75 -74.5s-42.667 -52.5 -60 -76.5c-8 5.33301 -15 9.83301 -21 13.5s-11.5 7.16699 -16.5 10.5
l-15 10c-5 3.33301 -10.833 7.33301 -17.5 12c-9.33301 6.66699 -18.833 13 -28.5 19s-19.834 12.333 -30.501 19c22.667 36 49.167 72.167 79.5 108.5s64 68.833 101 97.5s77.167 52 120.5 70s89 27 137 27c56 0 108.833 -7.16699 158.5 -21.5s97.167 -33.333 142.5 -57
s89.166 -50.834 131.499 -81.501s84.333 -62.334 126 -95.001s83.5 -65 125.5 -97s85.333 -61 130 -87l-51 -159l-154 -10c-0.666992 -5.33301 -1 -10.5 -1 -15.5v-13.5c0 -10 0.666992 -21.333 2 -34s3.66602 -25.667 6.99902 -39s8 -26.5 14 -39.5s13.667 -25.5 23 -37.5
c17.333 -20.667 36.666 -37.5 57.999 -50.5s45.833 -23.167 73.5 -30.5s58.834 -12.333 93.501 -15s74 -4 118 -4c21.333 0 39.833 -7.83301 55.5 -23.5s23.5 -34.5 23.5 -56.5c0 -21.333 -7.83301 -39.333 -23.5 -54s-34.167 -22 -55.5 -22
c-116.667 0 -212.834 13.833 -288.501 41.5s-135.5 67.5 -179.5 119.5c-21.333 30 -39 64.167 -53 102.5s-22 78.833 -24 121.5c-1.33301 9.33301 -1 22 1 38c-110.667 -10.667 -214.334 -32.834 -311.001 -66.501s-181.334 -76.334 -254.001 -128.001
s-131 -110.5 -175 -176.5s-69 -136.333 -75 -211c-0.666992 -53.333 6.83301 -102 22.5 -146s37.334 -83.333 65.001 -118s60.834 -64.834 99.501 -90.501s80.667 -47 126 -64s93.166 -29.667 143.499 -38s101.5 -12.5 153.5 -12.5zM630.005 1630
c-10 1.33301 -20.665 2.99805 -31.998 4.99805c-10 2 -20.333 3.5 -31 4.5s-21.334 1.5 -32.001 1.5c-12 0 -24 -1 -36 -3s-24.333 -6 -37 -12h1c-26 -10 -47 -26.5 -63 -49.5s-24 -47.5 -24 -73.5c0 -6 0.666992 -13 2 -21s4 -16 8 -24
c5.33301 -13.333 13.166 -25.833 23.499 -37.5s22.166 -22 35.499 -31s27.833 -16 43.5 -21s32.167 -7.5 49.5 -7.5c8 0 16 0.5 24 1.5s17 3.5 27 7.5l-1 -1c16 4.66699 31.833 10.834 47.5 18.501s30.167 15.334 43.5 23.001s25.166 14.834 35.499 21.501
s17.833 12 22.5 16l53 -69c-28 -19.333 -63.333 -41 -106 -65s-94 -52.667 -154 -86l-244 -135c-8 14.667 -15 27.667 -21 39s-13 24 -21 38l210 117c-35.333 15.333 -66.166 35.166 -92.499 59.499s-45.833 50.166 -58.5 77.499c-9.33301 24 -14 50.333 -14 79
c0 22 3.33301 43.5 10 64.5s16.334 40.333 29.001 58s27.5 33.667 44.5 48s36.167 25.833 57.5 34.5c34 13.333 69 20 105 20c26 0 50.167 -2.16699 72.5 -6.5s38.5 -8.16602 48.5 -11.499z" />
    <glyph glyph-name="uni0682.init" unicode="&#x682;" horiz-adv-x="1587" 
d="M-81 98c0 22 7.83496 40.5029 23.502 55.5029s34.5 22.5 56.5 22.5h198c90 0 181 9.16699 273 27.5s183.167 42.5 273.5 72.5s179.333 64.333 267 103s172.5 78.667 254.5 120l-298 124c-31.333 14.667 -62.166 29 -92.499 43s-59.666 26.5 -87.999 37.5
s-55.333 19.667 -81 26s-49.5 9.5 -71.5 9.5c-25.333 0 -49.333 -4.5 -72 -13.5s-43.834 -20.833 -63.501 -35.5s-37.834 -31 -54.501 -49s-31.667 -36 -45 -54s-24.666 -34.833 -33.999 -50.5s-16.666 -28.167 -21.999 -37.5l-134 80
c7.33301 15.333 17.833 34.166 31.5 56.499s33.167 48.833 58.5 79.5c49.333 60 102.333 105.167 159 135.5s115.334 45.5 176.001 45.5c31.333 0 63.166 -3.66699 95.499 -11s65.166 -17 98.499 -29s67.166 -25.833 101.499 -41.5s69.166 -31.834 104.499 -48.501
c38.667 -18 73.834 -35 105.501 -51s62.834 -31.5 93.501 -46.5s62.5 -30 95.5 -45s70.167 -30.167 111.5 -45.5c5.33301 -29.333 10.666 -55.833 15.999 -79.5s10.666 -49.5 15.999 -77.5c-22.667 -9.33301 -41.334 -17.166 -56.001 -23.499s-28.5 -12.666 -41.5 -18.999
s-26.833 -13.333 -41.5 -21s-34 -17.5 -58 -29.5c-72 -35.333 -150.333 -71.333 -235 -108s-173.167 -69.834 -265.5 -99.501s-187.333 -53.834 -285 -72.501s-195.167 -28 -292.5 -28h-198c-22 0 -40.833 7.66699 -56.5 23s-23.5 33.666 -23.5 54.999zM677.002 1592
l-149 -149l-150 150l149 149zM676.002 1203l-149 -149l-150 150l149 149z" />
    <glyph glyph-name="uni0682.medi" unicode="&#x682;" horiz-adv-x="1658" 
d="M-79 97c0 21.333 7.66016 39.832 22.9932 55.499s34 23.5 56 23.5h183c90.667 0 177.834 8.33301 261.501 25s164.667 38.667 243 66s154.833 58.333 229.5 93s148 70 220 106l60 30c-29.333 10 -61.166 23 -95.499 39s-69.833 32.833 -106.5 50.5s-74 35.667 -112 54
s-75.667 34.666 -113 48.999s-73.666 26.166 -108.999 35.499s-68.666 14 -99.999 14c-37.333 0 -72 -9.5 -104 -28.5s-60.5 -41.5 -85.5 -67.5s-46.167 -52.5 -63.5 -79.5s-30 -48.167 -38 -63.5l-130 88c20.667 38 44.834 75.667 72.501 113s59 70.5 94 99.5
s73.667 52.5 116 70.5s88.5 27 138.5 27c45.333 0 91.166 -6.33301 137.499 -19s92.666 -28.667 138.999 -48s92.666 -41 138.999 -65s92.5 -47.5 138.5 -70.5s91.667 -44 137 -63s90.333 -33.167 135 -42.5c2.66699 -15.333 5.5 -29.333 8.5 -42s5.66699 -25 8 -37
s4.83301 -24.167 7.5 -36.5s5.66699 -25.833 9 -40.5l-27 -12c-6 -2.66699 -12.667 -5.66699 -20 -9s-17 -8 -29 -14s-30.333 -15 -55 -27c8.66699 -30 22 -55.667 40 -77s38.333 -39.166 61 -53.499s46.667 -25.833 72 -34.5s50 -15.167 74 -19.5
s46.333 -7.16602 67 -8.49902s37.334 -2 50.001 -2h6h8c22 0 40.667 -7.83301 56 -23.5s23 -34.167 23 -55.5c0 -22 -7.66699 -40.333 -23 -55s-34 -22 -56 -22h-14c-63.333 0 -122.166 6.33301 -176.499 19s-103.166 31 -146.499 55s-80.666 53.333 -111.999 88
s-55.666 74 -72.999 118c-70 -35.333 -142.5 -69.666 -217.5 -102.999s-152.5 -63.333 -232.5 -90s-162.667 -48 -248 -64s-173.333 -24 -264 -24l-183 1c-22 0 -40.667 7.33301 -56 22s-23 33 -23 55zM623.993 1595l-149 -149l-150 150l149 149zM622.993 1206l-149 -149
l-150 150l149 149z" />
    <glyph glyph-name="uni0682.fina" unicode="&#x682;" horiz-adv-x="1603" 
d="M853 -608c94 0 183.005 13.1719 267.005 39.5049s166.667 67.833 248 124.5l90 -129c-94.667 -63.333 -195.334 -112.333 -302.001 -147s-220.334 -52 -341.001 -52c-100 0 -194 13.5 -282 40.5s-164.833 66.5 -230.5 118.5s-117.5 115.667 -155.5 191s-57 161 -57 257
v21c0 6.66699 0.333008 14 1 22c4 68 19.333 133.167 46 195.5s63.334 120.333 110.001 174s102.667 102.334 168 146.001s138.333 80.667 219 111s168.334 53.166 263.001 68.499s195 22 301 20c-24 12.667 -50 29.334 -78 50.001s-57.333 42.5 -88 65.5
s-62.5 46.167 -95.5 69.5s-66.833 44.5 -101.5 63.5s-70 34.333 -106 46s-72 17.5 -108 17.5s-69.833 -7.33301 -101.5 -22s-61.167 -33.334 -88.5 -56.001s-52.333 -47.5 -75 -74.5s-42.667 -52.5 -60 -76.5c-8 5.33301 -15 9.83301 -21 13.5s-11.5 7.16699 -16.5 10.5
l-15 10c-5 3.33301 -10.833 7.33301 -17.5 12c-9.33301 6.66699 -18.833 13 -28.5 19s-19.834 12.333 -30.501 19c22.667 36 49.167 72.167 79.5 108.5s64 68.833 101 97.5s77.167 52 120.5 70s89 27 137 27c56 0 108.833 -7.16699 158.5 -21.5s97.167 -33.333 142.5 -57
s89.166 -50.834 131.499 -81.501s84.333 -62.334 126 -95.001s83.5 -65 125.5 -97s85.333 -61 130 -87l-51 -159l-154 -10c-0.666992 -5.33301 -1 -10.5 -1 -15.5v-13.5c0 -10 0.666992 -21.333 2 -34s3.66602 -25.667 6.99902 -39s8 -26.5 14 -39.5s13.667 -25.5 23 -37.5
c17.333 -20.667 36.666 -37.5 57.999 -50.5s45.833 -23.167 73.5 -30.5s58.834 -12.333 93.501 -15s74 -4 118 -4c21.333 0 39.833 -7.83301 55.5 -23.5s23.5 -34.5 23.5 -56.5c0 -21.333 -7.83301 -39.333 -23.5 -54s-34.167 -22 -55.5 -22
c-116.667 0 -212.834 13.833 -288.501 41.5s-135.5 67.5 -179.5 119.5c-21.333 30 -39 64.167 -53 102.5s-22 78.833 -24 121.5c-1.33301 9.33301 -1 22 1 38c-110.667 -10.667 -214.334 -32.834 -311.001 -66.501s-181.334 -76.334 -254.001 -128.001
s-131 -110.5 -175 -176.5s-69 -136.333 -75 -211c-0.666992 -53.333 6.83301 -102 22.5 -146s37.334 -83.333 65.001 -118s60.834 -64.834 99.501 -90.501s80.667 -47 126 -64s93.166 -29.667 143.499 -38s101.5 -12.5 153.5 -12.5zM745.005 1753l-149 -149l-150 150
l149 149zM744.005 1364l-149 -149l-150 150l149 149z" />
    <glyph glyph-name="uni0683.init" unicode="&#x683;" horiz-adv-x="1581" arabic-form="initial" 
d="M-81 98c0 22 7.83496 40.5029 23.502 55.5029s34.5 22.5 56.5 22.5h198c90 0 181 9.16699 273 27.5s183.167 42.5 273.5 72.5s179.333 64.333 267 103s172.5 78.667 254.5 120l-298 124c-31.333 14.667 -62.166 29 -92.499 43s-59.666 26.5 -87.999 37.5
s-55.333 19.667 -81 26s-49.5 9.5 -71.5 9.5c-25.333 0 -49.333 -4.5 -72 -13.5s-43.834 -20.833 -63.501 -35.5s-37.834 -31 -54.501 -49s-31.667 -36 -45 -54s-24.666 -34.833 -33.999 -50.5s-16.666 -28.167 -21.999 -37.5l-134 80
c7.33301 15.333 17.833 34.166 31.5 56.499s33.167 48.833 58.5 79.5c49.333 60 102.333 105.167 159 135.5s115.334 45.5 176.001 45.5c31.333 0 63.166 -3.66699 95.499 -11s65.166 -17 98.499 -29s67.166 -25.833 101.499 -41.5s69.166 -31.834 104.499 -48.501
c38.667 -18 73.834 -35 105.501 -51s62.834 -31.5 93.501 -46.5s62.5 -30 95.5 -45s70.167 -30.167 111.5 -45.5c5.33301 -29.333 10.666 -55.833 15.999 -79.5s10.666 -49.5 15.999 -77.5c-22.667 -9.33301 -41.334 -17.166 -56.001 -23.499s-28.5 -12.666 -41.5 -18.999
s-26.833 -13.333 -41.5 -21s-34 -17.5 -58 -29.5c-72 -35.333 -150.333 -71.333 -235 -108s-173.167 -69.834 -265.5 -99.501s-187.333 -53.834 -285 -72.501s-195.167 -28 -292.5 -28h-198c-22 0 -40.833 7.66699 -56.5 23s-23.5 33.666 -23.5 54.999zM603.002 -368.997
l-148 -148l-150 149l148 149zM997.002 -369.997l-148 -149l-150 150l148 148z" />
    <glyph glyph-name="uni0683.medi" unicode="&#x683;" horiz-adv-x="1665" arabic-form="medial" 
d="M-79 97c0 21.333 7.66016 39.832 22.9932 55.499s34 23.5 56 23.5h183c90.667 0 177.834 8.33301 261.501 25s164.667 38.667 243 66s154.833 58.333 229.5 93s148 70 220 106l60 30c-29.333 10 -61.166 23 -95.499 39s-69.833 32.833 -106.5 50.5s-74 35.667 -112 54
s-75.667 34.666 -113 48.999s-73.666 26.166 -108.999 35.499s-68.666 14 -99.999 14c-37.333 0 -72 -9.5 -104 -28.5s-60.5 -41.5 -85.5 -67.5s-46.167 -52.5 -63.5 -79.5s-30 -48.167 -38 -63.5l-130 88c20.667 38 44.834 75.667 72.501 113s59 70.5 94 99.5
s73.667 52.5 116 70.5s88.5 27 138.5 27c45.333 0 91.166 -6.33301 137.499 -19s92.666 -28.667 138.999 -48s92.666 -41 138.999 -65s92.5 -47.5 138.5 -70.5s91.667 -44 137 -63s90.333 -33.167 135 -42.5c2.66699 -15.333 5.5 -29.333 8.5 -42s5.66699 -25 8 -37
s4.83301 -24.167 7.5 -36.5s5.66699 -25.833 9 -40.5l-27 -12c-6 -2.66699 -12.667 -5.66699 -20 -9s-17 -8 -29 -14s-30.333 -15 -55 -27c8.66699 -30 22 -55.667 40 -77s38.333 -39.166 61 -53.499s46.667 -25.833 72 -34.5s50 -15.167 74 -19.5
s46.333 -7.16602 67 -8.49902s37.334 -2 50.001 -2h6h8c22 0 40.667 -7.83301 56 -23.5s23 -34.167 23 -55.5c0 -22 -7.66699 -40.333 -23 -55s-34 -22 -56 -22h-14c-63.333 0 -122.166 6.33301 -176.499 19s-103.166 31 -146.499 55s-80.666 53.333 -111.999 88
s-55.666 74 -72.999 118c-70 -35.333 -142.5 -69.666 -217.5 -102.999s-152.5 -63.333 -232.5 -90s-162.667 -48 -248 -64s-173.333 -24 -264 -24l-183 1c-22 0 -40.667 7.33301 -56 22s-23 33 -23 55zM714.993 -353.001l-148 -148l-150 149l148 149zM1108.99 -354.001
l-148 -149l-150 150l148 148z" />
    <glyph glyph-name="uni0683.fina" unicode="&#x683;" horiz-adv-x="1603" arabic-form="final" 
d="M853 -608c94 0 183.005 13.1719 267.005 39.5049s166.667 67.833 248 124.5l90 -129c-94.667 -63.333 -195.334 -112.333 -302.001 -147s-220.334 -52 -341.001 -52c-100 0 -194 13.5 -282 40.5s-164.833 66.5 -230.5 118.5s-117.5 115.667 -155.5 191s-57 161 -57 257
v21c0 6.66699 0.333008 14 1 22c4 68 19.333 133.167 46 195.5s63.334 120.333 110.001 174s102.667 102.334 168 146.001s138.333 80.667 219 111s168.334 53.166 263.001 68.499s195 22 301 20c-24 12.667 -50 29.334 -78 50.001s-57.333 42.5 -88 65.5
s-62.5 46.167 -95.5 69.5s-66.833 44.5 -101.5 63.5s-70 34.333 -106 46s-72 17.5 -108 17.5s-69.833 -7.33301 -101.5 -22s-61.167 -33.334 -88.5 -56.001s-52.333 -47.5 -75 -74.5s-42.667 -52.5 -60 -76.5c-8 5.33301 -15 9.83301 -21 13.5s-11.5 7.16699 -16.5 10.5
l-15 10c-5 3.33301 -10.833 7.33301 -17.5 12c-9.33301 6.66699 -18.833 13 -28.5 19s-19.834 12.333 -30.501 19c22.667 36 49.167 72.167 79.5 108.5s64 68.833 101 97.5s77.167 52 120.5 70s89 27 137 27c56 0 108.833 -7.16699 158.5 -21.5s97.167 -33.333 142.5 -57
s89.166 -50.834 131.499 -81.501s84.333 -62.334 126 -95.001s83.5 -65 125.5 -97s85.333 -61 130 -87l-51 -159l-154 -10c-0.666992 -5.33301 -1 -10.5 -1 -15.5v-13.5c0 -10 0.666992 -21.333 2 -34s3.66602 -25.667 6.99902 -39s8 -26.5 14 -39.5s13.667 -25.5 23 -37.5
c17.333 -20.667 36.666 -37.5 57.999 -50.5s45.833 -23.167 73.5 -30.5s58.834 -12.333 93.501 -15s74 -4 118 -4c21.333 0 39.833 -7.83301 55.5 -23.5s23.5 -34.5 23.5 -56.5c0 -21.333 -7.83301 -39.333 -23.5 -54s-34.167 -22 -55.5 -22
c-116.667 0 -212.834 13.833 -288.501 41.5s-135.5 67.5 -179.5 119.5c-21.333 30 -39 64.167 -53 102.5s-22 78.833 -24 121.5c-1.33301 9.33301 -1 22 1 38c-110.667 -10.667 -214.334 -32.834 -311.001 -66.501s-181.334 -76.334 -254.001 -128.001
s-131 -110.5 -175 -176.5s-69 -136.333 -75 -211c-0.666992 -53.333 6.83301 -102 22.5 -146s37.334 -83.333 65.001 -118s60.834 -64.834 99.501 -90.501s80.667 -47 126 -64s93.166 -29.667 143.499 -38s101.5 -12.5 153.5 -12.5zM795.005 -136.995l-148 -148l-150 149
l148 149zM1189 -137.995l-148 -149l-150 150l148 148z" />
    <glyph glyph-name="uni0684.init" unicode="&#x684;" horiz-adv-x="1581" arabic-form="initial" 
d="M-81 98c0 22 7.83496 40.5029 23.502 55.5029s34.5 22.5 56.5 22.5h198c90 0 181 9.16699 273 27.5s183.167 42.5 273.5 72.5s179.333 64.333 267 103s172.5 78.667 254.5 120l-298 124c-31.333 14.667 -62.166 29 -92.499 43s-59.666 26.5 -87.999 37.5
s-55.333 19.667 -81 26s-49.5 9.5 -71.5 9.5c-25.333 0 -49.333 -4.5 -72 -13.5s-43.834 -20.833 -63.501 -35.5s-37.834 -31 -54.501 -49s-31.667 -36 -45 -54s-24.666 -34.833 -33.999 -50.5s-16.666 -28.167 -21.999 -37.5l-134 80
c7.33301 15.333 17.833 34.166 31.5 56.499s33.167 48.833 58.5 79.5c49.333 60 102.333 105.167 159 135.5s115.334 45.5 176.001 45.5c31.333 0 63.166 -3.66699 95.499 -11s65.166 -17 98.499 -29s67.166 -25.833 101.499 -41.5s69.166 -31.834 104.499 -48.501
c38.667 -18 73.834 -35 105.501 -51s62.834 -31.5 93.501 -46.5s62.5 -30 95.5 -45s70.167 -30.167 111.5 -45.5c5.33301 -29.333 10.666 -55.833 15.999 -79.5s10.666 -49.5 15.999 -77.5c-22.667 -9.33301 -41.334 -17.166 -56.001 -23.499s-28.5 -12.666 -41.5 -18.999
s-26.833 -13.333 -41.5 -21s-34 -17.5 -58 -29.5c-72 -35.333 -150.333 -71.333 -235 -108s-173.167 -69.834 -265.5 -99.501s-187.333 -53.834 -285 -72.501s-195.167 -28 -292.5 -28h-198c-22 0 -40.833 7.66699 -56.5 23s-23.5 33.666 -23.5 54.999zM787.002 -294.997
l-149 -149l-150 150l149 149zM796.002 -693.997l-149 -149l-150 150l149 149z" />
    <glyph glyph-name="uni0684.medi" unicode="&#x684;" horiz-adv-x="1663" arabic-form="medial" 
d="M-79 97c0 21.333 7.66016 39.832 22.9932 55.499s34 23.5 56 23.5h183c90.667 0 177.834 8.33301 261.501 25s164.667 38.667 243 66s154.833 58.333 229.5 93s148 70 220 106l60 30c-29.333 10 -61.166 23 -95.499 39s-69.833 32.833 -106.5 50.5s-74 35.667 -112 54
s-75.667 34.666 -113 48.999s-73.666 26.166 -108.999 35.499s-68.666 14 -99.999 14c-37.333 0 -72 -9.5 -104 -28.5s-60.5 -41.5 -85.5 -67.5s-46.167 -52.5 -63.5 -79.5s-30 -48.167 -38 -63.5l-130 88c20.667 38 44.834 75.667 72.501 113s59 70.5 94 99.5
s73.667 52.5 116 70.5s88.5 27 138.5 27c45.333 0 91.166 -6.33301 137.499 -19s92.666 -28.667 138.999 -48s92.666 -41 138.999 -65s92.5 -47.5 138.5 -70.5s91.667 -44 137 -63s90.333 -33.167 135 -42.5c2.66699 -15.333 5.5 -29.333 8.5 -42s5.66699 -25 8 -37
s4.83301 -24.167 7.5 -36.5s5.66699 -25.833 9 -40.5l-27 -12c-6 -2.66699 -12.667 -5.66699 -20 -9s-17 -8 -29 -14s-30.333 -15 -55 -27c8.66699 -30 22 -55.667 40 -77s38.333 -39.166 61 -53.499s46.667 -25.833 72 -34.5s50 -15.167 74 -19.5
s46.333 -7.16602 67 -8.49902s37.334 -2 50.001 -2h6h8c22 0 40.667 -7.83301 56 -23.5s23 -34.167 23 -55.5c0 -22 -7.66699 -40.333 -23 -55s-34 -22 -56 -22h-14c-63.333 0 -122.166 6.33301 -176.499 19s-103.166 31 -146.499 55s-80.666 53.333 -111.999 88
s-55.666 74 -72.999 118c-70 -35.333 -142.5 -69.666 -217.5 -102.999s-152.5 -63.333 -232.5 -90s-162.667 -48 -248 -64s-173.333 -24 -264 -24l-183 1c-22 0 -40.667 7.33301 -56 22s-23 33 -23 55zM856.993 -295.001l-149 -149l-150 150l149 149zM865.993 -694.001
l-149 -149l-150 150l149 149z" />
    <glyph glyph-name="uni0684.fina" unicode="&#x684;" horiz-adv-x="1723" arabic-form="final" 
d="M965 -608c94 0 183.006 13.1719 267.006 39.5049s166.667 67.833 248 124.5l90 -129c-94.667 -63.333 -195.334 -112.333 -302.001 -147s-220.334 -52 -341.001 -52c-100 0 -194 13.5 -282 40.5s-164.833 66.5 -230.5 118.5s-117.5 115.667 -155.5 191s-57 161 -57 257
v21c0 6.66699 0.333008 14 1 22c4 68 19.333 133.167 46 195.5s63.5 120.333 110.5 174s103 102.334 168 146.001s137.833 80.667 218.5 111s168.334 53.166 263.001 68.499s195 22 301 20c-24 12.667 -50 29.334 -78 50.001s-57.333 42.5 -88 65.5s-62.5 46.167 -95.5 69.5
s-66.833 44.5 -101.5 63.5s-70 34.333 -106 46s-72 17.5 -108 17.5s-69.833 -7.33301 -101.5 -22s-61.167 -33.334 -88.5 -56.001s-52.333 -47.5 -75 -74.5s-42.667 -52.5 -60 -76.5c-8 5.33301 -15 9.83301 -21 13.5s-11.5 7.16699 -16.5 10.5l-15 10
c-5 3.33301 -10.833 7.33301 -17.5 12c-9.33301 6.66699 -18.833 13 -28.5 19s-19.834 12.333 -30.501 19c22.667 36 49.167 72.167 79.5 108.5s64 68.833 101 97.5s77.167 52 120.5 70s89 27 137 27c56 0 108.833 -7.16699 158.5 -21.5s97.167 -33.333 142.5 -57
s89.166 -50.834 131.499 -81.501s84.333 -62.334 126 -95.001s83.5 -65 125.5 -97s85.333 -61 130 -87l-51 -159l-154 -10c-0.666992 -5.33301 -1 -10.5 -1 -15.5v-13.5c0 -10 0.666992 -21.333 2 -34s3.66602 -25.667 6.99902 -39s8 -26.5 14 -39.5s13.667 -25.5 23 -37.5
c17.333 -20.667 36.666 -37.5 57.999 -50.5s45.833 -23.167 73.5 -30.5s58.834 -12.333 93.501 -15s74 -4 118 -4c21.333 0 39.833 -7.83301 55.5 -23.5s23.5 -34.5 23.5 -56.5c0 -21.333 -7.83301 -39.333 -23.5 -54s-34.167 -22 -55.5 -22
c-116.667 0 -212.834 13.833 -288.501 41.5s-135.5 67.5 -179.5 119.5c-21.333 30 -39 64.167 -53 102.5s-22 78.833 -24 121.5c-1.33301 9.33301 -1 22 1 38c-110.667 -10.667 -214.334 -32.834 -311.001 -66.501s-181.334 -76.334 -254.001 -128.001
s-131 -110.5 -175 -176.5s-69 -136.333 -75 -211c-0.666992 -53.333 6.83301 -102 22.5 -146s37.334 -83.333 65.001 -118s60.834 -64.834 99.501 -90.501s80.667 -47 126 -64s93.166 -29.667 143.499 -38s101.5 -12.5 153.5 -12.5zM1100.01 81.0049l-149 -149l-150 150
l149 149zM1109.01 -317.995l-149 -149l-150 150l149 149z" />
    <glyph glyph-name="uni0685.init" unicode="&#x685;" horiz-adv-x="1548" 
d="M-81 98c0 22 7.83496 40.5029 23.502 55.5029s34.5 22.5 56.5 22.5h198c90 0 181 9.16699 273 27.5s183.167 42.5 273.5 72.5s179.333 64.333 267 103s172.5 78.667 254.5 120l-298 124c-31.333 14.667 -62.166 29 -92.499 43s-59.666 26.5 -87.999 37.5
s-55.333 19.667 -81 26s-49.5 9.5 -71.5 9.5c-25.333 0 -49.333 -4.5 -72 -13.5s-43.834 -20.833 -63.501 -35.5s-37.834 -31 -54.501 -49s-31.667 -36 -45 -54s-24.666 -34.833 -33.999 -50.5s-16.666 -28.167 -21.999 -37.5l-134 80
c7.33301 15.333 17.833 34.166 31.5 56.499s33.167 48.833 58.5 79.5c49.333 60 102.333 105.167 159 135.5s115.334 45.5 176.001 45.5c31.333 0 63.166 -3.66699 95.499 -11s65.166 -17 98.499 -29s67.166 -25.833 101.499 -41.5s69.166 -31.834 104.499 -48.501
c38.667 -18 73.834 -35 105.501 -51s62.834 -31.5 93.501 -46.5s62.5 -30 95.5 -45s70.167 -30.167 111.5 -45.5c5.33301 -29.333 10.666 -55.833 15.999 -79.5s10.666 -49.5 15.999 -77.5c-22.667 -9.33301 -41.334 -17.166 -56.001 -23.499s-28.5 -12.666 -41.5 -18.999
s-26.833 -13.333 -41.5 -21s-34 -17.5 -58 -29.5c-72 -35.333 -150.333 -71.333 -235 -108s-173.167 -69.834 -265.5 -99.501s-187.333 -53.834 -285 -72.501s-195.167 -28 -292.5 -28h-198c-22 0 -40.833 7.66699 -56.5 23s-23.5 33.666 -23.5 54.999zM576.002 1200
l146 146l148 -148l-146 -146zM170.002 1201l146 147l148 -148l-146 -147zM393.002 1491l132 132l133 -133l-132 -132z" />
    <glyph glyph-name="uni0685.medi" unicode="&#x685;" horiz-adv-x="1663" 
d="M-79 97c0 21.333 7.66016 39.832 22.9932 55.499s34 23.5 56 23.5h183c90.667 0 177.834 8.33301 261.501 25s164.667 38.667 243 66s154.833 58.333 229.5 93s148 70 220 106l60 30c-29.333 10 -61.166 23 -95.499 39s-69.833 32.833 -106.5 50.5s-74 35.667 -112 54
s-75.667 34.666 -113 48.999s-73.666 26.166 -108.999 35.499s-68.666 14 -99.999 14c-37.333 0 -72 -9.5 -104 -28.5s-60.5 -41.5 -85.5 -67.5s-46.167 -52.5 -63.5 -79.5s-30 -48.167 -38 -63.5l-130 88c20.667 38 44.834 75.667 72.501 113s59 70.5 94 99.5
s73.667 52.5 116 70.5s88.5 27 138.5 27c45.333 0 91.166 -6.33301 137.499 -19s92.666 -28.667 138.999 -48s92.666 -41 138.999 -65s92.5 -47.5 138.5 -70.5s91.667 -44 137 -63s90.333 -33.167 135 -42.5c2.66699 -15.333 5.5 -29.333 8.5 -42s5.66699 -25 8 -37
s4.83301 -24.167 7.5 -36.5s5.66699 -25.833 9 -40.5l-27 -12c-6 -2.66699 -12.667 -5.66699 -20 -9s-17 -8 -29 -14s-30.333 -15 -55 -27c8.66699 -30 22 -55.667 40 -77s38.333 -39.166 61 -53.499s46.667 -25.833 72 -34.5s50 -15.167 74 -19.5
s46.333 -7.16602 67 -8.49902s37.334 -2 50.001 -2h6h8c22 0 40.667 -7.83301 56 -23.5s23 -34.167 23 -55.5c0 -22 -7.66699 -40.333 -23 -55s-34 -22 -56 -22h-14c-63.333 0 -122.166 6.33301 -176.499 19s-103.166 31 -146.499 55s-80.666 53.333 -111.999 88
s-55.666 74 -72.999 118c-70 -35.333 -142.5 -69.666 -217.5 -102.999s-152.5 -63.333 -232.5 -90s-162.667 -48 -248 -64s-173.333 -24 -264 -24l-183 1c-22 0 -40.667 7.33301 -56 22s-23 33 -23 55zM575.993 1196l146 146l148 -148l-146 -146zM169.993 1197l146 147
l148 -148l-146 -147zM392.993 1487l132 132l133 -133l-132 -132z" />
    <glyph glyph-name="uni0685.fina" unicode="&#x685;" horiz-adv-x="1598" 
d="M853 -608c94 0 183.005 13.1719 267.005 39.5049s166.667 67.833 248 124.5l90 -129c-94.667 -63.333 -195.334 -112.333 -302.001 -147s-220.334 -52 -341.001 -52c-100 0 -194 13.5 -282 40.5s-164.833 66.5 -230.5 118.5s-117.5 115.667 -155.5 191s-57 161 -57 257
v21c0 6.66699 0.333008 14 1 22c4 68 19.333 133.167 46 195.5s63.334 120.333 110.001 174s102.667 102.334 168 146.001s138.333 80.667 219 111s168.334 53.166 263.001 68.499s195 22 301 20c-24 12.667 -50 29.334 -78 50.001s-57.333 42.5 -88 65.5
s-62.5 46.167 -95.5 69.5s-66.833 44.5 -101.5 63.5s-70 34.333 -106 46s-72 17.5 -108 17.5s-69.833 -7.33301 -101.5 -22s-61.167 -33.334 -88.5 -56.001s-52.333 -47.5 -75 -74.5s-42.667 -52.5 -60 -76.5c-8 5.33301 -15 9.83301 -21 13.5s-11.5 7.16699 -16.5 10.5
l-15 10c-5 3.33301 -10.833 7.33301 -17.5 12c-9.33301 6.66699 -18.833 13 -28.5 19s-19.834 12.333 -30.501 19c22.667 36 49.167 72.167 79.5 108.5s64 68.833 101 97.5s77.167 52 120.5 70s89 27 137 27c56 0 108.833 -7.16699 158.5 -21.5s97.167 -33.333 142.5 -57
s89.166 -50.834 131.499 -81.501s84.333 -62.334 126 -95.001s83.5 -65 125.5 -97s85.333 -61 130 -87l-51 -159l-154 -10c-0.666992 -5.33301 -1 -10.5 -1 -15.5v-13.5c0 -10 0.666992 -21.333 2 -34s3.66602 -25.667 6.99902 -39s8 -26.5 14 -39.5s13.667 -25.5 23 -37.5
c17.333 -20.667 36.666 -37.5 57.999 -50.5s45.833 -23.167 73.5 -30.5s58.834 -12.333 93.501 -15s74 -4 118 -4c21.333 0 39.833 -7.83301 55.5 -23.5s23.5 -34.5 23.5 -56.5c0 -21.333 -7.83301 -39.333 -23.5 -54s-34.167 -22 -55.5 -22
c-116.667 0 -212.834 13.833 -288.501 41.5s-135.5 67.5 -179.5 119.5c-21.333 30 -39 64.167 -53 102.5s-22 78.833 -24 121.5c-1.33301 9.33301 -1 22 1 38c-110.667 -10.667 -214.334 -32.834 -311.001 -66.501s-181.334 -76.334 -254.001 -128.001
s-131 -110.5 -175 -176.5s-69 -136.333 -75 -211c-0.666992 -53.333 6.83301 -102 22.5 -146s37.334 -83.333 65.001 -118s60.834 -64.834 99.501 -90.501s80.667 -47 126 -64s93.166 -29.667 143.499 -38s101.5 -12.5 153.5 -12.5zM661.005 1352l146 146l148 -148
l-146 -146zM255.005 1353l146 147l148 -148l-146 -147zM478.005 1643l132 132l133 -133l-132 -132z" />
    <glyph glyph-name="uni0686" unicode="&#x686;" horiz-adv-x="1598" arabic-form="isolated" 
d="M891 -608c94 0 182.999 13.1699 266.999 39.5029s166.667 67.833 248 124.5l90 -129c-94.667 -63.333 -195.334 -112.333 -302.001 -147s-220.334 -52 -341.001 -52c-100 0 -194 13.5 -282 40.5s-164.833 66.5 -230.5 118.5s-117.5 115.667 -155.5 191s-57 161 -57 257
v21c0 6.66699 0.333008 14 1 22c4 68 19.333 133.167 46 195.5s63.334 120.333 110.001 174s102.667 102.334 168 146.001s138.333 80.667 219 111s168.334 53.166 263.001 68.499s195 22 301 20c-24 12.667 -50 29.334 -78 50.001s-57.333 42.5 -88 65.5
s-62.5 46.167 -95.5 69.5s-66.833 44.5 -101.5 63.5s-70 34.333 -106 46s-72 17.5 -108 17.5s-69.833 -7.33301 -101.5 -22s-61.167 -33.334 -88.5 -56.001s-52.333 -47.5 -75 -74.5s-42.667 -52.5 -60 -76.5c-8 5.33301 -15 9.83301 -21 13.5s-11.5 7.16699 -16.5 10.5
l-15 10c-5 3.33301 -10.833 7.33301 -17.5 12c-9.33301 6.66699 -18.833 13 -28.5 19s-19.834 12.333 -30.501 19c22.667 36 49.167 72.167 79.5 108.5s64 68.833 101 97.5s77.167 52 120.5 70s89 27 137 27c56 0 108.833 -7.16699 158.5 -21.5s97.167 -33.333 142.5 -57
s89.166 -50.834 131.499 -81.501s84.333 -62.334 126 -95.001s83.5 -65 125.5 -97s85.333 -61 130 -87l-63 -182c-96 10 -189.333 11.167 -280 3.5s-176.5 -23 -257.5 -46s-155.667 -52.5 -224 -88.5s-127.666 -77.333 -177.999 -124s-90.666 -97.5 -120.999 -152.5
s-47.833 -112.833 -52.5 -173.5c-0.666992 -53.333 6.83301 -102 22.5 -146s37.334 -83.333 65.001 -118s60.834 -64.834 99.501 -90.501s80.667 -47 126 -64s93.166 -29.667 143.499 -38s101.5 -12.5 153.5 -12.5zM1090.57 154.437l140.412 -140.431l-142.336 -142.354
l-140.413 140.431zM700.103 153.475l140.412 -141.393l-142.336 -142.354l-140.412 141.393zM900.143 -139.891l126.948 -126.965l-127.91 -127.927l-126.948 126.965z" />
    <glyph glyph-name="uni0687.init" unicode="&#x687;" horiz-adv-x="1565" arabic-form="initial" 
d="M-81 98c0 22 7.83496 40.5029 23.502 55.5029s34.5 22.5 56.5 22.5h198c90 0 181 9.16699 273 27.5s183.167 42.5 273.5 72.5s179.333 64.333 267 103s172.5 78.667 254.5 120l-298 124c-31.333 14.667 -62.166 29 -92.499 43s-59.666 26.5 -87.999 37.5
s-55.333 19.667 -81 26s-49.5 9.5 -71.5 9.5c-25.333 0 -49.333 -4.5 -72 -13.5s-43.834 -20.833 -63.501 -35.5s-37.834 -31 -54.501 -49s-31.667 -36 -45 -54s-24.666 -34.833 -33.999 -50.5s-16.666 -28.167 -21.999 -37.5l-134 80
c7.33301 15.333 17.833 34.166 31.5 56.499s33.167 48.833 58.5 79.5c49.333 60 102.333 105.167 159 135.5s115.334 45.5 176.001 45.5c31.333 0 63.166 -3.66699 95.499 -11s65.166 -17 98.499 -29s67.166 -25.833 101.499 -41.5s69.166 -31.834 104.499 -48.501
c38.667 -18 73.834 -35 105.501 -51s62.834 -31.5 93.501 -46.5s62.5 -30 95.5 -45s70.167 -30.167 111.5 -45.5c5.33301 -29.333 10.666 -55.833 15.999 -79.5s10.666 -49.5 15.999 -77.5c-22.667 -9.33301 -41.334 -17.166 -56.001 -23.499s-28.5 -12.666 -41.5 -18.999
s-26.833 -13.333 -41.5 -21s-34 -17.5 -58 -29.5c-72 -35.333 -150.333 -71.333 -235 -108s-173.167 -69.834 -265.5 -99.501s-187.333 -53.834 -285 -72.501s-195.167 -28 -292.5 -28h-198c-22 0 -40.833 7.66699 -56.5 23s-23.5 33.666 -23.5 54.999zM957.002 -673.997
l-148 -149l-150 150l148 148zM597.002 -679.997l-148 -148l-150 149l148 149zM954.002 -272.997l-148 -149l-150 150l148 148zM594.002 -278.997l-148 -148l-150 149l148 149z" />
    <glyph glyph-name="uni0687.medi" unicode="&#x687;" horiz-adv-x="1658" arabic-form="medial" 
d="M-79 97c0 21.333 7.66016 39.832 22.9932 55.499s34 23.5 56 23.5h183c90.667 0 177.834 8.33301 261.501 25s164.667 38.667 243 66s154.833 58.333 229.5 93s148 70 220 106l60 30c-29.333 10 -61.166 23 -95.499 39s-69.833 32.833 -106.5 50.5s-74 35.667 -112 54
s-75.667 34.666 -113 48.999s-73.666 26.166 -108.999 35.499s-68.666 14 -99.999 14c-37.333 0 -72 -9.5 -104 -28.5s-60.5 -41.5 -85.5 -67.5s-46.167 -52.5 -63.5 -79.5s-30 -48.167 -38 -63.5l-130 88c20.667 38 44.834 75.667 72.501 113s59 70.5 94 99.5
s73.667 52.5 116 70.5s88.5 27 138.5 27c45.333 0 91.166 -6.33301 137.499 -19s92.666 -28.667 138.999 -48s92.666 -41 138.999 -65s92.5 -47.5 138.5 -70.5s91.667 -44 137 -63s90.333 -33.167 135 -42.5c2.66699 -15.333 5.5 -29.333 8.5 -42s5.66699 -25 8 -37
s4.83301 -24.167 7.5 -36.5s5.66699 -25.833 9 -40.5l-27 -12c-6 -2.66699 -12.667 -5.66699 -20 -9s-17 -8 -29 -14s-30.333 -15 -55 -27c8.66699 -30 22 -55.667 40 -77s38.333 -39.166 61 -53.499s46.667 -25.833 72 -34.5s50 -15.167 74 -19.5
s46.333 -7.16602 67 -8.49902s37.334 -2 50.001 -2h6h8c22 0 40.667 -7.83301 56 -23.5s23 -34.167 23 -55.5c0 -22 -7.66699 -40.333 -23 -55s-34 -22 -56 -22h-14c-63.333 0 -122.166 6.33301 -176.499 19s-103.166 31 -146.499 55s-80.666 53.333 -111.999 88
s-55.666 74 -72.999 118c-70 -35.333 -142.5 -69.666 -217.5 -102.999s-152.5 -63.333 -232.5 -90s-162.667 -48 -248 -64s-173.333 -24 -264 -24l-183 1c-22 0 -40.667 7.33301 -56 22s-23 33 -23 55zM941.993 -649.001l-148 -149l-150 150l148 148zM581.993 -655.001
l-148 -148l-150 149l148 149zM938.993 -248.001l-148 -149l-150 150l148 148zM578.993 -254.001l-148 -148l-150 149l148 149z" />
    <glyph glyph-name="uni0687.fina" unicode="&#x687;" horiz-adv-x="1722" arabic-form="final" 
d="M965 -608c94 0 183.006 13.1719 267.006 39.5049s166.667 67.833 248 124.5l90 -129c-94.667 -63.333 -195.334 -112.333 -302.001 -147s-220.334 -52 -341.001 -52c-100 0 -194 13.5 -282 40.5s-164.833 66.5 -230.5 118.5s-117.5 115.667 -155.5 191s-57 161 -57 257
v21c0 6.66699 0.333008 14 1 22c4 68 19.333 133.167 46 195.5s63.5 120.333 110.5 174s103 102.334 168 146.001s137.833 80.667 218.5 111s168.334 53.166 263.001 68.499s195 22 301 20c-24 12.667 -50 29.334 -78 50.001s-57.333 42.5 -88 65.5s-62.5 46.167 -95.5 69.5
s-66.833 44.5 -101.5 63.5s-70 34.333 -106 46s-72 17.5 -108 17.5s-69.833 -7.33301 -101.5 -22s-61.167 -33.334 -88.5 -56.001s-52.333 -47.5 -75 -74.5s-42.667 -52.5 -60 -76.5c-8 5.33301 -15 9.83301 -21 13.5s-11.5 7.16699 -16.5 10.5l-15 10
c-5 3.33301 -10.833 7.33301 -17.5 12c-9.33301 6.66699 -18.833 13 -28.5 19s-19.834 12.333 -30.501 19c22.667 36 49.167 72.167 79.5 108.5s64 68.833 101 97.5s77.167 52 120.5 70s89 27 137 27c56 0 108.833 -7.16699 158.5 -21.5s97.167 -33.333 142.5 -57
s89.166 -50.834 131.499 -81.501s84.333 -62.334 126 -95.001s83.5 -65 125.5 -97s85.333 -61 130 -87l-51 -159l-154 -10c-0.666992 -5.33301 -1 -10.5 -1 -15.5v-13.5c0 -10 0.666992 -21.333 2 -34s3.66602 -25.667 6.99902 -39s8 -26.5 14 -39.5s13.667 -25.5 23 -37.5
c17.333 -20.667 36.666 -37.5 57.999 -50.5s45.833 -23.167 73.5 -30.5s58.834 -12.333 93.501 -15s74 -4 118 -4c21.333 0 39.833 -7.83301 55.5 -23.5s23.5 -34.5 23.5 -56.5c0 -21.333 -7.83301 -39.333 -23.5 -54s-34.167 -22 -55.5 -22
c-116.667 0 -212.834 13.833 -288.501 41.5s-135.5 67.5 -179.5 119.5c-21.333 30 -39 64.167 -53 102.5s-22 78.833 -24 121.5c-1.33301 9.33301 -1 22 1 38c-110.667 -10.667 -214.334 -32.834 -311.001 -66.501s-181.334 -76.334 -254.001 -128.001
s-131 -110.5 -175 -176.5s-69 -136.333 -75 -211c-0.666992 -53.333 6.83301 -102 22.5 -146s37.334 -83.333 65.001 -118s60.834 -64.834 99.501 -90.501s80.667 -47 126 -64s93.166 -29.667 143.499 -38s101.5 -12.5 153.5 -12.5zM1241.01 -311.995l-148 -149l-150 150
l148 148zM881.006 -317.995l-148 -148l-150 149l148 149zM1238.01 89.0049l-148 -149l-150 150l148 148zM878.006 83.0049l-148 -148l-150 149l148 149z" />
    <glyph glyph-name="uni0688" unicode="&#x688;" horiz-adv-x="1149" arabic-form="isolated" 
d="M553 21c-30 0 -65.5059 3.33301 -106.506 10s-81.667 15.5 -122 26.5s-77.666 23.5 -111.999 37.5s-60.166 28 -77.499 42l67 153c24 -14 51.167 -27.333 81.5 -40s62.666 -23.834 96.999 -33.501s69.5 -17.5 105.5 -23.5s71.333 -9 106 -9
c49.333 0 96.166 6.83301 140.499 20.5s80.833 38.167 109.5 73.5c23.333 28.667 32.833 63.167 28.5 103.5s-17.666 83.166 -39.999 128.499s-51.166 91.333 -86.499 138s-72.666 90.5 -111.999 131.5s-78 77.167 -116 108.5s-71 54.666 -99 69.999
c12 26.667 23 51.334 33 74.001s20.667 46.667 32 72c36.667 -20 73.834 -44.667 111.501 -74s74.5 -61.666 110.5 -96.999s70.333 -73 103 -113s62.334 -81 89.001 -123s49.834 -84 69.501 -126s34.167 -82.667 43.5 -122c4.66699 -22 8 -45 10 -69s1.5 -47.667 -1.5 -71
s-8.66699 -46.166 -17 -68.499s-20.5 -42.833 -36.5 -61.5c-59.333 -71.333 -141.666 -118.333 -246.999 -141c-23.333 -6 -48.833 -10.333 -76.5 -13s-56.834 -4 -87.501 -4zM675.994 1409c-34.667 -18 -72.334 -30.002 -113.001 -36.002
c-54 -7.33301 -113 -7.33301 -177 0c60.667 82.667 116.667 142.667 168 180c26 18.667 48.667 32.334 68 41.001c28 12 53.667 16 77 12c28 -4.66699 48.333 -18.667 61 -42c12 -24 12.333 -49 1 -75c-1.33301 -2.66699 -2 -3.66699 -2 -3l2 3c0.666992 2 1 3.33301 1 4
c0.666992 0.666992 0.333984 -0.666016 -0.999023 -3.99902c-14.667 -31.333 -43 -58 -85 -80zM787.994 1648c-32.667 22.667 -70.3311 34.001 -112.998 34.001c-38 0 -79 -13 -123 -39c-31.333 -18.667 -66 -45.667 -104 -81c0 52 -2.66699 112.333 -8 181l-5 52l-6 53
c-5.33301 45.333 -9 80.666 -11 105.999l-80 -10c9.33301 -50.667 17.333 -108.334 24 -173.001l5 -54l4 -54c2 -40 2 -76 0 -108l-4 -42l-1 -13l-2 -14c-1.33301 -11.333 -4 -19.666 -8 -24.999l-32 -43l-6 -10l-7 -10c-5.33301 -7.33301 -11.333 -10.333 -18 -9
c-34 9.33301 -67.333 20.333 -100 33l-15 -36l-15 -35c148.667 -56.667 287.667 -74 417 -52c73.333 12.667 137.666 42 192.999 88c23.333 19.333 41.666 43.666 54.999 72.999c14 31.333 19.667 61 17 89v9v-5c0.666992 -2.66699 1 -4.66699 1 -6
s-0.333008 -0.666016 -1 2.00098c-2 40.667 -21 73.667 -57 99z" />
    <glyph glyph-name="uni0689.fina" unicode="&#x689;" horiz-adv-x="1242" 
d="M490 20c-36 0 -71.8311 3.83398 -107.498 11.501s-70.334 18.667 -104.001 33s-66 32 -97 53s-59.5 44.5 -85.5 70.5c16.667 23.333 32 44.5 46 63.5s29 39.833 45 62.5c52.667 -45.333 107.834 -79 165.501 -101s111.834 -33 162.501 -33c25.333 0 53 2.5 83 7.5
s56.667 12.167 80 21.5c17.333 6.66699 34.833 14.334 52.5 23.001s34.5 17.334 50.5 26.001s30.167 17.167 42.5 25.5s22.166 16.166 29.499 23.499l-313 754c27.333 11.333 51.833 21.666 73.5 30.999s45.167 19.333 70.5 30c20 -49.333 45.333 -110.333 76 -183
c25.333 -62.667 57.833 -141.334 97.5 -236.001s86.834 -208 141.501 -340c11.333 -28.667 22.333 -54.5 33 -77.5s24.834 -42.667 42.501 -59s40.167 -28.833 67.5 -37.5s63 -13 107 -13c21.333 0 39.833 -7.5 55.5 -22.5s23.5 -33.5 23.5 -55.5
s-7.83301 -40.5 -23.5 -55.5s-34.167 -22.5 -55.5 -22.5c-41.333 0 -78.333 3.66699 -111 11s-61.834 17.5 -87.501 30.5s-48.334 28 -68.001 45s-36.834 35.167 -51.501 54.5c-11.333 -8.66699 -24.833 -17.5 -40.5 -26.5s-32.334 -17.667 -50.001 -26
s-35.5 -16.5 -53.5 -24.5s-35 -15.333 -51 -22h1c-36 -14 -73.833 -24.5 -113.5 -31.5s-84.167 -10.5 -133.5 -10.5zM638.002 -239.999c18 0 35.335 4.33496 52.002 13.002s31.5 20.167 44.5 34.5s23.167 31 30.5 50s10.333 39.167 9 60.5
c-0.666992 16.667 -3.83398 34.5 -9.50098 53.5s-14.334 36.167 -26.001 51.5s-25.667 27.833 -42 37.5s-35.833 14.5 -58.5 14.5c-20.667 0 -39.334 -5.16699 -56.001 -15.5s-31.167 -23 -43.5 -38s-21.666 -31.833 -27.999 -50.5s-9.5 -36.334 -9.5 -53.001
c0 -18.667 3.83301 -37.334 11.5 -56.001s17.667 -35.5 30 -50.5s26.833 -27.333 43.5 -37s34 -14.5 52 -14.5zM638.004 160.003c32.667 0 62.167 -7.49805 88.5 -22.498s49.166 -34 68.499 -57s34.5 -48.833 45.5 -77.5s17.167 -57 18.5 -85
c0.666992 -31.333 -4.66602 -61.333 -15.999 -90s-27 -54.5 -47 -77.5s-43.5 -41.333 -70.5 -55s-56.167 -20.5 -87.5 -20.5c-33.333 -0.666992 -63.666 6 -90.999 20s-50.666 32.667 -69.999 56s-34.166 49.666 -44.499 78.999s-15.5 58.666 -15.5 87.999
c0 28 5.16699 56.333 15.5 85s25.166 54.5 44.499 77.5s42.666 42 69.999 57s57.666 22.5 90.999 22.5z" />
    <glyph glyph-name="uni068A.fina" unicode="&#x68a;" horiz-adv-x="1253" 
d="M490 20c-36 0 -71.8311 3.83398 -107.498 11.501s-70.334 18.667 -104.001 33s-66 32 -97 53s-59.5 44.5 -85.5 70.5c16.667 23.333 32 44.5 46 63.5s29 39.833 45 62.5c52.667 -45.333 107.834 -79 165.501 -101s111.834 -33 162.501 -33c25.333 0 53 2.5 83 7.5
s56.667 12.167 80 21.5c17.333 6.66699 34.833 14.334 52.5 23.001s34.5 17.334 50.5 26.001s30.167 17.167 42.5 25.5s22.166 16.166 29.499 23.499l-313 754c27.333 11.333 51.833 21.666 73.5 30.999s45.167 19.333 70.5 30c20 -49.333 45.333 -110.333 76 -183
c25.333 -62.667 57.833 -141.334 97.5 -236.001s86.834 -208 141.501 -340c11.333 -28.667 22.333 -54.5 33 -77.5s24.834 -42.667 42.501 -59s40.167 -28.833 67.5 -37.5s63 -13 107 -13c21.333 0 39.833 -7.5 55.5 -22.5s23.5 -33.5 23.5 -55.5
s-7.83301 -40.5 -23.5 -55.5s-34.167 -22.5 -55.5 -22.5c-41.333 0 -78.333 3.66699 -111 11s-61.834 17.5 -87.501 30.5s-48.334 28 -68.001 45s-36.834 35.167 -51.501 54.5c-11.333 -8.66699 -24.833 -17.5 -40.5 -26.5s-32.334 -17.667 -50.001 -26
s-35.5 -16.5 -53.5 -24.5s-35 -15.333 -51 -22h1c-36 -14 -73.833 -24.5 -113.5 -31.5s-84.167 -10.5 -133.5 -10.5zM751.002 -359.999l-147 -147l-148 148l147 147z" />
    <glyph glyph-name="uni068B.fina" unicode="&#x68b;" horiz-adv-x="1258" 
d="M490 20c-36 0 -71.8311 3.83398 -107.498 11.501s-70.334 18.667 -104.001 33s-66 32 -97 53s-59.5 44.5 -85.5 70.5c16.667 23.333 32 44.5 46 63.5s29 39.833 45 62.5c52.667 -45.333 107.834 -79 165.501 -101s111.834 -33 162.501 -33c25.333 0 53 2.5 83 7.5
s56.667 12.167 80 21.5c17.333 6.66699 34.833 14.334 52.5 23.001s34.5 17.334 50.5 26.001s30.167 17.167 42.5 25.5s22.166 16.166 29.499 23.499l-313 754c27.333 11.333 51.833 21.666 73.5 30.999s45.167 19.333 70.5 30c20 -49.333 45.333 -110.333 76 -183
c25.333 -62.667 57.833 -141.334 97.5 -236.001s86.834 -208 141.501 -340c11.333 -28.667 22.333 -54.5 33 -77.5s24.834 -42.667 42.501 -59s40.167 -28.833 67.5 -37.5s63 -13 107 -13c21.333 0 39.833 -7.5 55.5 -22.5s23.5 -33.5 23.5 -55.5
s-7.83301 -40.5 -23.5 -55.5s-34.167 -22.5 -55.5 -22.5c-41.333 0 -78.333 3.66699 -111 11s-61.834 17.5 -87.501 30.5s-48.334 28 -68.001 45s-36.834 35.167 -51.501 54.5c-11.333 -8.66699 -24.833 -17.5 -40.5 -26.5s-32.334 -17.667 -50.001 -26
s-35.5 -16.5 -53.5 -24.5s-35 -15.333 -51 -22h1c-36 -14 -73.833 -24.5 -113.5 -31.5s-84.167 -10.5 -133.5 -10.5zM690.002 -359.999l-147 -147l-148 148l147 147zM700.002 1435c-34.667 -18 -72.334 -30.002 -113.001 -36.002c-54 -7.33301 -113 -7.33301 -177 0
c60.667 82.667 116.667 142.667 168 180c26 18.667 48.667 32.334 68 41.001c28 12 53.667 16 77 12c28 -4.66699 48.333 -18.667 61 -42c12 -24 12.333 -49 1 -75c-1.33301 -2.66699 -2 -3.66699 -2 -3l2 3c0.666992 2 1 3.33301 1 4
c0.666992 0.666992 0.333984 -0.666016 -0.999023 -3.99902c-14.667 -31.333 -43 -58 -85 -80zM812.002 1674c-32.667 22.667 -70.3311 34.001 -112.998 34.001c-38 0 -79 -13 -123 -39c-31.333 -18.667 -66 -45.667 -104 -81c0 52 -2.66699 112.333 -8 181l-5 52l-6 53
c-5.33301 45.333 -9 80.666 -11 105.999l-80 -10c9.33301 -50.667 17.333 -108.334 24 -173.001l5 -54l4 -54c2 -40 2 -76 0 -108l-4 -42l-1 -13l-2 -14c-1.33301 -11.333 -4 -19.666 -8 -24.999l-32 -43l-6 -10l-7 -10c-5.33301 -7.33301 -11.333 -10.333 -18 -9
c-34 9.33301 -67.333 20.333 -100 33l-15 -36l-15 -35c148.667 -56.667 287.667 -74 417 -52c73.333 12.667 137.666 42 192.999 88c23.333 19.333 41.666 43.666 54.999 72.999c14 31.333 19.667 61 17 89v9v-5c0.666992 -2.66699 1 -4.66699 1 -6
s-0.333008 -0.666016 -1 2.00098c-2 40.667 -21 73.667 -57 99z" />
    <glyph glyph-name="uni068C.fina" unicode="&#x68c;" horiz-adv-x="1253" arabic-form="final" 
d="M490 20c-36 0 -71.8311 3.83398 -107.498 11.501s-70.334 18.667 -104.001 33s-66 32 -97 53s-59.5 44.5 -85.5 70.5c16.667 23.333 32 44.5 46 63.5s29 39.833 45 62.5c52.667 -45.333 107.834 -79 165.501 -101s111.834 -33 162.501 -33c25.333 0 53 2.5 83 7.5
s56.667 12.167 80 21.5c17.333 6.66699 34.833 14.334 52.5 23.001s34.5 17.334 50.5 26.001s30.167 17.167 42.5 25.5s22.166 16.166 29.499 23.499l-313 754c27.333 11.333 51.833 21.666 73.5 30.999s45.167 19.333 70.5 30c20 -49.333 45.333 -110.333 76 -183
c25.333 -62.667 57.833 -141.334 97.5 -236.001s86.834 -208 141.501 -340c11.333 -28.667 22.333 -54.5 33 -77.5s24.834 -42.667 42.501 -59s40.167 -28.833 67.5 -37.5s63 -13 107 -13c21.333 0 39.833 -7.5 55.5 -22.5s23.5 -33.5 23.5 -55.5
s-7.83301 -40.5 -23.5 -55.5s-34.167 -22.5 -55.5 -22.5c-41.333 0 -78.333 3.66699 -111 11s-61.834 17.5 -87.501 30.5s-48.334 28 -68.001 45s-36.834 35.167 -51.501 54.5c-11.333 -8.66699 -24.833 -17.5 -40.5 -26.5s-32.334 -17.667 -50.001 -26
s-35.5 -16.5 -53.5 -24.5s-35 -15.333 -51 -22h1c-36 -14 -73.833 -24.5 -113.5 -31.5s-84.167 -10.5 -133.5 -10.5zM610.002 1425l-146 -146l-148 147l146 147zM965.002 1423l-145 -146l-148 148l146 146z" />
    </font>
</defs>
</svg>
